<?xml version="1.0" encoding="utf-8"?>
<!-- Generator: Adobe Illustrator 24.0.0, SVG Export Plug-In . SVG Version: 6.00 Build 0)  -->
<svg version="1.1" id="Layer_1" xmlns="http://www.w3.org/2000/svg" xmlns:xlink="http://www.w3.org/1999/xlink" x="0px" y="0px"
	 viewBox="0 0 512 512" style="enable-background:new 0 0 512 512;" xml:space="preserve">
<style type="text/css">
	.st0{fill:#D7E6F0;}
	.st1{fill:#A5C3DC;}
	.st2{fill:#F06423;}
	.st3{fill:#FAA019;}
	.st4{fill:#FFD205;}
	.st5{fill:#91C83C;}
	.st6{fill:#5FAA46;}
	.st7{fill:#555A6E;}
	.st8{fill:#463C4B;}
	.st9{fill:#FFBE28;}
	.st10{fill:#A55023;}
	.st11{fill:#D26E28;}
	.st12{fill:#F28A39;}
	.st13{fill:#4B8C41;}
	.st14{fill:#69A041;}
	.st15{fill:#91B945;}
	.st16{fill:#FFFFFF;}
	.st17{fill:#F04B37;}
	.st18{fill:#AFD763;}
	.st19{fill:#E1322D;}
	.st20{fill:#5AD7FF;}
	.st21{fill:#A5FFFF;}
	.st22{fill:#23AAE6;}
	.st23{fill:#F0915A;}
	.st24{fill:#FAB991;}
	.st25{fill:#D2643C;}
	.st26{fill:#6E788C;}
	.st27{fill:#9B5FAA;}
	.st28{fill:#643773;}
	.st29{fill:#F5826E;}
	.st30{fill:#C81E14;}
	.st31{fill:#FAA037;}
	.st32{fill:#F57828;}
	.st33{fill:#D65A0A;}
	.st34{fill:#FFF050;}
	.st35{fill:#FFD23C;}
	.st36{fill:#FFFF50;}
	.st37{fill:#F5871E;}
	.st38{fill:#FAA01E;}
	.st39{fill:#FF6955;}
	.st40{fill:#FF8773;}
	.st41{fill:#BEDC5A;}
	.st42{fill:#BE5000;}
	.st43{fill:#D7322D;}
	.st44{fill:#FAF0DC;}
	.st45{fill:#FFBE55;}
	.st46{fill:#DC6E1E;}
	.st47{fill:#804B8F;}
	.st48{fill:#4182C3;}
	.st49{fill:#64AFE1;}
	.st50{fill:#FABE19;}
	.st51{fill:#8CAAC8;}
	.st52{fill:#737079;}
	.st53{fill:#96AAB9;}
	.st54{fill:#9BD2F0;}
	.st55{fill:#78D2F0;}
	.st56{fill:#C8E66E;}
	.st57{fill:#FADCBE;}
	.st58{fill:#8C3C14;}
	.st59{fill:#46783C;}
	.st60{fill:#784687;}
	.st61{fill:#96BEDC;}
	.st62{fill:#FFAA5A;}
	.st63{fill:#50C3EB;}
	.st64{fill:#D7E6E6;}
	.st65{fill:#FF6E50;}
	.st66{fill:#FF9682;}
</style>
<g>
	<g>
		<g>
			<path class="st38" d="M448,368H64c-17.673,0-32,14.327-32,32v0c0,26.51,21.49,48,48,48h352c26.51,0,48-21.49,48-48v0
				C480,382.327,465.673,368,448,368z"/>
		</g>
		<g>
			<path class="st37" d="M368,368L368,368c0,17.673-14.327,32-32,32H32v0c0,26.51,21.49,48,48,48h352c26.51,0,48-21.49,48-48v0
				c0-17.673-14.327-32-32-32H368z"/>
		</g>
	</g>
	<g>
		<path class="st13" d="M64,352v16h16l17.689,8.845C107.1,381.55,117.478,384,128,384s20.9-2.45,30.311-7.155l3.378-1.689
			C171.1,370.45,181.478,368,192,368s20.9,2.45,30.311,7.155l3.378,1.689C235.1,381.55,245.478,384,256,384s20.9-2.45,30.311-7.155
			l3.378-1.689C299.1,370.45,309.478,368,320,368s20.9,2.45,30.311,7.155l3.378,1.689C363.1,381.55,373.478,384,384,384
			s20.9-2.45,30.311-7.155L432,368h16v-16H64z"/>
	</g>
	<g>
		<g>
			<g>
				<path class="st11" d="M448,320H64c-8.837,0-16-7.163-16-16v-16c0-8.837,7.163-16,16-16h384c8.837,0,16,7.163,16,16v16
					C464,312.837,456.837,320,448,320z"/>
			</g>
			<g>
				<path class="st42" d="M448,272H240c8.836,0,16,7.164,16,16v16c0,8.836-7.164,16-16,16h208c8.836,0,16-7.164,16-16v-16
					C464,279.164,456.836,272,448,272z"/>
			</g>
		</g>
		<g>
			<path class="st3" d="M32,256L32,256c0,8.837,7.163,16,16,16h217.373c4.243,0,8.313,1.686,11.314,4.686l36.686,36.686
				c12.497,12.497,32.758,12.497,45.255,0l36.686-36.686c3.001-3.001,7.07-4.686,11.314-4.686H464c8.837,0,16-7.163,16-16v0
				c0-8.837-7.163-16-16-16H48C39.163,240,32,247.163,32,256z"/>
		</g>
		<g>
			<path class="st4" d="M256,240H48c-8.837,0-16,7.163-16,16v0c0,8.837,7.163,16,16,16h208c8.837,0,16-7.163,16-16v0
				C272,247.163,264.837,240,256,240z"/>
		</g>
		<g>
			<path class="st3" d="M480,335.921L480,335.921c0,8.837-7.163,16-16,16H246.627c-4.243,0-8.313,1.686-11.314,4.686l-36.686,36.686
				c-12.497,12.497-32.758,12.497-45.255,0l-36.686-36.686c-3.001-3.001-7.07-4.686-11.314-4.686H48c-8.837,0-16-7.163-16-16v0
				c0-8.837,7.163-16,16-16h416C472.837,319.922,480,327.085,480,335.921z"/>
		</g>
		<g>
			<path class="st4" d="M272,335.921c0-8.837-7.163-16-16-16H48c-8.837,0-16,7.164-16,16l0,0c0,8.837,7.163,16,16,16h57.372
				c4.244,0,8.314,1.686,11.314,4.687l36.686,36.686c12.497,12.497,32.758,12.497,45.255,0l36.686-36.686
				c3.001-3.001,7.071-4.687,11.314-4.687H256C264.837,351.921,272,344.758,272,335.921L272,335.921z"/>
		</g>
		<g>
			<path class="st17" d="M432,240H80c-8.837,0-16-7.163-16-16v0c0-8.837,7.163-16,16-16h352c8.837,0,16,7.163,16,16v0
				C448,232.837,440.837,240,432,240z"/>
		</g>
		<g>
			<path class="st43" d="M432,208H240c8.836,0,16,7.164,16,16l0,0c0,8.836-7.164,16-16,16h192c8.836,0,16-7.164,16-16l0,0
				C448,215.164,440.836,208,432,208z"/>
		</g>
	</g>
	<g>
		<g>
			<path class="st38" d="M448,208H64c-17.673,0-32-14.327-32-32v0c0-61.856,50.144-112,112-112h224c61.856,0,112,50.144,112,112v0
				C480,193.673,465.673,208,448,208z"/>
		</g>
		<g>
			<path class="st37" d="M368,160L368,160c0,8.837-7.163,16-16,16H32v0c0,17.673,14.327,32,32,32h384c17.673,0,32-14.327,32-32v0
				c0-61.856-50.144-112-112-112h-96h0C325.019,64,368,106.981,368,160z"/>
		</g>
	</g>
	<g>
		<circle class="st44" cx="256" cy="88" r="8"/>
	</g>
	<g>
		<circle class="st44" cx="304" cy="128" r="8"/>
	</g>
	<g>
		<circle class="st44" cx="160" cy="88" r="8"/>
	</g>
	<g>
		<circle class="st44" cx="208" cy="128" r="8"/>
	</g>
	<g>
		<circle class="st38" cx="352" cy="88" r="8"/>
	</g>
</g>
</svg>
