<?xml version="1.0" encoding="utf-8"?>
<!-- Generator: Adobe Illustrator 24.0.0, SVG Export Plug-In . SVG Version: 6.00 Build 0)  -->
<svg version="1.1" id="Layer_1" xmlns="http://www.w3.org/2000/svg" xmlns:xlink="http://www.w3.org/1999/xlink" x="0px" y="0px"
	 viewBox="0 0 256 256" style="enable-background:new 0 0 256 256;" xml:space="preserve">
<style type="text/css">
	.st0{fill:#E63950;}
	.st1{fill:#D10028;}
	.st2{fill:#B7022D;}
	.st3{fill:#FCC4AE;}
	.st4{fill:#E8566F;}
	.st5{fill:#808285;}
	.st6{fill:#939598;}
	.st7{fill:#58595B;}
	.st8{fill:#414042;}
	.st9{fill:#8C3F0A;}
	.st10{fill:#7C3108;}
	.st11{fill:#6D2E03;}
	.st12{fill:#995222;}
	.st13{fill:#F79219;}
	.st14{fill:#EF7816;}
	.st15{fill:#FFC91D;}
	.st16{fill:#FFA91A;}
	.st17{fill:#648940;}
	.st18{fill:#5A7A39;}
	.st19{fill:#F1F2F2;}
	.st20{fill:#E6E7E8;}
	.st21{fill:#D1D3D4;}
	.st22{fill:#FFFFFF;}
	.st23{fill:#76A34F;}
	.st24{fill:#F2AD97;}
	.st25{fill:#E59076;}
	.st26{fill:#91B56B;}
	.st27{fill:#F7CB15;}
	.st28{fill:#377DE2;}
	.st29{fill:#2266D3;}
	.st30{fill:#478CF7;}
	.st31{fill:#5E9CF7;}
	.st32{fill:#FFD2C0;}
	.st33{fill:#27C1E6;}
	.st34{fill:#009ADD;}
	.st35{fill:#893ADD;}
	.st36{fill:#A54AF4;}
	.st37{fill:#B171F4;}
	.st38{fill:#827F7E;}
</style>
<g>
	<g>
		<path class="st9" d="M206.756,176.637H49.244c-5.523,0-10-4.477-10-10v-13.89h177.512v13.89
			C216.756,172.16,212.279,176.637,206.756,176.637z"/>
	</g>
	<g>
		<path class="st10" d="M206.756,152.748v3.89c0,5.523-4.477,10-10,10H39.244c0,5.523,4.477,10,10,10h157.512
			c5.523,0,10-4.477,10-10v-13.89H206.756z"/>
	</g>
	<g>
		<path class="st0" d="M210.792,140.819H45.208c-3.294,0-5.964-2.67-5.964-5.964l0,0c0-3.294,2.67-5.964,5.964-5.964h165.583
			c3.294,0,5.964,2.67,5.964,5.964l0,0C216.756,138.149,214.086,140.819,210.792,140.819z"/>
	</g>
	<g>
		<path class="st1" d="M211.689,128.958c0.044,0.293,0.067,0.592,0.067,0.897c0,3.294-2.67,5.964-5.964,5.964H40.208
			c-0.305,0-0.604-0.023-0.897-0.067c0.433,2.868,2.908,5.067,5.897,5.067h165.583c3.294,0,5.964-2.67,5.964-5.964
			C216.756,131.866,214.557,129.391,211.689,128.958z"/>
	</g>
	<g>
		<path class="st23" d="M210.792,128.891H45.208c-3.294,0-5.964-2.67-5.964-5.964v0c0-3.294,2.67-5.964,5.964-5.964h165.583
			c3.294,0,5.964,2.67,5.964,5.964v0C216.756,126.221,214.086,128.891,210.792,128.891z"/>
	</g>
	<g>
		<path class="st17" d="M211.689,117.03c0.044,0.293,0.067,0.592,0.067,0.897v0c0,3.294-2.67,5.964-5.964,5.964H40.208
			c-0.305,0-0.604-0.023-0.897-0.067c0.433,2.868,2.908,5.067,5.897,5.067h165.583c3.294,0,5.964-2.67,5.964-5.964v0
			C216.756,119.938,214.557,117.462,211.689,117.03z"/>
	</g>
	<g>
		<g>
			<path class="st3" d="M186.756,219.985H69.462c-16.569,0-30-13.431-30-30v-7.419c0-3.314,2.686-6,6-6h165.294c3.314,0,6,2.686,6,6
				v7.419C216.756,206.553,203.324,219.985,186.756,219.985z"/>
		</g>
		<g>
			<path class="st24" d="M210.756,176.566h-4v3.419c0,16.569-13.431,30-30,30H59.462c-5.722,0-11.069-1.602-15.618-4.382
				c5.269,8.625,14.771,14.382,25.618,14.382h117.294c16.569,0,30-13.431,30-30v-7.419
				C216.756,179.252,214.07,176.566,210.756,176.566z"/>
		</g>
	</g>
	<g>
		<g>
			<path class="st3" d="M115.076,35.348h26.065c41.761,0,75.615,33.854,75.615,75.615v0c0,3.314-2.686,6-6,6H45.462
				c-3.314,0-6-2.686-6-6v0C39.462,69.202,73.316,35.348,115.076,35.348z"/>
		</g>
		<g>
			<path class="st32" d="M46.88,98.95c-0.13,0-0.27-0.01-0.4-0.04c-1.08-0.22-1.78-1.28-1.56-2.36c0.22-1.06,1.29-1.78,2.36-1.56
				c1.08,0.22,1.78,1.28,1.56,2.36C48.65,98.28,47.82,98.95,46.88,98.95z M48.94,91.22c-0.21,0-0.42-0.03-0.63-0.1
				c-0.5-0.17-0.92-0.52-1.16-1c-0.24-0.48-0.28-1.02-0.11-1.53c2.33-7.06,5.74-13.7,10.15-19.74c4.35-5.97,9.57-11.21,15.52-15.59
				c6.01-4.43,12.64-7.87,19.69-10.23c7.29-2.44,14.92-3.68,22.68-3.68h13.07c1.1,0,1.99,0.9,1.99,2c0,1.1-0.89,2-1.99,2h-13.07
				c-29.26,0-55.08,18.68-64.24,46.5C50.57,90.67,49.8,91.22,48.94,91.22z"/>
		</g>
		<g>
			<path class="st24" d="M189.376,52.728c10.855,13.09,17.38,29.9,17.38,48.234v0c0,3.314-2.686,6-6,6H39.566
				c-0.069,1.325-0.104,2.658-0.104,4v0c0,3.314,2.686,6,6,6h165.294c3.314,0,6-2.686,6-6v0
				C216.756,87.536,206.102,66.598,189.376,52.728z"/>
		</g>
		<g>
			<path class="st25" d="M192.051,55.053c12.241,13.436,19.705,31.301,19.705,50.909v0c0,3.314-2.686,6-6,6H40.462
				c-0.316,0-0.626-0.025-0.928-0.072c0.446,2.873,2.93,5.072,5.928,5.072h165.294c3.314,0,6-2.686,6-6v0
				C216.756,88.81,207.23,68.883,192.051,55.053z"/>
		</g>
		<g>
			<g>
				<g>
					<path class="st32" d="M95.11,79.755c-2.761,0-5-2.239-5-5v-2.616c0-2.761,2.239-5,5-5s5,2.239,5,5v2.616
						C100.11,77.516,97.871,79.755,95.11,79.755z"/>
				</g>
			</g>
			<g>
				<g>
					<g>
						<path class="st32" d="M81.808,98.59c-2.761,0-5-2.239-5-5v-2.616c0-2.761,2.239-5,5-5s5,2.239,5,5v2.616
							C86.808,96.351,84.569,98.59,81.808,98.59z"/>
					</g>
				</g>
				<g>
					<g>
						<path class="st32" d="M112.675,98.59c-2.761,0-5-2.239-5-5v-2.616c0-2.761,2.239-5,5-5s5,2.239,5,5v2.616
							C117.675,96.351,115.436,98.59,112.675,98.59z"/>
					</g>
				</g>
				<g>
					<g>
						<path class="st32" d="M143.542,98.59c-2.761,0-5-2.239-5-5v-2.616c0-2.761,2.239-5,5-5s5,2.239,5,5v2.616
							C148.542,96.351,146.304,98.59,143.542,98.59z"/>
					</g>
				</g>
				<g>
					<g>
						<path class="st32" d="M112.675,63.198c-2.761,0-5-2.239-5-5v-2.616c0-2.761,2.239-5,5-5s5,2.239,5,5v2.616
							C117.675,60.959,115.436,63.198,112.675,63.198z"/>
					</g>
				</g>
				<g>
					<g>
						<path class="st32" d="M143.542,63.198c-2.761,0-5-2.239-5-5v-2.616c0-2.761,2.239-5,5-5s5,2.239,5,5v2.616
							C148.542,60.959,146.304,63.198,143.542,63.198z"/>
					</g>
				</g>
				<g>
					<g>
						<path class="st32" d="M174.41,98.59c-2.761,0-5-2.239-5-5v-2.616c0-2.761,2.239-5,5-5s5,2.239,5,5v2.616
							C179.41,96.351,177.171,98.59,174.41,98.59z"/>
					</g>
				</g>
			</g>
			<g>
				<g>
					<path class="st32" d="M128.109,79.755c-2.761,0-5-2.239-5-5v-2.616c0-2.761,2.239-5,5-5s5,2.239,5,5v2.616
						C133.109,77.516,130.87,79.755,128.109,79.755z"/>
				</g>
			</g>
			<g>
				<g>
					<path class="st32" d="M161.108,79.755c-2.761,0-5-2.239-5-5v-2.616c0-2.761,2.239-5,5-5s5,2.239,5,5v2.616
						C166.108,77.516,163.869,79.755,161.108,79.755z"/>
				</g>
			</g>
		</g>
	</g>
	<g>
		<path class="st16" d="M39.244,150.819l0,17.95c0,1.782,2.154,2.674,3.414,1.414l15.678-15.679
			c1.125-1.125,2.651-1.757,4.243-1.757h42.085c1.591,0,3.117,0.632,4.243,1.757l17.678,17.679c0.781,0.781,2.047,0.781,2.828,0
			l17.678-17.679c1.125-1.125,2.651-1.757,4.243-1.757h42.085c1.591,0,3.117,0.632,4.243,1.757l15.678,15.679
			c1.26,1.26,3.414,0.368,3.414-1.414l0-17.95c0-5.523-4.477-10-10-10H49.244C43.721,140.819,39.244,145.297,39.244,150.819z"/>
	</g>
	<g>
		<g>
			<path class="st13" d="M192.663,149.505c-1.125-1.125-2.651-1.757-4.243-1.757h-42.085c-1.591,0-3.117,0.632-4.243,1.757
				l-17.678,17.678c-0.781,0.781-2.047,0.781-2.828,0l5,5c0.781,0.781,2.047,0.781,2.828,0l17.678-17.678
				c1.125-1.125,2.651-1.757,4.243-1.757h42.085c1.591,0,3.117,0.632,4.242,1.757L192.663,149.505z"/>
		</g>
		<g>
			<path class="st13" d="M103.907,149.505c-1.125-1.125-2.651-1.757-4.243-1.757H57.58c-1.591,0-3.117,0.632-4.243,1.757
				l-14.093,14.093v5.172c0,1.782,2.154,2.674,3.414,1.414l15.679-15.679c1.125-1.125,2.651-1.757,4.243-1.757h42.085
				c1.591,0,3.117,0.632,4.242,1.757L103.907,149.505z"/>
		</g>
		<g>
			<path class="st13" d="M210.872,141.703c0.568,1.255,0.884,2.649,0.884,4.116l0,17.95c0,1.782-2.154,2.674-3.414,1.415l4.999,5
				c1.26,1.26,3.414,0.368,3.414-1.414l0-17.95C216.756,146.764,214.342,143.272,210.872,141.703z"/>
		</g>
	</g>
</g>
</svg>
