<?xml version="1.0" encoding="utf-8"?>
<!-- Generator: Adobe Illustrator 24.0.0, SVG Export Plug-In . SVG Version: 6.00 Build 0)  -->
<svg version="1.1" id="Layer_1" xmlns="http://www.w3.org/2000/svg" xmlns:xlink="http://www.w3.org/1999/xlink" x="0px" y="0px"
	 viewBox="0 0 256 256" style="enable-background:new 0 0 256 256;" xml:space="preserve">
<style type="text/css">
	.st0{fill:#E63950;}
	.st1{fill:#D10028;}
	.st2{fill:#B7022D;}
	.st3{fill:#FCC4AE;}
	.st4{fill:#E8566F;}
	.st5{fill:#808285;}
	.st6{fill:#939598;}
	.st7{fill:#58595B;}
	.st8{fill:#414042;}
	.st9{fill:#8C3F0A;}
	.st10{fill:#7C3108;}
	.st11{fill:#6D2E03;}
	.st12{fill:#995222;}
	.st13{fill:#F79219;}
	.st14{fill:#EF7816;}
	.st15{fill:#FFC91D;}
	.st16{fill:#FFA91A;}
	.st17{fill:#648940;}
	.st18{fill:#5A7A39;}
	.st19{fill:#F1F2F2;}
	.st20{fill:#E6E7E8;}
	.st21{fill:#D1D3D4;}
	.st22{fill:#FFFFFF;}
	.st23{fill:#76A34F;}
	.st24{fill:#F2AD97;}
	.st25{fill:#E59076;}
	.st26{fill:#91B56B;}
	.st27{fill:#F7CB15;}
	.st28{fill:#377DE2;}
	.st29{fill:#2266D3;}
	.st30{fill:#478CF7;}
	.st31{fill:#5E9CF7;}
	.st32{fill:#FFD2C0;}
	.st33{fill:#27C1E6;}
	.st34{fill:#009ADD;}
	.st35{fill:#893ADD;}
	.st36{fill:#A54AF4;}
	.st37{fill:#B171F4;}
	.st38{fill:#827F7E;}
</style>
<g>
	<g>
		<g>
			<path class="st1" d="M128,67.748c-1.104,0-2-0.896-2-2c0-8.192,6.665-14.857,14.857-14.857c1.104,0,2,0.896,2,2s-0.896,2-2,2
				c-5.986,0-10.857,4.871-10.857,10.857C130,66.853,129.104,67.748,128,67.748z"/>
		</g>
		<g>
			<g>
				<circle class="st0" cx="128" cy="77.602" r="14.002"/>
			</g>
			<g>
				<path class="st1" d="M132.477,64.331c0.474,1.406,0.731,2.911,0.731,4.477c0,7.733-6.269,14.002-14.002,14.002
					c-1.566,0-3.071-0.257-4.477-0.731c1.867,5.538,7.104,9.526,13.271,9.526c7.733,0,14.002-6.269,14.002-14.002
					C142.002,71.434,138.015,66.198,132.477,64.331z"/>
			</g>
			<g>
				<path class="st2" d="M135.456,65.748c1.361,2.159,2.148,4.716,2.148,7.456c0,7.733-6.269,14.002-14.002,14.002
					c-2.741,0-5.297-0.788-7.456-2.149c2.479,3.933,6.861,6.546,11.854,6.546c7.733,0,14.002-6.269,14.002-14.002
					C142.002,72.609,139.389,68.227,135.456,65.748z"/>
			</g>
		</g>
	</g>
	<g>
		<g>
			<path class="st19" d="M217.579,120.414H38.226V99.862c0-6.76,5.48-12.239,12.239-12.239H205.34c6.76,0,12.239,5.48,12.239,12.239
				V120.414z"/>
		</g>
		<g>
			<path class="st19" d="M217.579,115.876H38.226V95.323c0-6.76,5.48-12.239,12.239-12.239H205.34c6.76,0,12.239,5.48,12.239,12.239
				V115.876z"/>
		</g>
		<g>
			<path class="st20" d="M206.202,83.114c0.02,0.285,0.031,0.572,0.031,0.862v20.553H38.226v11.347h179.353V95.323
				C217.579,88.853,212.559,83.556,206.202,83.114z"/>
		</g>
		<g>
			<path class="st20" d="M233.155,203.109H22.845c-4.769,0-8.634-3.866-8.634-8.634v0c0-4.769,3.866-8.634,8.634-8.634h210.31
				c4.769,0,8.634,3.866,8.634,8.634v0C241.789,199.243,237.924,203.109,233.155,203.109z"/>
		</g>
		<g>
			<path class="st21" d="M233.155,185.84h-1.473c-0.655,4.12-4.223,7.269-8.527,7.269H14.318c-0.071,0.445-0.108,0.901-0.108,1.366
				v0c0,4.769,3.866,8.634,8.634,8.634h210.31c4.769,0,8.634-3.866,8.634-8.634v0C241.789,189.706,237.924,185.84,233.155,185.84z"
				/>
		</g>
		<g>
			<rect x="38.421" y="120.414" class="st9" width="179.159" height="65.426"/>
		</g>
		<g>
			<polygon class="st10" points="207.579,120.414 207.579,175.84 38.421,175.84 38.421,185.84 217.579,185.84 217.579,120.414 			
				"/>
		</g>
		<g>
			<polygon class="st11" points="212.579,120.414 212.579,180.84 38.421,180.84 38.421,185.84 217.579,185.84 217.579,120.414 			
				"/>
		</g>
		<g>
			<g>
				<rect x="66.38" y="120.414" class="st11" width="9.565" height="65.426"/>
			</g>
			<g>
				<rect x="104.272" y="120.414" class="st11" width="9.565" height="65.426"/>
			</g>
			<g>
				<rect x="142.163" y="120.414" class="st11" width="9.565" height="65.426"/>
			</g>
			<g>
				<rect x="180.055" y="120.414" class="st11" width="9.565" height="65.426"/>
			</g>
		</g>
		<g>
			<path class="st20" d="M114.918,104.822c-1.752,0-3.424,0.321-4.982,0.882c-3.45-6.321-10.155-10.61-17.864-10.61
				c-3.083,0-5.994,0.706-8.612,1.933c-2.883-5.852-8.89-9.889-15.856-9.889c-9.767,0-17.684,7.918-17.684,17.684
				c0,0.123,0.016,0.242,0.018,0.364c-6.589,1.471-11.518,7.343-11.518,14.376c0,8.14,6.599,14.739,14.739,14.739
				c7.132,0,13.079-5.066,14.444-11.794c0,0,0.001,0,0.001,0c1.787,0,3.51-0.271,5.137-0.764
				c2.656,8.143,10.301,14.032,19.331,14.032c5.096,0,9.743-1.887,13.312-4.984c2.571,2.185,5.896,3.51,9.535,3.51
				c8.14,0,14.739-6.599,14.739-14.739S123.058,104.822,114.918,104.822z"/>
		</g>
		<g>
			<path class="st22" d="M103.97,110.97h-0.01c-0.73,0-1.4-0.4-1.76-1.05c-2.02-3.71-5.91-6.02-10.13-6.02
				c-1.67,0-3.31,0.37-4.87,1.1l-6.05,2.84c-0.97,0.45-2.17,0.02-2.64-0.93l-2.95-5.99c-0.51-1.03-1.18-1.93-2.01-2.68
				c-0.4-0.36-0.63-0.86-0.65-1.39c-0.02-0.53,0.16-1.04,0.52-1.44c0.72-0.78,2.04-0.84,2.82-0.13c1.2,1.09,2.18,2.4,2.91,3.87
				l2.08,4.23l4.27-2c2.09-0.98,4.3-1.48,6.57-1.48c5.69,0,10.92,3.11,13.65,8.11c0.25,0.47,0.31,1.01,0.16,1.52
				c-0.15,0.51-0.49,0.94-0.96,1.19C104.63,110.88,104.3,110.97,103.97,110.97z M67.6,95.95c-1.1,0-2-0.9-2-2c0-1.11,0.9-2,2-2
				c0.01,0,0.01,0,0.02,0c1.09,0.01,1.98,0.9,1.98,2C69.6,95.05,68.71,95.95,67.6,95.95z"/>
		</g>
		<g>
			<path class="st21" d="M114.918,122.954c-3.639,0-6.964-1.325-9.535-3.51c-3.569,3.097-8.215,4.984-13.312,4.984
				c-9.03,0-16.675-5.889-19.331-14.032c-1.626,0.493-3.349,0.763-5.136,0.763h-0.001c-1.365,6.729-7.312,11.794-14.444,11.794
				c-6.129,0-11.384-3.74-13.607-9.063c-0.729,1.745-1.133,3.66-1.133,5.671c0,8.14,6.599,14.739,14.739,14.739
				c7.132,0,13.079-5.065,14.444-11.794h0.001c1.787,0,3.51-0.27,5.136-0.763c2.656,8.143,10.301,14.032,19.331,14.032
				c5.096,0,9.743-1.887,13.312-4.984c2.571,2.185,5.896,3.51,9.535,3.51c8.14,0,14.739-6.599,14.739-14.739
				c0-2.011-0.403-3.927-1.132-5.674C126.303,119.212,121.048,122.954,114.918,122.954z"/>
		</g>
		<g>
			<path class="st20" d="M141.082,104.822c1.752,0,3.424,0.321,4.982,0.882c3.45-6.321,10.155-10.61,17.864-10.61
				c3.083,0,5.994,0.706,8.612,1.933c2.883-5.852,8.89-9.889,15.856-9.889c9.767,0,17.684,7.918,17.684,17.684
				c0,0.123-0.016,0.242-0.018,0.364c6.589,1.471,11.518,7.343,11.518,14.376c0,8.14-6.599,14.739-14.739,14.739
				c-7.132,0-13.079-5.066-14.444-11.794c0,0-0.001,0-0.001,0c-1.787,0-3.51-0.271-5.137-0.764
				c-2.656,8.143-10.301,14.032-19.331,14.032c-5.096,0-9.743-1.887-13.312-4.984c-2.571,2.185-5.896,3.51-9.535,3.51
				c-8.14,0-14.739-6.599-14.739-14.739S132.942,104.822,141.082,104.822z"/>
		</g>
		<g>
			<path class="st21" d="M202.84,122.954c-7.132,0-13.079-5.065-14.444-11.794h-0.001c-1.787,0-3.51-0.27-5.137-0.763
				c-2.656,8.143-10.301,14.032-19.331,14.032c-5.096,0-9.743-1.887-13.312-4.984c-2.571,2.185-5.896,3.51-9.535,3.51
				c-6.13,0-11.385-3.742-13.608-9.066c-0.729,1.746-1.132,3.663-1.132,5.674c0,8.14,6.599,14.739,14.739,14.739
				c3.639,0,6.964-1.325,9.535-3.51c3.569,3.097,8.215,4.984,13.312,4.984c9.03,0,16.675-5.889,19.331-14.032
				c1.626,0.493,3.349,0.763,5.137,0.763h0.001c1.365,6.729,7.312,11.794,14.444,11.794c8.14,0,14.739-6.599,14.739-14.739
				c0-2.011-0.404-3.926-1.133-5.671C214.224,119.213,208.969,122.954,202.84,122.954z"/>
		</g>
	</g>
	<g>
		<path class="st21" d="M70.936,162.307L70.936,162.307c-3.639,0-6.589-2.95-6.589-6.589v-34.592h13.178v34.592
			C77.525,159.357,74.575,162.307,70.936,162.307z"/>
	</g>
	<g>
		<path class="st21" d="M199.906,170.062L199.906,170.062c-3.639,0-6.589-2.95-6.589-6.589v-34.592h13.178v34.592
			C206.495,167.112,203.545,170.062,199.906,170.062z"/>
	</g>
	<g>
		<path class="st21" d="M148.752,157.503L148.752,157.503c-2.67,0-4.835-2.165-4.835-4.835v-25.383h9.67v25.383
			C153.587,155.338,151.423,157.503,148.752,157.503z"/>
	</g>
	<g>
		<path class="st21" d="M92.303,160.012L92.303,160.012c-2.67,0-4.835-2.165-4.835-4.835v-25.383h9.67v25.383
			C97.138,157.847,94.973,160.012,92.303,160.012z"/>
	</g>
</g>
</svg>
