<?xml version="1.0" encoding="utf-8"?>
<!-- Generator: Adobe Illustrator 24.0.0, SVG Export Plug-In . SVG Version: 6.00 Build 0)  -->
<svg version="1.1" id="Layer_1" xmlns="http://www.w3.org/2000/svg" xmlns:xlink="http://www.w3.org/1999/xlink" x="0px" y="0px"
	 viewBox="0 0 256 256" style="enable-background:new 0 0 256 256;" xml:space="preserve">
<style type="text/css">
	.st0{fill:#E63950;}
	.st1{fill:#D10028;}
	.st2{fill:#B7022D;}
	.st3{fill:#FCC4AE;}
	.st4{fill:#E8566F;}
	.st5{fill:#808285;}
	.st6{fill:#939598;}
	.st7{fill:#58595B;}
	.st8{fill:#414042;}
	.st9{fill:#8C3F0A;}
	.st10{fill:#7C3108;}
	.st11{fill:#6D2E03;}
	.st12{fill:#995222;}
	.st13{fill:#F79219;}
	.st14{fill:#EF7816;}
	.st15{fill:#FFC91D;}
	.st16{fill:#FFA91A;}
	.st17{fill:#648940;}
	.st18{fill:#5A7A39;}
	.st19{fill:#F1F2F2;}
	.st20{fill:#E6E7E8;}
	.st21{fill:#D1D3D4;}
	.st22{fill:#FFFFFF;}
	.st23{fill:#76A34F;}
	.st24{fill:#F2AD97;}
	.st25{fill:#E59076;}
	.st26{fill:#91B56B;}
	.st27{fill:#F7CB15;}
	.st28{fill:#377DE2;}
	.st29{fill:#2266D3;}
	.st30{fill:#478CF7;}
	.st31{fill:#5E9CF7;}
	.st32{fill:#FFD2C0;}
	.st33{fill:#27C1E6;}
	.st34{fill:#009ADD;}
	.st35{fill:#893ADD;}
	.st36{fill:#A54AF4;}
	.st37{fill:#B171F4;}
	.st38{fill:#827F7E;}
</style>
<g>
	<g>
		<g>
			<path class="st22" d="M186.656,65.539c0-9.227-7.631-16.417-16.857-16.293c-0.091,0.001-0.184,0.002-0.277,0.002
				c-8.567,0-8.567-5.202-17.135-5.202c-8.562,0-8.562,5.202-17.123,5.202c-8.554,0-8.554-5.202-17.108-5.202
				c-8.559,0-8.559,5.202-17.117,5.202c-0.086,0-0.17-0.001-0.254-0.002c-9.227-0.113-16.859,7.066-16.859,16.294v9.419
				c0,8.424,6.365,15.258,14.709,16.416c0.722,0.1,1.517,0.156,2.404,0.156c8.559,0,8.559-5.202,17.117-5.202
				c8.554,0,8.554,5.202,17.108,5.202c8.562,0,8.562-5.202,17.123-5.202c8.567,0,8.567,5.202,17.135,5.202
				c0.892,0,1.691-0.056,2.416-0.157c8.348-1.162,14.719-7.995,14.719-16.423V65.539z"/>
		</g>
	</g>
	<g>
		<path class="st20" d="M173.86,62.219c-9.609,0-9.609-5.834-19.217-5.834c-9.602,0-9.602,5.834-19.204,5.834
			c-9.594,0-9.594-5.834-19.187-5.834c-9.599,0-9.599,5.834-19.198,5.834c-0.096,0-0.191-0.001-0.285-0.002
			c-9.408-0.116-17.315,6.538-18.678,15.524c1.246,8.135,7.849,14.461,16.267,15.628c0.81,0.112,1.701,0.175,2.696,0.175
			c9.599,0,9.599-5.834,19.198-5.834c9.594,0,9.594,5.834,19.187,5.834c9.602,0,9.602-5.834,19.204-5.834
			c9.609,0,9.609,5.834,19.217,5.834c1,0,1.896-0.063,2.71-0.176c8.421-1.172,15.029-7.495,16.277-15.632
			c-1.364-8.985-9.269-15.645-18.676-15.519C174.069,62.218,173.965,62.219,173.86,62.219z"/>
	</g>
	<g>
		<g>
			<g>
				<path class="st9" d="M193.169,77.493L193.169,77.493c0-2.919-2.366-5.284-5.284-5.284H83.053c-2.918,0-5.284,2.366-5.284,5.284
					v0c-0.311,2.456-0.566,4.915-0.786,7.376c-0.14,1.563-1.438,2.764-3.007,2.764H54.457c-11.45,0-22.04,7.588-25.14,19.377
					c-1.525,5.799-0.806,11.963,1.633,17.441l11.293,25.365c4.158,9.337,13.474,15.37,23.736,15.37h16.179
					c1.339,0,2.507,0.884,2.886,2.169c1.567,5.315,3.328,10.582,5.303,15.782l1.718,4.524c0.891,2.346,3.14,3.898,5.649,3.898
					h75.508c2.51,0,4.758-1.551,5.649-3.898l1.718-4.524C193.37,149.483,197.689,113.206,193.169,77.493z M65.979,153.1
					c-5.494,0-10.477-3.218-12.695-8.2l-11.365-25.528c-1.308-2.937-1.723-6.247-0.896-9.354
					c1.668-6.267,7.317-10.298,13.435-10.298h15.561c3.323,0,6.023,2.683,6.033,6.006c0.042,14.695,1.558,29.342,4.521,43.724
					c0.388,1.883-1.027,3.65-2.949,3.65H65.979z"/>
			</g>
			<g>
				<path class="st12" d="M96.03,174.04c-0.87,0-1.64-0.56-1.9-1.39c-7-21.86-10.54-44.59-10.54-67.55c0-6.15,0.26-12.37,0.77-18.5
					v-0.02c0.04-0.44,0.08-0.87,0.12-1.31c0.1-1.1,1.07-1.91,2.17-1.81c0.53,0.04,1.01,0.3,1.36,0.71c0.34,0.41,0.5,0.92,0.45,1.46
					l-0.11,1.3c-0.51,6.01-0.76,12.12-0.76,18.17c0,22.54,3.48,44.86,10.35,66.33c0.33,1.05-0.25,2.18-1.3,2.51
					C96.44,174.01,96.24,174.04,96.03,174.04z M87.33,79.49c-0.08,0-0.17,0-0.25-0.01c-0.53-0.07-1-0.34-1.33-0.76
					c-0.33-0.43-0.47-0.95-0.4-1.48c0.13-1.08,1.14-1.87,2.23-1.73c1.1,0.14,1.87,1.14,1.73,2.24
					C89.19,78.74,88.34,79.49,87.33,79.49z"/>
			</g>
			<g>
				<g>
					<path class="st10" d="M193.169,77.493L193.169,77.493c0-2.919-2.366-5.284-5.284-5.284h-4.171
						c3.579,34.184-0.906,68.755-13.123,100.928l-1.718,4.524c-0.891,2.346-3.14,3.898-5.649,3.898H89.756
						c0.195,0.527,0.392,1.053,0.592,1.579l1.718,4.524c0.891,2.346,3.14,3.898,5.649,3.898h75.508c2.51,0,4.758-1.551,5.649-3.898
						l1.718-4.524C193.37,149.483,197.689,113.206,193.169,77.493z"/>
				</g>
			</g>
			<g>
				<g>
					<path class="st11" d="M193.169,77.493L193.169,77.493c0-2.826-2.218-5.133-5.007-5.277c0.005,0.092,0.007,0.184,0.007,0.277v0
						c4.521,35.713,0.201,71.99-12.578,105.644l-1.718,4.524c-0.891,2.346-3.14,3.898-5.649,3.898H92.714
						c-0.376,0-0.746-0.035-1.107-0.102l0.457,1.204c0.891,2.346,3.14,3.898,5.649,3.898h75.508c2.51,0,4.758-1.551,5.649-3.898
						l1.718-4.524C193.37,149.483,197.689,113.206,193.169,77.493z"/>
				</g>
			</g>
			<g>
				<g>
					
						<ellipse transform="matrix(0.7071 -0.7071 0.7071 0.7071 -46.0694 131.3085)" class="st16" cx="135.469" cy="121.265" rx="19.554" ry="14.35"/>
				</g>
				<g>
					<path class="st13" d="M149.296,107.438c-0.863-0.863-1.847-1.553-2.923-2.077c2.878,5.913,0.704,14.59-5.757,21.051
						c-6.461,6.461-15.138,8.635-21.051,5.757c0.524,1.076,1.214,2.06,2.077,2.923c5.604,5.604,16.338,3.957,23.974-3.68
						C153.252,123.776,154.9,113.042,149.296,107.438z"/>
				</g>
				<g>
					<path class="st15" d="M149.296,107.438c-1.279-1.279-2.835-2.162-4.551-2.701c-5.777,2.641-14.685,8.227-12.953,17.073
						c1.126,5.755-7.407,9.913-11.517,11.561c0.399,0.61,0.84,1.194,1.367,1.72c1.022,1.022,2.217,1.796,3.53,2.343
						c5.762-2.772,13.847-8.251,12.191-16.716c-1.282-6.549,9.969-11.042,12.943-12.106
						C149.999,108.202,149.665,107.807,149.296,107.438z"/>
				</g>
			</g>
		</g>
		<g>
			<g>
				<path class="st9" d="M151.891,211.954h-32.908c-17.157,0-34.114-3.686-49.723-10.807l-24.096-10.994
					c-2.954-1.348-1.993-5.77,1.254-5.77h178.037c3.247,0,4.208,4.423,1.254,5.77l-24.096,10.994
					C186.005,208.268,169.048,211.954,151.891,211.954z"/>
			</g>
		</g>
		<g>
			<path class="st10" d="M224.456,184.382H206.44l-14.825,6.764c-15.609,7.122-32.566,10.807-49.723,10.807h-32.908
				c-17.157,0-34.114-3.686-49.723-10.807l-14.184-6.471c-2.109,1.008-2.407,4.339,0.088,5.478l24.096,10.994
				c15.609,7.122,32.566,10.807,49.723,10.807h32.908c17.157,0,34.114-3.686,49.723-10.807l24.096-10.994
				C228.664,188.805,227.703,184.382,224.456,184.382z"/>
		</g>
	</g>
</g>
</svg>
