<?xml version="1.0" encoding="utf-8"?>
<!-- Generator: Adobe Illustrator 24.0.0, SVG Export Plug-In . SVG Version: 6.00 Build 0)  -->
<svg version="1.1" id="Layer_1" xmlns="http://www.w3.org/2000/svg" xmlns:xlink="http://www.w3.org/1999/xlink" x="0px" y="0px"
	 viewBox="0 0 512 512" style="enable-background:new 0 0 512 512;" xml:space="preserve">
<style type="text/css">
	.st0{fill:#D7E6F0;}
	.st1{fill:#A5C3DC;}
	.st2{fill:#F06423;}
	.st3{fill:#FAA019;}
	.st4{fill:#FFD205;}
	.st5{fill:#91C83C;}
	.st6{fill:#5FAA46;}
	.st7{fill:#555A6E;}
	.st8{fill:#463C4B;}
	.st9{fill:#FFBE28;}
	.st10{fill:#A55023;}
	.st11{fill:#D26E28;}
	.st12{fill:#F28A39;}
	.st13{fill:#4B8C41;}
	.st14{fill:#69A041;}
	.st15{fill:#91B945;}
	.st16{fill:#FFFFFF;}
	.st17{fill:#F04B37;}
	.st18{fill:#AFD763;}
	.st19{fill:#E1322D;}
	.st20{fill:#5AD7FF;}
	.st21{fill:#A5FFFF;}
	.st22{fill:#23AAE6;}
	.st23{fill:#F0915A;}
	.st24{fill:#FAB991;}
	.st25{fill:#D2643C;}
	.st26{fill:#6E788C;}
	.st27{fill:#9B5FAA;}
	.st28{fill:#643773;}
	.st29{fill:#F5826E;}
	.st30{fill:#C81E14;}
	.st31{fill:#FAA037;}
	.st32{fill:#F57828;}
	.st33{fill:#D65A0A;}
	.st34{fill:#FFF050;}
	.st35{fill:#FFD23C;}
	.st36{fill:#FFFF50;}
	.st37{fill:#F5871E;}
	.st38{fill:#FAA01E;}
	.st39{fill:#FF6955;}
	.st40{fill:#FF8773;}
	.st41{fill:#BEDC5A;}
	.st42{fill:#BE5000;}
	.st43{fill:#D7322D;}
	.st44{fill:#FAF0DC;}
	.st45{fill:#FFBE55;}
	.st46{fill:#DC6E1E;}
	.st47{fill:#804B8F;}
	.st48{fill:#4182C3;}
	.st49{fill:#64AFE1;}
	.st50{fill:#FABE19;}
	.st51{fill:#8CAAC8;}
	.st52{fill:#737079;}
	.st53{fill:#96AAB9;}
	.st54{fill:#9BD2F0;}
	.st55{fill:#78D2F0;}
	.st56{fill:#C8E66E;}
	.st57{fill:#FADCBE;}
	.st58{fill:#8C3C14;}
	.st59{fill:#46783C;}
	.st60{fill:#784687;}
	.st61{fill:#96BEDC;}
	.st62{fill:#FFAA5A;}
	.st63{fill:#50C3EB;}
	.st64{fill:#D7E6E6;}
	.st65{fill:#FF6E50;}
	.st66{fill:#FF9682;}
</style>
<g>
	<g>
		<g>
			<path class="st6" d="M32,351.986c-9.093,0-16.414-7.585-15.982-16.773c0.405-8.606,7.819-15.227,16.434-15.227h16.877
				c0.135-0.764,0.102-0.581,0.237-1.344l-16.285-5.927c-8.303-3.022-12.585-12.204-9.563-20.507h0
				c3.022-8.304,12.204-12.585,20.507-9.563l16.285,5.927c0.388-0.671,0.295-0.511,0.682-1.182l-13.276-11.14
				c-6.769-5.68-7.652-15.772-1.972-22.541v0c5.68-6.769,15.772-7.652,22.541-1.972l13.285,11.147
				c0.592-0.497,0.45-0.378,1.042-0.875l-8.671-15.018c-4.546-7.875-1.638-18.008,6.535-22.227
				c7.655-3.952,17.096-0.842,21.404,6.619l8.435,14.611c0.73-0.266,0.555-0.202,1.285-0.468l-3.008-17.06
				c-1.579-8.955,4.62-17.482,13.743-18.652c8.545-1.095,16.353,5.056,17.849,13.54l2.934,16.64
				c0.227-0.002,0.452-0.009,0.679-0.009h0v-15.548c0-8.615,6.621-16.028,15.227-16.434c9.188-0.433,16.773,6.889,16.773,15.982v16
				c0,18.063,5.987,34.727,16.084,48.117C207.469,308.506,240,297.539,240,271.986v0c0-44.183-35.817-80-80-80h-16
				c-8.837,0-16-7.163-16-16v0c0-8.837,7.163-16,16-16h16v0c0-0.227,0.007-0.452,0.009-0.679l-16.64-2.934
				c-8.485-1.496-14.636-9.304-13.54-17.849c1.169-9.124,9.697-15.322,18.652-13.743l17.06,3.008
				c0.266-0.73,0.202-0.555,0.468-1.285l-14.611-8.436c-7.461-4.308-10.571-13.748-6.619-21.403
				c4.219-8.174,14.353-11.082,22.227-6.535l15.023,8.674c0.496-0.591,0.377-0.45,0.873-1.041l-11.15-13.289
				c-5.68-6.769-4.797-16.861,1.972-22.541h0c6.769-5.68,16.861-4.797,22.541,1.972l11.142,13.279
				c0.671-0.387,0.51-0.294,1.181-0.682l-5.929-16.289c-3.022-8.304,1.259-17.485,9.563-20.507v0
				c8.304-3.022,17.485,1.259,20.507,9.563l5.927,16.284c0.763-0.135,0.581-0.102,1.344-0.237V48.438
				c0-8.615,6.621-16.028,15.227-16.434c0.261-0.012,0.515,0.004,0.773,0.004V480h-16V376.556c0-12.368-13.406-20.013-24.103-13.805
				C192.042,376.597,176,402.418,176,431.986v15.548c0,8.615-6.621,16.028-15.227,16.434c-9.188,0.433-16.773-6.889-16.773-15.982
				v-16h0c-0.227,0-0.452-0.007-0.679-0.009l-3.013,17.085c-1.579,8.955-10.32,14.848-19.294,12.826
				c-8.405-1.893-13.638-10.344-12.142-18.828l2.929-16.613c-0.73-0.266-0.555-0.202-1.285-0.468l-8.661,15.001
				c-4.547,7.875-14.776,10.423-22.517,5.454c-7.25-4.654-9.278-14.384-4.97-21.845l8.448-14.632
				c-0.591-0.496-0.45-0.377-1.041-0.873l-12.943,10.86c-6.6,5.538-16.534,5.231-22.376-1.101
				c-6.237-6.761-5.504-17.277,1.461-23.122l13.276-11.14c-0.388-0.671-0.295-0.511-0.682-1.182l-16.285,5.927
				c-8.304,3.022-17.485-1.259-20.507-9.563h0c-3.022-8.304,1.259-17.485,9.563-20.507l16.29-5.929
				c-0.134-0.762-0.102-0.58-0.237-1.342H32z"/>
		</g>
		<g>
			<path class="st5" d="M272,47.986v17.335c0.763,0.134,0.58,0.102,1.342,0.237l5.929-16.289
				c3.022-8.304,12.204-12.585,20.507-9.563v0c8.304,3.022,12.585,12.204,9.563,20.507l-5.927,16.285
				c0.671,0.388,0.511,0.295,1.182,0.682l11.14-13.276c5.68-6.769,15.772-7.652,22.541-1.972h0
				c6.769,5.68,7.652,15.772,1.972,22.541l-11.15,13.289c0.496,0.591,0.377,0.45,0.873,1.041l14.631-8.447
				c7.461-4.308,17.191-2.281,21.845,4.97c4.969,7.741,2.421,17.971-5.454,22.517l-15.001,8.661c0.266,0.73,0.202,0.555,0.468,1.285
				l16.613-2.929c8.484-1.496,16.935,3.737,18.828,12.142c2.022,8.973-3.871,17.715-12.826,19.294l-17.085,3.013
				c0.002,0.227,0.009,0.452,0.009,0.679v0h16c8.837,0,16,7.163,16,16v0c0,8.837-7.163,16-16,16h-16c-44.183,0-80,35.817-80,80v0
				c0,25.553,32.531,36.519,47.916,16.117C330.013,274.714,336,258.049,336,239.986v-16c0-8.837,7.163-16,16-16h0
				c8.837,0,16,7.163,16,16v16h0c0.227,0,0.452,0.007,0.679,0.009l2.934-16.64c1.496-8.484,9.303-14.635,17.849-13.54
				c9.124,1.169,15.323,9.697,13.744,18.652l-3.008,17.06c0.73,0.266,0.555,0.202,1.285,0.468l8.436-14.611
				c4.308-7.461,13.748-10.571,21.403-6.619c8.174,4.219,11.082,14.353,6.535,22.227l-8.671,15.018
				c0.592,0.497,0.45,0.378,1.042,0.875l13.285-11.147c6.769-5.68,16.861-4.797,22.541,1.972v0
				c5.68,6.769,4.797,16.861-1.972,22.541l-13.276,11.139c0.388,0.671,0.295,0.511,0.682,1.182l16.285-5.927
				c8.304-3.022,17.485,1.259,20.507,9.563h0c3.022,8.304-1.259,17.485-9.563,20.507l-16.284,5.927
				c0.135,0.763,0.102,0.581,0.237,1.344h16.878c8.615,0,16.028,6.621,16.434,15.227c0.433,9.188-6.889,16.773-15.982,16.773
				h-17.335c-0.134,0.762-0.102,0.58-0.237,1.342l16.289,5.929c8.304,3.022,12.585,12.204,9.563,20.507h0
				c-3.022,8.304-12.204,12.585-20.507,9.563l-16.285-5.927c-0.388,0.671-0.295,0.511-0.682,1.182l12.93,10.849
				c6.6,5.538,8.023,15.375,2.801,22.227c-5.575,7.316-16.059,8.421-23.024,2.576l-13.289-11.151
				c-0.591,0.496-0.45,0.377-1.041,0.873l8.448,14.631c4.308,7.461,2.281,17.191-4.969,21.845
				c-7.741,4.969-17.971,2.421-22.517-5.454l-8.661-15.001c-0.73,0.266-0.555,0.202-1.285,0.468l2.929,16.613
				c1.496,8.485-3.737,16.935-12.142,18.828c-8.973,2.021-17.715-3.871-19.294-12.826l-3.013-17.085
				c-0.227,0.001-0.452,0.009-0.679,0.009h0v16c0,8.837-7.163,16-16,16h0c-8.837,0-16-7.163-16-16v-16
				c0-29.569-16.042-55.389-39.897-69.235C285.406,356.543,272,364.189,272,376.556V480h-16V32.008
				C264.834,32.011,272,39.151,272,47.986z"/>
		</g>
	</g>
	<g>
		<g>
			<path class="st5" d="M16.022,335.986c0.003,8.834,7.143,16,15.978,16h17.335c0.134,0.762,0.102,0.58,0.237,1.342l-16.29,5.929
				c-8.303,3.022-12.585,12.204-9.563,20.507h0c3.022,8.304,12.204,12.585,20.507,9.563l16.285-5.927
				c0.388,0.671,0.295,0.511,0.682,1.182l-13.276,11.14c-6.966,5.845-7.698,16.361-1.461,23.122
				c5.842,6.332,15.777,6.639,22.376,1.101l12.943-10.86c0.591,0.496,0.45,0.377,1.041,0.873l-8.448,14.632
				c-4.308,7.461-2.281,17.191,4.97,21.845c7.741,4.969,17.971,2.421,22.517-5.454l8.661-15.001c0.73,0.266,0.555,0.202,1.285,0.468
				l-2.929,16.613c-1.496,8.485,3.737,16.935,12.142,18.829c8.973,2.021,17.714-3.871,19.294-12.826l3.013-17.085
				c0.227,0.001,0.452,0.009,0.679,0.009h0v15.548c0,8.615,6.621,16.028,15.227,16.434c9.188,0.433,16.773-6.889,16.773-15.982v-16
				c0-29.569,16.042-55.389,39.898-69.235c10.696-6.208,24.102,1.437,24.102,13.805V480h16v-97.014c0-25.957-21.043-47-47-47H16.022
				z"/>
		</g>
	</g>
	<g>
		<g>
			<path class="st6" d="M495.978,335.986c0-0.258,0.016-0.513,0.004-0.773c-0.405-8.606-7.818-15.227-16.434-15.227H462.67
				c-0.135-0.764-0.102-0.581-0.237-1.344l16.285-5.927c8.304-3.022,12.585-12.204,9.563-20.507h0
				c-3.022-8.304-12.204-12.585-20.507-9.563l-16.285,5.927c-0.388-0.671-0.295-0.511-0.682-1.182l13.276-11.139
				c6.769-5.68,7.652-15.772,1.972-22.541v0c-5.68-6.769-15.772-7.652-22.541-1.972l-13.285,11.147
				c-0.592-0.497-0.45-0.378-1.042-0.875l8.671-15.018c4.546-7.875,1.638-18.008-6.535-22.227
				c-7.655-3.952-17.096-0.843-21.404,6.619l-8.436,14.611c-0.73-0.266-0.555-0.202-1.285-0.468l3.008-17.06
				c1.579-8.955-4.62-17.482-13.744-18.652c-8.546-1.095-16.353,5.056-17.849,13.54l-2.934,16.64
				c-0.227-0.002-0.452-0.009-0.679-0.009l0,0v-16c0-8.837-7.163-16-16-16h0c-8.837,0-16,7.163-16,16v16
				c0,18.063-5.987,34.727-16.084,48.117C304.531,308.506,272,297.539,272,271.986l0,104v-8c0-17.673,14.327-32,32-32H495.978z"/>
		</g>
	</g>
	<g>
		<path class="st6" d="M248,197.333c-4.418,0-8-3.582-8-8v-11.628c0-34.19,13.314-66.334,37.49-90.51l4.853-4.853
			c3.125-3.124,8.19-3.124,11.314,0c3.124,3.124,3.124,8.19,0,11.314l-4.853,4.853C267.65,119.664,256,147.789,256,177.706v11.628
			C256,193.751,252.418,197.333,248,197.333z"/>
	</g>
	<g>
		<path class="st6" d="M248,285.333c-4.418,0-8-3.582-8-8c0-41.688,16.234-80.881,45.712-110.359l36.631-36.631
			c3.124-3.125,8.189-3.125,11.313,0c3.125,3.124,3.125,8.189,0,11.313l-36.631,36.631C270.57,204.744,256,239.919,256,277.333
			C256,281.751,252.418,285.333,248,285.333z"/>
	</g>
	<g>
		<path class="st6" d="M432,376c-2.047,0-4.095-0.781-5.657-2.343l-4.853-4.853C400.336,347.65,372.21,336,342.294,336h-11.628
			c-4.418,0-8-3.582-8-8s3.582-8,8-8h11.628c34.19,0,66.333,13.314,90.509,37.49l4.853,4.853c3.124,3.124,3.125,8.189,0,11.314
			C436.095,375.219,434.047,376,432,376z"/>
	</g>
	<g>
		<path class="st6" d="M384,416c-2.047,0-4.095-0.781-5.657-2.343l-36.631-36.631c-15.659-15.658-35.079-27.519-56.162-34.3
			c-4.206-1.353-6.519-5.859-5.166-10.065c1.353-4.207,5.861-6.519,10.065-5.166c23.491,7.555,45.129,20.771,62.576,38.218
			l36.631,36.631c3.125,3.124,3.125,8.189,0,11.314C388.095,415.219,386.047,416,384,416z"/>
	</g>
	<g>
		<path class="st6" d="M80,376c-2.048,0-4.095-0.781-5.657-2.343c-3.124-3.124-3.124-8.19,0-11.314l4.853-4.853
			c24.176-24.176,56.319-37.49,90.509-37.49h11.628c4.418,0,8,3.582,8,8s-3.582,8-8,8h-11.628c-29.916,0-58.042,11.65-79.196,32.804
			l-4.853,4.853C84.095,375.219,82.047,376,80,376z"/>
	</g>
	<g>
		<path class="st6" d="M128,416c-2.047,0-4.095-0.781-5.657-2.343c-3.125-3.124-3.125-8.19,0-11.314l36.631-36.631
			c17.447-17.447,39.085-30.663,62.576-38.218c4.207-1.354,8.713,0.96,10.065,5.166c1.353,4.206-0.96,8.712-5.166,10.065
			c-21.083,6.781-40.503,18.642-56.162,34.3l-36.631,36.631C132.095,415.219,130.047,416,128,416z"/>
	</g>
</g>
</svg>
