<?xml version="1.0" encoding="utf-8"?>
<!-- Generator: Adobe Illustrator 24.0.0, SVG Export Plug-In . SVG Version: 6.00 Build 0)  -->
<svg version="1.1" id="Layer_1" xmlns="http://www.w3.org/2000/svg" xmlns:xlink="http://www.w3.org/1999/xlink" x="0px" y="0px"
	 viewBox="0 0 256 256" style="enable-background:new 0 0 256 256;" xml:space="preserve">
<style type="text/css">
	.st0{fill:#F1F2F2;}
	.st1{fill:#FFFFFF;}
	.st2{fill:#E6E7E8;}
	.st3{fill:#D1D3D4;}
	.st4{fill:#FFA91A;}
	.st5{fill:#F79219;}
	.st6{fill:#E63950;}
	.st7{fill:#D10028;}
	.st8{fill:#E8566F;}
	.st9{fill:#58595B;}
	.st10{fill:#808285;}
	.st11{fill:#939598;}
	.st12{fill:#414042;}
	.st13{fill:#7C3108;}
	.st14{fill:#6D2E03;}
	.st15{fill:#648940;}
	.st16{fill:#5A7A39;}
	.st17{fill:#EF7816;}
	.st18{fill:#B7022D;}
	.st19{fill:#76A34F;}
	.st20{fill:#91B56B;}
	.st21{fill:#FFC91D;}
	.st22{fill:#995222;}
	.st23{fill:#8C3F0A;}
	.st24{fill:#FFD2C0;}
	.st25{fill:#FCC4AE;}
	.st26{fill:#F2AD97;}
	.st27{fill:#E59076;}
	.st28{fill:#A54AF4;}
	.st29{fill:#893ADD;}
	.st30{fill:#27C1E6;}
	.st31{fill:#009ADD;}
</style>
<g>
	<g>
		<g>
			<circle class="st0" cx="128" cy="128" r="95.306"/>
		</g>
		<g>
			<path class="st1" d="M38.69,130c-1.1,0-2-0.9-2-2c0,0,0-0.01,0.01-0.01c0-1.1,0.9-1.99,1.99-1.99c1.11,0,2,0.9,2,2
				C40.69,129.1,39.8,130,38.69,130z M39.05,122.01c-0.06,0-0.12,0-0.18,0c-0.53-0.05-1.01-0.3-1.36-0.71
				c-0.34-0.41-0.5-0.93-0.45-1.46c2.01-22.61,12.37-43.57,29.17-59.03C83.14,45.26,105.07,36.7,128,36.7c1.1,0,2,0.89,2,1.99
				c0,1.11-0.9,2-2,2c-44.8,0-82.99,34.92-86.96,79.5C40.95,121.23,40.09,122.01,39.05,122.01z"/>
		</g>
		<g>
			<path class="st2" d="M190.206,55.794c14.395,16.694,23.099,38.434,23.099,62.206c0,52.636-42.67,95.306-95.306,95.306
				c-23.773,0-45.512-8.704-62.206-23.099c17.477,20.268,43.343,33.099,72.206,33.099c52.636,0,95.306-42.67,95.306-95.306
				C223.306,99.137,210.475,73.271,190.206,55.794z"/>
		</g>
		<g>
			<path class="st3" d="M192.845,58.155c15.799,17.01,25.461,39.799,25.461,64.845c0,52.636-42.67,95.306-95.306,95.306
				c-25.046,0-47.835-9.661-64.845-25.461c17.404,18.737,42.255,30.461,69.845,30.461c52.636,0,95.306-42.67,95.306-95.306
				C223.306,100.41,211.582,75.559,192.845,58.155z"/>
		</g>
	</g>
	<g>
		<circle class="st1" cx="128" cy="128" r="69.612"/>
	</g>
	<g>
		<g>
			<g>
				<g>
					<circle class="st13" cx="96.489" cy="93.606" r="18.126"/>
				</g>
				<g>
					<path class="st14" d="M103.294,76.801c0.852,2.101,1.321,4.398,1.321,6.805c0,10.01-8.115,18.126-18.126,18.126
						c-2.407,0-4.704-0.469-6.805-1.321c2.691,6.639,9.201,11.321,16.805,11.321c10.011,0,18.126-8.115,18.126-18.126
						C114.615,86.002,109.933,79.492,103.294,76.801z"/>
				</g>
				<g>
					<g>
						<path class="st22" d="M87.107,82.024l1.039-1.039c0.875-0.875,2.294-0.875,3.169,0l0,0c0.875,0.875,0.875,2.294,0,3.169
							l-1.039,1.039c-0.875,0.875-2.294,0.875-3.169,0l0,0C86.232,84.318,86.232,82.899,87.107,82.024z"/>
					</g>
					<g>
						<path class="st23" d="M91.316,80.985c-0.245-0.245-0.533-0.421-0.839-0.529c0.277,0.788,0.101,1.7-0.529,2.33l-1.039,1.039
							c-0.63,0.63-1.542,0.807-2.33,0.529c0.108,0.306,0.284,0.594,0.529,0.839c0.875,0.875,2.294,0.875,3.169,0l1.039-1.039
							C92.191,83.279,92.191,81.86,91.316,80.985z"/>
					</g>
					<g>
						<path class="st22" d="M90.997,103.873l1.039-1.039c0.875-0.875,2.294-0.875,3.169,0l0,0c0.875,0.875,0.875,2.294,0,3.169
							l-1.039,1.039c-0.875,0.875-2.294,0.875-3.169,0l0,0C90.122,106.167,90.122,104.748,90.997,103.873z"/>
					</g>
					<g>
						<path class="st23" d="M95.205,102.834c-0.245-0.245-0.533-0.421-0.839-0.529c0.277,0.788,0.101,1.7-0.529,2.33l-1.039,1.039
							c-0.63,0.63-1.542,0.806-2.33,0.529c0.108,0.306,0.284,0.594,0.529,0.839l0,0c0.875,0.875,2.294,0.875,3.169,0l1.039-1.039
							C96.081,105.128,96.081,103.709,95.205,102.834z"/>
					</g>
					<g>
						<path class="st22" d="M94.797,89.368l-1.039-1.039c-0.875-0.875-0.875-2.294,0-3.169v0c0.875-0.875,2.294-0.875,3.169,0
							l1.039,1.039c0.875,0.875,0.875,2.294,0,3.169h0C97.091,90.243,95.672,90.243,94.797,89.368z"/>
					</g>
					<g>
						<path class="st23" d="M97.966,86.198l-1.039-1.039c-0.056-0.056-0.113-0.107-0.173-0.156c0.715,0.88,0.664,2.177-0.156,2.996
							c-0.82,0.82-2.116,0.872-2.996,0.156c0.049,0.06,0.1,0.117,0.156,0.173l1.039,1.039c0.875,0.875,2.294,0.875,3.169,0
							C98.841,88.492,98.841,87.073,97.966,86.198z"/>
					</g>
					<g>
						<path class="st22" d="M101.407,85.193l-1.039-1.039c-0.875-0.875-0.875-2.294,0-3.169l0,0c0.875-0.875,2.294-0.875,3.169,0
							l1.039,1.039c0.875,0.875,0.875,2.294,0,3.169l0,0C103.701,86.069,102.282,86.069,101.407,85.193z"/>
					</g>
					<g>
						<path class="st23" d="M104.576,82.024l-1.039-1.039c-0.056-0.056-0.113-0.108-0.173-0.156c0.716,0.88,0.664,2.177-0.156,2.996
							c-0.82,0.82-2.116,0.872-2.996,0.156c0.049,0.06,0.1,0.118,0.156,0.173l1.039,1.039c0.875,0.875,2.294,0.875,3.169,0
							C105.451,84.318,105.451,82.899,104.576,82.024z"/>
					</g>
					<g>
						<path class="st22" d="M86.662,99.033l-1.039-1.039c-0.875-0.875-0.875-2.294,0-3.169l0,0c0.875-0.875,2.294-0.875,3.169,0
							l1.039,1.039c0.875,0.875,0.875,2.294,0,3.169l0,0C88.956,99.908,87.537,99.908,86.662,99.033z"/>
					</g>
					<g>
						<path class="st23" d="M89.831,95.864l-1.039-1.039c-0.056-0.056-0.113-0.108-0.173-0.156c0.716,0.88,0.664,2.177-0.156,2.996
							c-0.82,0.82-2.116,0.872-2.996,0.156c0.049,0.06,0.1,0.117,0.156,0.173l1.039,1.039c0.875,0.875,2.294,0.875,3.169,0
							C90.706,98.158,90.706,96.739,89.831,95.864z"/>
					</g>
					<g>
						<path class="st22" d="M102.629,101.794l-1.039-1.039c-0.875-0.875-0.875-2.294,0-3.169l0,0c0.875-0.875,2.294-0.875,3.169,0
							l1.039,1.039c0.875,0.875,0.875,2.294,0,3.169l0,0C104.924,102.669,103.505,102.669,102.629,101.794z"/>
					</g>
					<g>
						<path class="st23" d="M105.799,98.624l-1.039-1.039c-0.056-0.056-0.113-0.108-0.173-0.156c0.715,0.88,0.664,2.177-0.156,2.996
							c-0.82,0.82-2.116,0.872-2.996,0.156c0.049,0.06,0.101,0.118,0.156,0.173l1.039,1.039c0.875,0.875,2.294,0.875,3.169,0
							C106.674,100.918,106.674,99.499,105.799,98.624z"/>
					</g>
				</g>
			</g>
			<g>
				<g>
					<circle class="st13" cx="128" cy="93.606" r="18.126"/>
				</g>
				<g>
					<path class="st14" d="M134.805,76.801c0.852,2.101,1.321,4.398,1.321,6.805c0,10.01-8.115,18.126-18.126,18.126
						c-2.407,0-4.704-0.469-6.805-1.321c2.691,6.639,9.201,11.321,16.805,11.321c10.011,0,18.126-8.115,18.126-18.126
						C146.126,86.002,141.443,79.492,134.805,76.801z"/>
				</g>
				<g>
					<g>
						<path class="st22" d="M118.617,82.024l1.039-1.039c0.875-0.875,2.294-0.875,3.169,0v0c0.875,0.875,0.875,2.294,0,3.169
							l-1.039,1.039c-0.875,0.875-2.294,0.875-3.169,0h0C117.742,84.318,117.742,82.899,118.617,82.024z"/>
					</g>
					<g>
						<path class="st23" d="M122.826,80.985c-0.245-0.245-0.533-0.421-0.839-0.529c0.277,0.788,0.101,1.7-0.529,2.33l-1.039,1.039
							c-0.63,0.63-1.542,0.807-2.33,0.529c0.108,0.306,0.284,0.594,0.529,0.839c0.875,0.875,2.294,0.875,3.169,0l1.039-1.039
							C123.701,83.279,123.701,81.86,122.826,80.985z"/>
					</g>
					<g>
						<path class="st22" d="M122.507,103.873l1.039-1.039c0.875-0.875,2.294-0.875,3.169,0v0c0.875,0.875,0.875,2.294,0,3.169
							l-1.039,1.039c-0.875,0.875-2.294,0.875-3.169,0h0C121.632,106.167,121.632,104.748,122.507,103.873z"/>
					</g>
					<g>
						<path class="st23" d="M126.716,102.834c-0.245-0.245-0.533-0.421-0.839-0.529c0.277,0.788,0.101,1.7-0.529,2.33l-1.039,1.039
							c-0.63,0.63-1.542,0.806-2.33,0.529c0.108,0.306,0.284,0.594,0.529,0.839l0,0c0.875,0.875,2.294,0.875,3.169,0l1.039-1.039
							C127.591,105.128,127.591,103.709,126.716,102.834z"/>
					</g>
					<g>
						<path class="st22" d="M126.307,89.368l-1.039-1.039c-0.875-0.875-0.875-2.294,0-3.169l0,0c0.875-0.875,2.294-0.875,3.169,0
							l1.039,1.039c0.875,0.875,0.875,2.294,0,3.169h0C128.601,90.243,127.182,90.243,126.307,89.368z"/>
					</g>
					<g>
						<path class="st23" d="M129.477,86.198l-1.039-1.039c-0.056-0.056-0.113-0.107-0.173-0.156c0.716,0.88,0.664,2.177-0.156,2.996
							c-0.82,0.82-2.116,0.872-2.996,0.156c0.049,0.06,0.1,0.117,0.156,0.173l1.039,1.039c0.875,0.875,2.294,0.875,3.169,0
							C130.352,88.492,130.352,87.073,129.477,86.198z"/>
					</g>
					<g>
						<path class="st22" d="M132.917,85.193l-1.039-1.039c-0.875-0.875-0.875-2.294,0-3.169v0c0.875-0.875,2.294-0.875,3.169,0
							l1.039,1.039c0.875,0.875,0.875,2.294,0,3.169l0,0C135.211,86.069,133.792,86.069,132.917,85.193z"/>
					</g>
					<g>
						<path class="st23" d="M136.087,82.024l-1.039-1.039c-0.056-0.056-0.113-0.108-0.173-0.156c0.715,0.88,0.664,2.177-0.156,2.996
							c-0.82,0.82-2.116,0.872-2.996,0.156c0.049,0.06,0.1,0.118,0.156,0.173l1.039,1.039c0.875,0.875,2.294,0.875,3.169,0
							C136.962,84.318,136.962,82.899,136.087,82.024z"/>
					</g>
					<g>
						<path class="st22" d="M118.172,99.033l-1.039-1.039c-0.875-0.875-0.875-2.294,0-3.169h0c0.875-0.875,2.294-0.875,3.169,0
							l1.039,1.039c0.875,0.875,0.875,2.294,0,3.169v0C120.466,99.908,119.047,99.908,118.172,99.033z"/>
					</g>
					<g>
						<path class="st23" d="M121.342,95.864l-1.039-1.039c-0.056-0.056-0.113-0.108-0.173-0.156c0.716,0.88,0.664,2.177-0.156,2.996
							c-0.82,0.82-2.116,0.872-2.996,0.156c0.049,0.06,0.1,0.117,0.156,0.173l1.039,1.039c0.875,0.875,2.294,0.875,3.169,0
							C122.217,98.158,122.217,96.739,121.342,95.864z"/>
					</g>
					<g>
						<path class="st22" d="M134.14,101.794l-1.039-1.039c-0.875-0.875-0.875-2.294,0-3.169l0,0c0.875-0.875,2.294-0.875,3.169,0
							l1.039,1.039c0.875,0.875,0.875,2.294,0,3.169h0C136.434,102.669,135.015,102.669,134.14,101.794z"/>
					</g>
					<g>
						<path class="st23" d="M137.309,98.624l-1.039-1.039c-0.056-0.056-0.113-0.108-0.173-0.156c0.715,0.88,0.664,2.177-0.156,2.996
							c-0.82,0.82-2.116,0.872-2.996,0.156c0.049,0.06,0.1,0.118,0.156,0.173l1.039,1.039c0.875,0.875,2.294,0.875,3.169,0
							S138.184,99.499,137.309,98.624z"/>
					</g>
				</g>
			</g>
			<g>
				<g>
					<circle class="st13" cx="159.511" cy="93.606" r="18.126"/>
				</g>
				<g>
					<path class="st14" d="M166.315,76.801c0.852,2.101,1.321,4.398,1.321,6.805c0,10.01-8.115,18.126-18.126,18.126
						c-2.407,0-4.704-0.469-6.805-1.321c2.691,6.639,9.201,11.321,16.805,11.321c10.011,0,18.126-8.115,18.126-18.126
						C177.636,86.002,172.954,79.492,166.315,76.801z"/>
				</g>
				<g>
					<g>
						<path class="st22" d="M150.128,82.024l1.039-1.039c0.875-0.875,2.294-0.875,3.169,0v0c0.875,0.875,0.875,2.294,0,3.169
							l-1.039,1.039c-0.875,0.875-2.294,0.875-3.169,0l0,0C149.253,84.318,149.253,82.899,150.128,82.024z"/>
					</g>
					<g>
						<path class="st23" d="M154.337,80.985c-0.245-0.245-0.533-0.421-0.839-0.529c0.277,0.788,0.101,1.7-0.529,2.33l-1.039,1.039
							c-0.63,0.63-1.542,0.807-2.33,0.529c0.108,0.306,0.284,0.594,0.529,0.839c0.875,0.875,2.294,0.875,3.169,0l1.039-1.039
							C155.212,83.279,155.212,81.86,154.337,80.985z"/>
					</g>
					<g>
						<path class="st22" d="M154.018,103.873l1.039-1.039c0.875-0.875,2.294-0.875,3.169,0v0c0.875,0.875,0.875,2.294,0,3.169
							l-1.039,1.039c-0.875,0.875-2.294,0.875-3.169,0h0C153.143,106.167,153.143,104.748,154.018,103.873z"/>
					</g>
					<g>
						<path class="st23" d="M158.226,102.834c-0.245-0.245-0.533-0.421-0.839-0.529c0.277,0.788,0.101,1.7-0.529,2.33l-1.039,1.039
							c-0.63,0.63-1.542,0.806-2.33,0.529c0.108,0.306,0.284,0.594,0.529,0.839l0,0c0.875,0.875,2.294,0.875,3.169,0l1.039-1.039
							C159.102,105.128,159.102,103.709,158.226,102.834z"/>
					</g>
					<g>
						<path class="st22" d="M157.818,89.368l-1.039-1.039c-0.875-0.875-0.875-2.294,0-3.169v0c0.875-0.875,2.294-0.875,3.169,0
							l1.039,1.039c0.875,0.875,0.875,2.294,0,3.169h0C160.112,90.243,158.693,90.243,157.818,89.368z"/>
					</g>
					<g>
						<path class="st23" d="M160.987,86.198l-1.039-1.039c-0.056-0.056-0.113-0.107-0.173-0.156c0.715,0.88,0.664,2.177-0.156,2.996
							c-0.82,0.82-2.116,0.872-2.996,0.156c0.049,0.06,0.1,0.117,0.156,0.173l1.039,1.039c0.875,0.875,2.294,0.875,3.169,0
							C161.862,88.492,161.862,87.073,160.987,86.198z"/>
					</g>
					<g>
						<path class="st22" d="M164.428,85.193l-1.039-1.039c-0.875-0.875-0.875-2.294,0-3.169v0c0.875-0.875,2.294-0.875,3.169,0
							l1.039,1.039c0.875,0.875,0.875,2.294,0,3.169l0,0C166.722,86.069,165.303,86.069,164.428,85.193z"/>
					</g>
					<g>
						<path class="st23" d="M167.597,82.024l-1.039-1.039c-0.056-0.056-0.113-0.108-0.173-0.156c0.716,0.88,0.664,2.177-0.156,2.996
							c-0.82,0.82-2.116,0.872-2.996,0.156c0.049,0.06,0.1,0.118,0.156,0.173l1.039,1.039c0.875,0.875,2.294,0.875,3.169,0
							C168.472,84.318,168.472,82.899,167.597,82.024z"/>
					</g>
					<g>
						<path class="st22" d="M149.683,99.033l-1.039-1.039c-0.875-0.875-0.875-2.294,0-3.169l0,0c0.875-0.875,2.294-0.875,3.169,0
							l1.039,1.039c0.875,0.875,0.875,2.294,0,3.169v0C151.977,99.908,150.558,99.908,149.683,99.033z"/>
					</g>
					<g>
						<path class="st23" d="M152.852,95.864l-1.039-1.039c-0.056-0.056-0.113-0.108-0.173-0.156c0.716,0.88,0.664,2.177-0.156,2.996
							c-0.82,0.82-2.116,0.872-2.996,0.156c0.049,0.06,0.1,0.117,0.156,0.173l1.039,1.039c0.875,0.875,2.294,0.875,3.169,0
							C153.727,98.158,153.727,96.739,152.852,95.864z"/>
					</g>
					<g>
						<path class="st22" d="M165.65,101.794l-1.039-1.039c-0.875-0.875-0.875-2.294,0-3.169l0,0c0.875-0.875,2.294-0.875,3.169,0
							l1.039,1.039c0.875,0.875,0.875,2.294,0,3.169l0,0C167.945,102.669,166.526,102.669,165.65,101.794z"/>
					</g>
					<g>
						<path class="st23" d="M168.82,98.624l-1.039-1.039c-0.056-0.056-0.113-0.108-0.173-0.156c0.715,0.88,0.664,2.177-0.156,2.996
							c-0.82,0.82-2.116,0.872-2.996,0.156c0.049,0.06,0.101,0.118,0.156,0.173l1.039,1.039c0.875,0.875,2.294,0.875,3.169,0
							C169.695,100.918,169.695,99.499,168.82,98.624z"/>
					</g>
				</g>
			</g>
		</g>
		<g>
			<g>
				<g>
					<circle class="st13" cx="96.489" cy="128" r="18.126"/>
				</g>
				<g>
					<path class="st14" d="M103.294,111.195c0.852,2.101,1.321,4.398,1.321,6.805c0,10.01-8.115,18.126-18.126,18.126
						c-2.407,0-4.704-0.469-6.805-1.321c2.691,6.639,9.201,11.321,16.805,11.321c10.011,0,18.126-8.115,18.126-18.126
						C114.615,120.396,109.933,113.886,103.294,111.195z"/>
				</g>
				<g>
					<g>
						<path class="st22" d="M87.107,116.418l1.039-1.039c0.875-0.875,2.294-0.875,3.169,0h0c0.875,0.875,0.875,2.294,0,3.169
							l-1.039,1.039c-0.875,0.875-2.294,0.875-3.169,0v0C86.232,118.712,86.232,117.293,87.107,116.418z"/>
					</g>
					<g>
						<path class="st23" d="M91.316,115.379c-0.245-0.245-0.533-0.421-0.839-0.529c0.277,0.788,0.101,1.7-0.529,2.33l-1.039,1.039
							c-0.63,0.63-1.542,0.807-2.33,0.529c0.108,0.306,0.284,0.594,0.529,0.839c0.875,0.875,2.294,0.875,3.169,0l1.039-1.039
							C92.191,117.673,92.191,116.254,91.316,115.379z"/>
					</g>
					<g>
						<path class="st22" d="M90.997,138.267l1.039-1.039c0.875-0.875,2.294-0.875,3.169,0h0c0.875,0.875,0.875,2.294,0,3.169
							l-1.039,1.039c-0.875,0.875-2.294,0.875-3.169,0v0C90.122,140.561,90.122,139.142,90.997,138.267z"/>
					</g>
					<g>
						<path class="st23" d="M95.205,137.227c-0.245-0.245-0.533-0.421-0.839-0.529c0.277,0.788,0.101,1.7-0.529,2.33l-1.039,1.039
							c-0.63,0.63-1.542,0.806-2.33,0.529c0.108,0.307,0.284,0.594,0.529,0.839l0,0c0.875,0.875,2.294,0.875,3.169,0l1.039-1.039
							C96.081,139.522,96.081,138.103,95.205,137.227z"/>
					</g>
					<g>
						<path class="st22" d="M94.797,123.761l-1.039-1.039c-0.875-0.875-0.875-2.294,0-3.169v0c0.875-0.875,2.294-0.875,3.169,0
							l1.039,1.039c0.875,0.875,0.875,2.294,0,3.169h0C97.091,124.637,95.672,124.637,94.797,123.761z"/>
					</g>
					<g>
						<path class="st23" d="M97.966,120.592l-1.039-1.039c-0.056-0.056-0.113-0.107-0.173-0.156c0.715,0.88,0.664,2.177-0.156,2.996
							s-2.116,0.872-2.996,0.156c0.049,0.06,0.1,0.117,0.156,0.173l1.039,1.039c0.875,0.875,2.294,0.875,3.169,0
							C98.841,122.886,98.841,121.467,97.966,120.592z"/>
					</g>
					<g>
						<path class="st22" d="M101.407,119.587l-1.039-1.039c-0.875-0.875-0.875-2.294,0-3.169h0c0.875-0.875,2.294-0.875,3.169,0
							l1.039,1.039c0.875,0.875,0.875,2.294,0,3.169v0C103.701,120.462,102.282,120.462,101.407,119.587z"/>
					</g>
					<g>
						<path class="st23" d="M104.576,116.418l-1.039-1.039c-0.056-0.056-0.113-0.108-0.173-0.156
							c0.716,0.88,0.664,2.177-0.156,2.996c-0.82,0.82-2.116,0.872-2.996,0.156c0.049,0.06,0.1,0.118,0.156,0.173l1.039,1.039
							c0.875,0.875,2.294,0.875,3.169,0C105.451,118.712,105.451,117.293,104.576,116.418z"/>
					</g>
					<g>
						<path class="st22" d="M86.662,133.427l-1.039-1.039c-0.875-0.875-0.875-2.294,0-3.169l0,0c0.875-0.875,2.294-0.875,3.169,0
							l1.039,1.039c0.875,0.875,0.875,2.294,0,3.169h0C88.956,134.302,87.537,134.302,86.662,133.427z"/>
					</g>
					<g>
						<path class="st23" d="M89.831,130.257l-1.039-1.039c-0.056-0.056-0.113-0.108-0.173-0.156c0.716,0.88,0.664,2.177-0.156,2.996
							c-0.82,0.82-2.116,0.872-2.996,0.156c0.049,0.06,0.1,0.117,0.156,0.173l1.039,1.039c0.875,0.875,2.294,0.875,3.169,0
							C90.706,132.552,90.706,131.133,89.831,130.257z"/>
					</g>
					<g>
						<path class="st22" d="M102.629,136.188l-1.039-1.039c-0.875-0.875-0.875-2.294,0-3.169v0c0.875-0.875,2.294-0.875,3.169,0
							l1.039,1.039c0.875,0.875,0.875,2.294,0,3.169l0,0C104.924,137.063,103.505,137.063,102.629,136.188z"/>
					</g>
					<g>
						<path class="st23" d="M105.799,133.018l-1.039-1.039c-0.056-0.056-0.113-0.108-0.173-0.156
							c0.715,0.88,0.664,2.177-0.156,2.996c-0.82,0.82-2.116,0.872-2.996,0.156c0.049,0.06,0.101,0.118,0.156,0.173l1.039,1.039
							c0.875,0.875,2.294,0.875,3.169,0C106.674,135.312,106.674,133.893,105.799,133.018z"/>
					</g>
				</g>
			</g>
			<g>
				<g>
					<circle class="st13" cx="128" cy="128" r="18.126"/>
				</g>
				<g>
					<path class="st14" d="M134.805,111.195c0.852,2.101,1.321,4.398,1.321,6.805c0,10.01-8.115,18.126-18.126,18.126
						c-2.407,0-4.704-0.469-6.805-1.321c2.691,6.639,9.201,11.321,16.805,11.321c10.011,0,18.126-8.115,18.126-18.126
						C146.126,120.396,141.443,113.886,134.805,111.195z"/>
				</g>
				<g>
					<g>
						<path class="st22" d="M118.617,116.418l1.039-1.039c0.875-0.875,2.294-0.875,3.169,0l0,0c0.875,0.875,0.875,2.294,0,3.169
							l-1.039,1.039c-0.875,0.875-2.294,0.875-3.169,0l0,0C117.742,118.712,117.742,117.293,118.617,116.418z"/>
					</g>
					<g>
						<path class="st23" d="M122.826,115.379c-0.245-0.245-0.533-0.421-0.839-0.529c0.277,0.788,0.101,1.7-0.529,2.33l-1.039,1.039
							c-0.63,0.63-1.542,0.807-2.33,0.529c0.108,0.306,0.284,0.594,0.529,0.839c0.875,0.875,2.294,0.875,3.169,0l1.039-1.039
							C123.701,117.673,123.701,116.254,122.826,115.379z"/>
					</g>
					<g>
						<path class="st22" d="M122.507,138.267l1.039-1.039c0.875-0.875,2.294-0.875,3.169,0l0,0c0.875,0.875,0.875,2.294,0,3.169
							l-1.039,1.039c-0.875,0.875-2.294,0.875-3.169,0l0,0C121.632,140.561,121.632,139.142,122.507,138.267z"/>
					</g>
					<g>
						<path class="st23" d="M126.716,137.227c-0.245-0.245-0.533-0.421-0.839-0.529c0.277,0.788,0.101,1.7-0.529,2.33l-1.039,1.039
							c-0.63,0.63-1.542,0.806-2.33,0.529c0.108,0.307,0.284,0.594,0.529,0.839l0,0c0.875,0.875,2.294,0.875,3.169,0l1.039-1.039
							C127.591,139.522,127.591,138.103,126.716,137.227z"/>
					</g>
					<g>
						<path class="st22" d="M126.307,123.761l-1.039-1.039c-0.875-0.875-0.875-2.294,0-3.169l0,0c0.875-0.875,2.294-0.875,3.169,0
							l1.039,1.039c0.875,0.875,0.875,2.294,0,3.169h0C128.601,124.637,127.182,124.637,126.307,123.761z"/>
					</g>
					<g>
						<path class="st23" d="M129.477,120.592l-1.039-1.039c-0.056-0.056-0.113-0.107-0.173-0.156
							c0.716,0.88,0.664,2.177-0.156,2.996c-0.82,0.82-2.116,0.872-2.996,0.156c0.049,0.06,0.1,0.117,0.156,0.173l1.039,1.039
							c0.875,0.875,2.294,0.875,3.169,0S130.352,121.467,129.477,120.592z"/>
					</g>
					<g>
						<path class="st22" d="M132.917,119.587l-1.039-1.039c-0.875-0.875-0.875-2.294,0-3.169l0,0c0.875-0.875,2.294-0.875,3.169,0
							l1.039,1.039c0.875,0.875,0.875,2.294,0,3.169v0C135.211,120.462,133.792,120.462,132.917,119.587z"/>
					</g>
					<g>
						<path class="st23" d="M136.087,116.418l-1.039-1.039c-0.056-0.056-0.113-0.108-0.173-0.156
							c0.715,0.88,0.664,2.177-0.156,2.996c-0.82,0.82-2.116,0.872-2.996,0.156c0.049,0.06,0.1,0.118,0.156,0.173l1.039,1.039
							c0.875,0.875,2.294,0.875,3.169,0S136.962,117.293,136.087,116.418z"/>
					</g>
					<g>
						<path class="st22" d="M118.172,133.427l-1.039-1.039c-0.875-0.875-0.875-2.294,0-3.169h0c0.875-0.875,2.294-0.875,3.169,0
							l1.039,1.039c0.875,0.875,0.875,2.294,0,3.169l0,0C120.466,134.302,119.047,134.302,118.172,133.427z"/>
					</g>
					<g>
						<path class="st23" d="M121.342,130.257l-1.039-1.039c-0.056-0.056-0.113-0.108-0.173-0.156
							c0.716,0.88,0.664,2.177-0.156,2.996c-0.82,0.82-2.116,0.872-2.996,0.156c0.049,0.06,0.1,0.117,0.156,0.173l1.039,1.039
							c0.875,0.875,2.294,0.875,3.169,0C122.217,132.552,122.217,131.133,121.342,130.257z"/>
					</g>
					<g>
						<path class="st22" d="M134.14,136.188l-1.039-1.039c-0.875-0.875-0.875-2.294,0-3.169v0c0.875-0.875,2.294-0.875,3.169,0
							l1.039,1.039c0.875,0.875,0.875,2.294,0,3.169h0C136.434,137.063,135.015,137.063,134.14,136.188z"/>
					</g>
					<g>
						<path class="st23" d="M137.309,133.018l-1.039-1.039c-0.056-0.056-0.113-0.108-0.173-0.156
							c0.715,0.88,0.664,2.177-0.156,2.996c-0.82,0.82-2.116,0.872-2.996,0.156c0.049,0.06,0.1,0.118,0.156,0.173l1.039,1.039
							c0.875,0.875,2.294,0.875,3.169,0C138.184,135.312,138.184,133.893,137.309,133.018z"/>
					</g>
				</g>
			</g>
			<g>
				<g>
					<circle class="st13" cx="159.511" cy="128" r="18.126"/>
				</g>
				<g>
					<path class="st14" d="M166.315,111.195c0.852,2.101,1.321,4.398,1.321,6.805c0,10.01-8.115,18.126-18.126,18.126
						c-2.407,0-4.704-0.469-6.805-1.321c2.691,6.639,9.201,11.321,16.805,11.321c10.011,0,18.126-8.115,18.126-18.126
						C177.636,120.396,172.954,113.886,166.315,111.195z"/>
				</g>
				<g>
					<g>
						<path class="st22" d="M150.128,116.418l1.039-1.039c0.875-0.875,2.294-0.875,3.169,0l0,0c0.875,0.875,0.875,2.294,0,3.169
							l-1.039,1.039c-0.875,0.875-2.294,0.875-3.169,0v0C149.253,118.712,149.253,117.293,150.128,116.418z"/>
					</g>
					<g>
						<path class="st23" d="M154.337,115.379c-0.245-0.245-0.533-0.421-0.839-0.529c0.277,0.788,0.101,1.7-0.529,2.33l-1.039,1.039
							c-0.63,0.63-1.542,0.807-2.33,0.529c0.108,0.306,0.284,0.594,0.529,0.839c0.875,0.875,2.294,0.875,3.169,0l1.039-1.039
							C155.212,117.673,155.212,116.254,154.337,115.379z"/>
					</g>
					<g>
						<path class="st22" d="M154.018,138.267l1.039-1.039c0.875-0.875,2.294-0.875,3.169,0l0,0c0.875,0.875,0.875,2.294,0,3.169
							l-1.039,1.039c-0.875,0.875-2.294,0.875-3.169,0l0,0C153.143,140.561,153.143,139.142,154.018,138.267z"/>
					</g>
					<g>
						<path class="st23" d="M158.226,137.227c-0.245-0.245-0.533-0.421-0.839-0.529c0.277,0.788,0.101,1.7-0.529,2.33l-1.039,1.039
							c-0.63,0.63-1.542,0.806-2.33,0.529c0.108,0.307,0.284,0.594,0.529,0.839l0,0c0.875,0.875,2.294,0.875,3.169,0l1.039-1.039
							C159.102,139.522,159.102,138.103,158.226,137.227z"/>
					</g>
					<g>
						<path class="st22" d="M157.818,123.761l-1.039-1.039c-0.875-0.875-0.875-2.294,0-3.169v0c0.875-0.875,2.294-0.875,3.169,0
							l1.039,1.039c0.875,0.875,0.875,2.294,0,3.169h0C160.112,124.637,158.693,124.637,157.818,123.761z"/>
					</g>
					<g>
						<path class="st23" d="M160.987,120.592l-1.039-1.039c-0.056-0.056-0.113-0.107-0.173-0.156
							c0.715,0.88,0.664,2.177-0.156,2.996c-0.82,0.82-2.116,0.872-2.996,0.156c0.049,0.06,0.1,0.117,0.156,0.173l1.039,1.039
							c0.875,0.875,2.294,0.875,3.169,0C161.862,122.886,161.862,121.467,160.987,120.592z"/>
					</g>
					<g>
						<path class="st22" d="M164.428,119.587l-1.039-1.039c-0.875-0.875-0.875-2.294,0-3.169l0,0c0.875-0.875,2.294-0.875,3.169,0
							l1.039,1.039c0.875,0.875,0.875,2.294,0,3.169v0C166.722,120.462,165.303,120.462,164.428,119.587z"/>
					</g>
					<g>
						<path class="st23" d="M167.597,116.418l-1.039-1.039c-0.056-0.056-0.113-0.108-0.173-0.156
							c0.716,0.88,0.664,2.177-0.156,2.996c-0.82,0.82-2.116,0.872-2.996,0.156c0.049,0.06,0.1,0.118,0.156,0.173l1.039,1.039
							c0.875,0.875,2.294,0.875,3.169,0S168.472,117.293,167.597,116.418z"/>
					</g>
					<g>
						<path class="st22" d="M149.683,133.427l-1.039-1.039c-0.875-0.875-0.875-2.294,0-3.169l0,0c0.875-0.875,2.294-0.875,3.169,0
							l1.039,1.039c0.875,0.875,0.875,2.294,0,3.169l0,0C151.977,134.302,150.558,134.302,149.683,133.427z"/>
					</g>
					<g>
						<path class="st23" d="M152.852,130.257l-1.039-1.039c-0.056-0.056-0.113-0.108-0.173-0.156
							c0.716,0.88,0.664,2.177-0.156,2.996c-0.82,0.82-2.116,0.872-2.996,0.156c0.049,0.06,0.1,0.117,0.156,0.173l1.039,1.039
							c0.875,0.875,2.294,0.875,3.169,0C153.727,132.552,153.727,131.133,152.852,130.257z"/>
					</g>
					<g>
						<path class="st22" d="M165.65,136.188l-1.039-1.039c-0.875-0.875-0.875-2.294,0-3.169v0c0.875-0.875,2.294-0.875,3.169,0
							l1.039,1.039c0.875,0.875,0.875,2.294,0,3.169l0,0C167.945,137.063,166.526,137.063,165.65,136.188z"/>
					</g>
					<g>
						<path class="st23" d="M168.82,133.018l-1.039-1.039c-0.056-0.056-0.113-0.108-0.173-0.156c0.715,0.88,0.664,2.177-0.156,2.996
							c-0.82,0.82-2.116,0.872-2.996,0.156c0.049,0.06,0.101,0.118,0.156,0.173l1.039,1.039c0.875,0.875,2.294,0.875,3.169,0
							C169.695,135.312,169.695,133.893,168.82,133.018z"/>
					</g>
				</g>
			</g>
		</g>
		<g>
			<g>
				<g>
					<circle class="st13" cx="96.489" cy="162.394" r="18.126"/>
				</g>
				<g>
					<path class="st14" d="M103.294,145.589c0.852,2.101,1.321,4.398,1.321,6.805c0,10.01-8.115,18.126-18.126,18.126
						c-2.407,0-4.704-0.469-6.805-1.321c2.691,6.639,9.201,11.321,16.805,11.321c10.011,0,18.126-8.115,18.126-18.126
						C114.615,154.79,109.933,148.28,103.294,145.589z"/>
				</g>
				<g>
					<g>
						<path class="st22" d="M87.107,150.812l1.039-1.039c0.875-0.875,2.294-0.875,3.169,0h0c0.875,0.875,0.875,2.294,0,3.169
							l-1.039,1.039c-0.875,0.875-2.294,0.875-3.169,0l0,0C86.232,153.106,86.232,151.687,87.107,150.812z"/>
					</g>
					<g>
						<path class="st23" d="M91.316,149.772c-0.245-0.245-0.533-0.421-0.839-0.529c0.277,0.788,0.101,1.7-0.529,2.33l-1.039,1.039
							c-0.63,0.63-1.542,0.807-2.33,0.529c0.108,0.307,0.284,0.594,0.529,0.839c0.875,0.875,2.294,0.875,3.169,0l1.039-1.039
							C92.191,152.067,92.191,150.648,91.316,149.772z"/>
					</g>
					<g>
						<path class="st22" d="M90.997,172.66l1.039-1.039c0.875-0.875,2.294-0.875,3.169,0h0c0.875,0.875,0.875,2.294,0,3.169
							l-1.039,1.039c-0.875,0.875-2.294,0.875-3.169,0l0,0C90.122,174.955,90.122,173.536,90.997,172.66z"/>
					</g>
					<g>
						<path class="st23" d="M95.205,171.621c-0.245-0.245-0.533-0.421-0.839-0.529c0.277,0.788,0.101,1.7-0.529,2.33l-1.039,1.039
							c-0.63,0.63-1.542,0.807-2.33,0.529c0.108,0.307,0.284,0.594,0.529,0.839l0,0c0.875,0.875,2.294,0.875,3.169,0l1.039-1.039
							C96.081,173.916,96.081,172.496,95.205,171.621z"/>
					</g>
					<g>
						<path class="st22" d="M94.797,158.155l-1.039-1.039c-0.875-0.875-0.875-2.294,0-3.169l0,0c0.875-0.875,2.294-0.875,3.169,0
							l1.039,1.039c0.875,0.875,0.875,2.294,0,3.169h0C97.091,159.03,95.672,159.03,94.797,158.155z"/>
					</g>
					<g>
						<path class="st23" d="M97.966,154.986l-1.039-1.039c-0.056-0.056-0.113-0.107-0.173-0.156c0.715,0.88,0.664,2.177-0.156,2.996
							s-2.116,0.872-2.996,0.156c0.049,0.06,0.1,0.117,0.156,0.173l1.039,1.039c0.875,0.875,2.294,0.875,3.169,0
							C98.841,157.28,98.841,155.861,97.966,154.986z"/>
					</g>
					<g>
						<path class="st22" d="M101.407,153.981l-1.039-1.039c-0.875-0.875-0.875-2.294,0-3.169h0c0.875-0.875,2.294-0.875,3.169,0
							l1.039,1.039c0.875,0.875,0.875,2.294,0,3.169l0,0C103.701,154.856,102.282,154.856,101.407,153.981z"/>
					</g>
					<g>
						<path class="st23" d="M104.576,150.812l-1.039-1.039c-0.056-0.056-0.113-0.108-0.173-0.156
							c0.716,0.88,0.664,2.177-0.156,2.996c-0.82,0.82-2.116,0.872-2.996,0.156c0.049,0.06,0.1,0.118,0.156,0.173l1.039,1.039
							c0.875,0.875,2.294,0.875,3.169,0C105.451,153.106,105.451,151.687,104.576,150.812z"/>
					</g>
					<g>
						<path class="st22" d="M86.662,167.821l-1.039-1.039c-0.875-0.875-0.875-2.294,0-3.169l0,0c0.875-0.875,2.294-0.875,3.169,0
							l1.039,1.039c0.875,0.875,0.875,2.294,0,3.169h0C88.956,168.696,87.537,168.696,86.662,167.821z"/>
					</g>
					<g>
						<path class="st23" d="M89.831,164.651l-1.039-1.039c-0.056-0.056-0.113-0.108-0.173-0.156c0.716,0.88,0.664,2.177-0.156,2.996
							c-0.82,0.82-2.116,0.872-2.996,0.156c0.049,0.06,0.1,0.117,0.156,0.173l1.039,1.039c0.875,0.875,2.294,0.875,3.169,0
							C90.706,166.945,90.706,165.526,89.831,164.651z"/>
					</g>
					<g>
						<path class="st22" d="M102.629,170.581l-1.039-1.039c-0.875-0.875-0.875-2.294,0-3.169l0,0c0.875-0.875,2.294-0.875,3.169,0
							l1.039,1.039c0.875,0.875,0.875,2.294,0,3.169v0C104.924,171.457,103.505,171.457,102.629,170.581z"/>
					</g>
					<g>
						<path class="st23" d="M105.799,167.412l-1.039-1.039c-0.056-0.056-0.113-0.108-0.173-0.156
							c0.715,0.88,0.664,2.177-0.156,2.996c-0.82,0.82-2.116,0.872-2.996,0.156c0.049,0.06,0.101,0.118,0.156,0.173l1.039,1.039
							c0.875,0.875,2.294,0.875,3.169,0C106.674,169.706,106.674,168.287,105.799,167.412z"/>
					</g>
				</g>
			</g>
			<g>
				<g>
					<circle class="st13" cx="128" cy="162.394" r="18.126"/>
				</g>
				<g>
					<path class="st14" d="M134.805,145.589c0.852,2.101,1.321,4.398,1.321,6.805c0,10.01-8.115,18.126-18.126,18.126
						c-2.407,0-4.704-0.469-6.805-1.321c2.691,6.639,9.201,11.321,16.805,11.321c10.011,0,18.126-8.115,18.126-18.126
						C146.126,154.79,141.443,148.28,134.805,145.589z"/>
				</g>
				<g>
					<g>
						<path class="st22" d="M118.617,150.812l1.039-1.039c0.875-0.875,2.294-0.875,3.169,0l0,0c0.875,0.875,0.875,2.294,0,3.169
							l-1.039,1.039c-0.875,0.875-2.294,0.875-3.169,0h0C117.742,153.106,117.742,151.687,118.617,150.812z"/>
					</g>
					<g>
						<path class="st23" d="M122.826,149.772c-0.245-0.245-0.533-0.421-0.839-0.529c0.277,0.788,0.101,1.7-0.529,2.33l-1.039,1.039
							c-0.63,0.63-1.542,0.807-2.33,0.529c0.108,0.307,0.284,0.594,0.529,0.839c0.875,0.875,2.294,0.875,3.169,0l1.039-1.039
							C123.701,152.067,123.701,150.648,122.826,149.772z"/>
					</g>
					<g>
						<path class="st22" d="M122.507,172.66l1.039-1.039c0.875-0.875,2.294-0.875,3.169,0l0,0c0.875,0.875,0.875,2.294,0,3.169
							l-1.039,1.039c-0.875,0.875-2.294,0.875-3.169,0h0C121.632,174.955,121.632,173.536,122.507,172.66z"/>
					</g>
					<g>
						<path class="st23" d="M126.716,171.621c-0.245-0.245-0.533-0.421-0.839-0.529c0.277,0.788,0.101,1.7-0.529,2.33l-1.039,1.039
							c-0.63,0.63-1.542,0.807-2.33,0.529c0.108,0.307,0.284,0.594,0.529,0.839l0,0c0.875,0.875,2.294,0.875,3.169,0l1.039-1.039
							C127.591,173.916,127.591,172.496,126.716,171.621z"/>
					</g>
					<g>
						<path class="st22" d="M126.307,158.155l-1.039-1.039c-0.875-0.875-0.875-2.294,0-3.169h0c0.875-0.875,2.294-0.875,3.169,0
							l1.039,1.039c0.875,0.875,0.875,2.294,0,3.169h0C128.601,159.03,127.182,159.03,126.307,158.155z"/>
					</g>
					<g>
						<path class="st23" d="M129.477,154.986l-1.039-1.039c-0.056-0.056-0.113-0.107-0.173-0.156
							c0.716,0.88,0.664,2.177-0.156,2.996c-0.82,0.82-2.116,0.872-2.996,0.156c0.049,0.06,0.1,0.117,0.156,0.173l1.039,1.039
							c0.875,0.875,2.294,0.875,3.169,0S130.352,155.861,129.477,154.986z"/>
					</g>
					<g>
						<path class="st22" d="M132.917,153.981l-1.039-1.039c-0.875-0.875-0.875-2.294,0-3.169l0,0c0.875-0.875,2.294-0.875,3.169,0
							l1.039,1.039c0.875,0.875,0.875,2.294,0,3.169l0,0C135.211,154.856,133.792,154.856,132.917,153.981z"/>
					</g>
					<g>
						<path class="st23" d="M136.087,150.812l-1.039-1.039c-0.056-0.056-0.113-0.108-0.173-0.156
							c0.715,0.88,0.664,2.177-0.156,2.996c-0.82,0.82-2.116,0.872-2.996,0.156c0.049,0.06,0.1,0.118,0.156,0.173l1.039,1.039
							c0.875,0.875,2.294,0.875,3.169,0C136.962,153.106,136.962,151.687,136.087,150.812z"/>
					</g>
					<g>
						<path class="st22" d="M118.172,167.821l-1.039-1.039c-0.875-0.875-0.875-2.294,0-3.169h0c0.875-0.875,2.294-0.875,3.169,0
							l1.039,1.039c0.875,0.875,0.875,2.294,0,3.169l0,0C120.466,168.696,119.047,168.696,118.172,167.821z"/>
					</g>
					<g>
						<path class="st23" d="M121.342,164.651l-1.039-1.039c-0.056-0.056-0.113-0.108-0.173-0.156
							c0.716,0.88,0.664,2.177-0.156,2.996c-0.82,0.82-2.116,0.872-2.996,0.156c0.049,0.06,0.1,0.117,0.156,0.173l1.039,1.039
							c0.875,0.875,2.294,0.875,3.169,0C122.217,166.945,122.217,165.526,121.342,164.651z"/>
					</g>
					<g>
						<path class="st22" d="M134.14,170.581l-1.039-1.039c-0.875-0.875-0.875-2.294,0-3.169l0,0c0.875-0.875,2.294-0.875,3.169,0
							l1.039,1.039c0.875,0.875,0.875,2.294,0,3.169l0,0C136.434,171.457,135.015,171.457,134.14,170.581z"/>
					</g>
					<g>
						<path class="st23" d="M137.309,167.412l-1.039-1.039c-0.056-0.056-0.113-0.108-0.173-0.156
							c0.715,0.88,0.664,2.177-0.156,2.996c-0.82,0.82-2.116,0.872-2.996,0.156c0.049,0.06,0.1,0.118,0.156,0.173l1.039,1.039
							c0.875,0.875,2.294,0.875,3.169,0S138.184,168.287,137.309,167.412z"/>
					</g>
				</g>
			</g>
			<g>
				<g>
					<circle class="st13" cx="159.511" cy="162.394" r="18.126"/>
				</g>
				<g>
					<path class="st14" d="M166.315,145.589c0.852,2.101,1.321,4.398,1.321,6.805c0,10.01-8.115,18.126-18.126,18.126
						c-2.407,0-4.704-0.469-6.805-1.321c2.691,6.639,9.201,11.321,16.805,11.321c10.011,0,18.126-8.115,18.126-18.126
						C177.636,154.79,172.954,148.28,166.315,145.589z"/>
				</g>
				<g>
					<g>
						<path class="st22" d="M150.128,150.812l1.039-1.039c0.875-0.875,2.294-0.875,3.169,0l0,0c0.875,0.875,0.875,2.294,0,3.169
							l-1.039,1.039c-0.875,0.875-2.294,0.875-3.169,0l0,0C149.253,153.106,149.253,151.687,150.128,150.812z"/>
					</g>
					<g>
						<path class="st23" d="M154.337,149.772c-0.245-0.245-0.533-0.421-0.839-0.529c0.277,0.788,0.101,1.7-0.529,2.33l-1.039,1.039
							c-0.63,0.63-1.542,0.807-2.33,0.529c0.108,0.307,0.284,0.594,0.529,0.839c0.875,0.875,2.294,0.875,3.169,0l1.039-1.039
							C155.212,152.067,155.212,150.648,154.337,149.772z"/>
					</g>
					<g>
						<path class="st22" d="M154.018,172.66l1.039-1.039c0.875-0.875,2.294-0.875,3.169,0l0,0c0.875,0.875,0.875,2.294,0,3.169
							l-1.039,1.039c-0.875,0.875-2.294,0.875-3.169,0h0C153.143,174.955,153.143,173.536,154.018,172.66z"/>
					</g>
					<g>
						<path class="st23" d="M158.226,171.621c-0.245-0.245-0.533-0.421-0.839-0.529c0.277,0.788,0.101,1.7-0.529,2.33l-1.039,1.039
							c-0.63,0.63-1.542,0.807-2.33,0.529c0.108,0.307,0.284,0.594,0.529,0.839l0,0c0.875,0.875,2.294,0.875,3.169,0l1.039-1.039
							C159.102,173.916,159.102,172.496,158.226,171.621z"/>
					</g>
					<g>
						<path class="st22" d="M157.818,158.155l-1.039-1.039c-0.875-0.875-0.875-2.294,0-3.169l0,0c0.875-0.875,2.294-0.875,3.169,0
							l1.039,1.039c0.875,0.875,0.875,2.294,0,3.169h0C160.112,159.03,158.693,159.03,157.818,158.155z"/>
					</g>
					<g>
						<path class="st23" d="M160.987,154.986l-1.039-1.039c-0.056-0.056-0.113-0.107-0.173-0.156
							c0.715,0.88,0.664,2.177-0.156,2.996c-0.82,0.82-2.116,0.872-2.996,0.156c0.049,0.06,0.1,0.117,0.156,0.173l1.039,1.039
							c0.875,0.875,2.294,0.875,3.169,0C161.862,157.28,161.862,155.861,160.987,154.986z"/>
					</g>
					<g>
						<path class="st22" d="M164.428,153.981l-1.039-1.039c-0.875-0.875-0.875-2.294,0-3.169l0,0c0.875-0.875,2.294-0.875,3.169,0
							l1.039,1.039c0.875,0.875,0.875,2.294,0,3.169l0,0C166.722,154.856,165.303,154.856,164.428,153.981z"/>
					</g>
					<g>
						<path class="st23" d="M167.597,150.812l-1.039-1.039c-0.056-0.056-0.113-0.108-0.173-0.156
							c0.716,0.88,0.664,2.177-0.156,2.996c-0.82,0.82-2.116,0.872-2.996,0.156c0.049,0.06,0.1,0.118,0.156,0.173l1.039,1.039
							c0.875,0.875,2.294,0.875,3.169,0C168.472,153.106,168.472,151.687,167.597,150.812z"/>
					</g>
					<g>
						<path class="st22" d="M149.683,167.821l-1.039-1.039c-0.875-0.875-0.875-2.294,0-3.169l0,0c0.875-0.875,2.294-0.875,3.169,0
							l1.039,1.039c0.875,0.875,0.875,2.294,0,3.169l0,0C151.977,168.696,150.558,168.696,149.683,167.821z"/>
					</g>
					<g>
						<path class="st23" d="M152.852,164.651l-1.039-1.039c-0.056-0.056-0.113-0.108-0.173-0.156
							c0.716,0.88,0.664,2.177-0.156,2.996c-0.82,0.82-2.116,0.872-2.996,0.156c0.049,0.06,0.1,0.117,0.156,0.173l1.039,1.039
							c0.875,0.875,2.294,0.875,3.169,0C153.727,166.945,153.727,165.526,152.852,164.651z"/>
					</g>
					<g>
						<path class="st22" d="M165.65,170.581l-1.039-1.039c-0.875-0.875-0.875-2.294,0-3.169l0,0c0.875-0.875,2.294-0.875,3.169,0
							l1.039,1.039c0.875,0.875,0.875,2.294,0,3.169v0C167.945,171.457,166.526,171.457,165.65,170.581z"/>
					</g>
					<g>
						<path class="st23" d="M168.82,167.412l-1.039-1.039c-0.056-0.056-0.113-0.108-0.173-0.156c0.715,0.88,0.664,2.177-0.156,2.996
							c-0.82,0.82-2.116,0.872-2.996,0.156c0.049,0.06,0.101,0.118,0.156,0.173l1.039,1.039c0.875,0.875,2.294,0.875,3.169,0
							C169.695,169.706,169.695,168.287,168.82,167.412z"/>
					</g>
				</g>
			</g>
		</g>
	</g>
	<g>
		<g>
			<g>
				<g>
					<g>
						<path class="st15" d="M75.894,157.516c-0.723,0.723-1.896,0.723-2.619,0l-18.952-18.952c-0.723-0.723-0.723-1.896,0-2.619
							s1.896-0.723,2.619,0l18.952,18.952C76.618,155.62,76.618,156.793,75.894,157.516z"/>
					</g>
				</g>
				<g>
					<g>
						<path class="st15" d="M71.46,153.082L71.46,153.082c-0.347,0.347-0.819,0.542-1.31,0.542l-8.037,0
							c-1.023,0-1.852-0.829-1.852-1.852c0-1.023,0.829-1.852,1.852-1.852h6.185l0.001-6.186c0-1.023,0.829-1.852,1.852-1.852
							c1.023,0,1.852,0.829,1.852,1.852l0,8.038C72.003,152.264,71.807,152.735,71.46,153.082z"/>
					</g>
				</g>
				<g>
					<g>
						<path class="st19" d="M63.721,130.77c-0.464-0.211-1.17,0.256-1.864,1.14c-0.052-1.013-0.33-1.72-0.796-1.824
							c-0.466-0.104-1.018,0.417-1.496,1.312c-0.253-1.095-0.692-1.818-1.202-1.825c-0.67-0.009-1.252,1.219-1.461,2.915
							c-1.322-1.624-2.732-2.52-3.416-2.073c-0.516,0.337-0.497,1.36-0.045,2.641c-1.068-0.603-1.969-0.778-2.377-0.369
							c-0.408,0.408-0.234,1.309,0.369,2.377c-1.281-0.452-2.304-0.471-2.641,0.045c-0.447,0.684,0.449,2.094,2.073,3.416
							c-1.696,0.208-2.925,0.791-2.915,1.461c0.007,0.51,0.73,0.95,1.825,1.202c-0.894,0.478-1.416,1.03-1.312,1.496
							c0.104,0.466,0.811,0.744,1.824,0.796c-0.883,0.695-1.35,1.4-1.14,1.864c0.339,0.747,2.302,0.586,4.386-0.359
							c0.736-0.334,9.55,3.636,11.507,1.678c1.957-1.957-2.013-10.771-1.678-11.507C64.307,133.072,64.468,131.109,63.721,130.77z"
							/>
					</g>
				</g>
				<g>
					<path class="st15" d="M63.362,135.155c0.945-2.083,1.106-4.047,0.359-4.386c-0.464-0.21-1.17,0.256-1.864,1.14
						c-0.052-1.013-0.33-1.719-0.796-1.823c-0.466-0.104-1.018,0.417-1.496,1.312c-0.215-0.931-0.565-1.592-0.978-1.774
						c-0.069,0.176-0.144,0.353-0.225,0.532c-0.334,0.736,3.636,9.55,1.678,11.507s-10.771-2.012-11.507-1.678
						c-0.178,0.081-0.356,0.156-0.532,0.225c0.182,0.413,0.843,0.763,1.774,0.978c-0.894,0.478-1.416,1.03-1.312,1.496
						s0.811,0.744,1.824,0.796c-0.883,0.695-1.35,1.4-1.14,1.864c0.339,0.747,2.302,0.586,4.386-0.359
						c0.736-0.334,9.549,3.636,11.507,1.678S63.028,135.892,63.362,135.155z"/>
				</g>
				<g>
					<g>
						<g>
							<g>
								<path class="st19" d="M55.623,146.615c-0.271,0.144-0.309,0.651-0.144,1.307c-0.502-0.348-0.94-0.476-1.161-0.292
									c-0.221,0.184-0.176,0.638,0.074,1.195c-0.614-0.283-1.12-0.339-1.311-0.099c-0.251,0.315,0.12,1.045,0.851,1.769
									c-1.26,0.032-2.206,0.373-2.245,0.863c-0.029,0.37,0.465,0.737,1.241,0.994c-0.68,0.286-1.095,0.651-1.051,0.996
									c0.044,0.345,0.537,0.593,1.268,0.699c-0.687,0.444-1.072,0.924-0.951,1.274c0.161,0.465,1.162,0.557,2.39,0.27
									c-0.525,0.884-0.7,1.684-0.378,1.926c0.245,0.184,0.721,0.002,1.244-0.426c-0.102,0.602-0.031,1.053,0.23,1.175
									c0.26,0.122,0.653-0.112,1.05-0.575c0.005,0.676,0.17,1.158,0.468,1.229c0.48,0.114,1.127-0.881,1.443-2.221
									c0.112-0.474,5.247-3.209,5.035-4.862c-0.212-1.653-5.87-3.007-6.097-3.437C56.935,147.184,56.059,146.385,55.623,146.615z"
									/>
							</g>
						</g>
					</g>
					<g>
						<g>
							<path class="st15" d="M63.676,151.838c-0.081-0.63-0.952-1.216-2.012-1.724c-0.316,1.665-4.918,4.137-5.024,4.585
								c-0.317,1.34-0.963,2.334-1.443,2.22c-0.299-0.071-0.463-0.552-0.468-1.229c-0.138,0.161-0.276,0.294-0.408,0.395
								c-0.312,0.675-0.377,1.236-0.116,1.431c0.245,0.184,0.721,0.002,1.244-0.426c-0.102,0.602-0.031,1.053,0.23,1.175
								c0.26,0.122,0.653-0.112,1.05-0.575c0.005,0.676,0.17,1.158,0.468,1.229c0.48,0.114,1.127-0.881,1.443-2.22
								C58.753,156.226,63.888,153.49,63.676,151.838z"/>
						</g>
					</g>
					<g>
						<g>
							<g>
								<path class="st19" d="M64.956,137.282c0.144-0.271,0.651-0.309,1.307-0.144c-0.348-0.502-0.476-0.94-0.292-1.161
									c0.184-0.221,0.638-0.176,1.195,0.074c-0.283-0.614-0.339-1.12-0.099-1.311c0.315-0.251,1.045,0.12,1.769,0.851
									c0.032-1.26,0.373-2.206,0.863-2.245c0.37-0.029,0.737,0.465,0.994,1.241c0.286-0.68,0.651-1.095,0.996-1.051
									c0.345,0.044,0.593,0.537,0.699,1.268c0.444-0.687,0.924-1.072,1.274-0.951c0.465,0.161,0.557,1.162,0.27,2.39
									c0.884-0.525,1.684-0.7,1.926-0.378c0.184,0.245,0.002,0.721-0.426,1.244c0.602-0.102,1.053-0.031,1.175,0.23
									c0.122,0.26-0.112,0.653-0.575,1.05c0.676,0.005,1.158,0.17,1.229,0.468c0.114,0.48-0.881,1.127-2.221,1.443
									c-0.474,0.112-3.209,5.247-4.862,5.035c-1.653-0.212-3.007-5.87-3.437-6.097C65.525,138.594,64.726,137.718,64.956,137.282z
									"/>
							</g>
						</g>
					</g>
					<g>
						<g>
							<path class="st15" d="M77.261,138.856c-0.071-0.298-0.553-0.463-1.229-0.468c0.463-0.397,0.698-0.79,0.575-1.05
								c-0.122-0.26-0.573-0.331-1.175-0.23c0.428-0.523,0.611-0.999,0.426-1.244c-0.196-0.261-0.756-0.196-1.432,0.116
								c-0.1,0.132-0.234,0.27-0.395,0.408c0.676,0.006,1.158,0.17,1.229,0.468c0.114,0.48-0.881,1.127-2.221,1.444
								c-0.448,0.106-2.921,4.707-4.585,5.024c0.508,1.06,1.094,1.931,1.724,2.011c1.653,0.211,4.388-4.923,4.862-5.035
								C76.38,139.983,77.374,139.337,77.261,138.856z"/>
						</g>
					</g>
				</g>
			</g>
		</g>
		<g>
			<g>
				<g>
					<g>
						<path class="st15" d="M180.106,125.015c0.723,0.723,1.896,0.723,2.619,0l18.952-18.952c0.723-0.723,0.723-1.896,0-2.619
							c-0.723-0.723-1.896-0.723-2.619,0l-18.952,18.952C179.382,123.119,179.382,124.292,180.106,125.015z"/>
					</g>
				</g>
				<g>
					<g>
						<path class="st15" d="M184.54,120.581L184.54,120.581c0.347,0.347,0.819,0.542,1.31,0.542l8.037,0
							c1.023,0,1.852-0.829,1.852-1.852c0-1.023-0.829-1.852-1.852-1.852h-6.185l-0.001-6.186c0-1.023-0.829-1.852-1.852-1.852
							c-1.023,0-1.852,0.829-1.852,1.852l0,8.038C183.997,119.762,184.193,120.233,184.54,120.581z"/>
					</g>
				</g>
				<g>
					<g>
						<path class="st19" d="M192.279,98.268c0.464-0.211,1.17,0.256,1.864,1.14c0.052-1.013,0.33-1.72,0.796-1.824
							c0.466-0.104,1.018,0.417,1.496,1.312c0.253-1.095,0.692-1.818,1.202-1.825c0.67-0.009,1.252,1.219,1.461,2.915
							c1.322-1.624,2.732-2.521,3.416-2.073c0.516,0.337,0.497,1.36,0.045,2.641c1.068-0.603,1.969-0.778,2.377-0.369
							c0.408,0.408,0.234,1.309-0.369,2.377c1.281-0.452,2.304-0.471,2.641,0.045c0.447,0.684-0.449,2.094-2.073,3.416
							c1.696,0.208,2.925,0.791,2.915,1.461c-0.007,0.51-0.73,0.95-1.825,1.202c0.894,0.478,1.416,1.03,1.312,1.496
							c-0.104,0.466-0.811,0.744-1.824,0.796c0.883,0.694,1.35,1.4,1.14,1.864c-0.339,0.747-2.302,0.586-4.386-0.359
							c-0.736-0.334-9.55,3.636-11.507,1.678c-1.957-1.957,2.012-10.771,1.678-11.507
							C191.693,100.571,191.532,98.607,192.279,98.268z"/>
					</g>
				</g>
				<g>
					<path class="st15" d="M208.049,107.483c0.009-0.669-1.219-1.252-2.915-1.46c1.624-1.322,2.521-2.732,2.073-3.416
						c-0.337-0.516-1.36-0.497-2.641-0.045c0.603-1.067,0.778-1.969,0.369-2.377c-0.408-0.408-1.309-0.234-2.377,0.369
						c0.452-1.281,0.471-2.304-0.045-2.641c-0.065-0.043-0.137-0.073-0.215-0.092c0.178,0.737-0.696,2.005-2.165,3.201
						c1.696,0.208,2.925,0.791,2.915,1.46c-0.007,0.51-0.73,0.95-1.825,1.202c0.894,0.478,1.416,1.03,1.312,1.496
						s-0.811,0.744-1.824,0.796c0.883,0.694,1.35,1.4,1.14,1.864c-0.339,0.747-2.302,0.586-4.386-0.359
						c-0.432-0.196-3.642,1.088-6.618,1.79c-0.494,2.098-0.698,4.08,0.111,4.889c1.957,1.958,10.771-2.012,11.507-1.678
						c2.083,0.945,4.047,1.106,4.386,0.359c0.211-0.464-0.256-1.17-1.14-1.864c1.013-0.052,1.719-0.33,1.824-0.796
						s-0.417-1.018-1.312-1.496C207.319,108.433,208.042,107.993,208.049,107.483z"/>
				</g>
				<g>
					<g>
						<g>
							<g>
								<path class="st19" d="M200.377,114.114c0.271,0.144,0.309,0.651,0.144,1.307c0.502-0.348,0.94-0.476,1.161-0.292
									c0.221,0.184,0.176,0.638-0.074,1.195c0.614-0.283,1.12-0.339,1.311-0.099c0.251,0.315-0.12,1.045-0.851,1.769
									c1.26,0.032,2.206,0.373,2.245,0.863c0.029,0.37-0.465,0.737-1.241,0.994c0.68,0.286,1.095,0.651,1.051,0.996
									c-0.044,0.345-0.537,0.593-1.268,0.699c0.687,0.444,1.072,0.924,0.951,1.274c-0.161,0.465-1.162,0.557-2.39,0.27
									c0.525,0.884,0.7,1.684,0.378,1.926c-0.245,0.184-0.721,0.002-1.244-0.426c0.102,0.602,0.031,1.053-0.23,1.175
									c-0.26,0.122-0.653-0.112-1.05-0.575c-0.005,0.676-0.17,1.158-0.468,1.229c-0.48,0.114-1.127-0.881-1.443-2.221
									c-0.112-0.474-5.247-3.209-5.035-4.862c0.212-1.653,5.87-3.007,6.097-3.437
									C199.065,114.683,199.941,113.883,200.377,114.114z"/>
							</g>
						</g>
					</g>
					<g>
						<g>
							<path class="st15" d="M203.073,119.851c0.776-0.257,1.27-0.624,1.241-0.994c-0.039-0.49-0.985-0.832-2.245-0.863
								c0.731-0.724,1.101-1.453,0.851-1.769c-0.18-0.227-0.641-0.189-1.208,0.053c0.362,0.148,0.583,0.347,0.602,0.579
								c0.029,0.37-0.465,0.737-1.241,0.994c0.68,0.286,1.095,0.651,1.051,0.996c-0.044,0.345-0.537,0.593-1.268,0.699
								c0.687,0.444,1.072,0.924,0.951,1.274c-0.161,0.464-1.162,0.557-2.39,0.27c0.525,0.884,0.7,1.684,0.378,1.926
								c-0.245,0.185-0.721,0.002-1.244-0.426c0.102,0.602,0.031,1.053-0.23,1.175s-0.653-0.112-1.05-0.575
								c-0.003,0.309-0.038,0.578-0.105,0.785c0.112,0.097,0.181,0.173,0.193,0.223c0.317,1.34,0.963,2.334,1.443,2.221
								c0.299-0.071,0.463-0.553,0.468-1.229c0.398,0.463,0.79,0.698,1.05,0.575s0.331-0.573,0.23-1.175
								c0.523,0.428,0.999,0.611,1.244,0.426c0.322-0.242,0.147-1.042-0.378-1.926c1.227,0.287,2.229,0.194,2.39-0.27
								c0.121-0.351-0.264-0.831-0.951-1.274c0.73-0.106,1.224-0.354,1.268-0.699C204.168,120.502,203.753,120.137,203.073,119.851z
								"/>
						</g>
					</g>
					<g>
						<g>
							<g>
								<path class="st19" d="M191.044,104.78c-0.144-0.271-0.651-0.309-1.307-0.144c0.348-0.502,0.476-0.94,0.292-1.161
									s-0.638-0.176-1.195,0.074c0.283-0.614,0.339-1.12,0.099-1.311c-0.315-0.251-1.045,0.12-1.769,0.851
									c-0.032-1.26-0.373-2.206-0.863-2.245c-0.37-0.029-0.737,0.465-0.994,1.241c-0.286-0.68-0.651-1.095-0.996-1.051
									c-0.345,0.044-0.593,0.537-0.699,1.268c-0.444-0.687-0.924-1.072-1.274-0.951c-0.465,0.161-0.557,1.162-0.27,2.39
									c-0.884-0.525-1.684-0.7-1.926-0.378c-0.184,0.245-0.002,0.721,0.426,1.244c-0.602-0.102-1.053-0.031-1.175,0.23
									c-0.122,0.26,0.112,0.653,0.575,1.05c-0.676,0.005-1.158,0.17-1.229,0.468c-0.114,0.48,0.881,1.127,2.221,1.443
									c0.474,0.112,3.209,5.247,4.862,5.035s3.007-5.87,3.437-6.097C190.475,106.092,191.274,105.217,191.044,104.78z"/>
							</g>
						</g>
					</g>
					<g>
						<g>
							<path class="st15" d="M191.044,104.78c-0.143-0.271-0.651-0.309-1.307-0.144c0.348-0.501,0.476-0.94,0.292-1.161
								c-0.184-0.221-0.638-0.176-1.195,0.074c0.014-0.029,0.026-0.058,0.039-0.087c-0.295,0.411-0.878,0.885-1.614,1.275
								c-0.43,0.228-1.784,5.886-3.437,6.097c-0.218,0.028-0.456-0.038-0.704-0.173c0.909,1.188,1.926,2.272,2.704,2.173
								c1.653-0.211,3.007-5.87,3.437-6.097C190.475,106.093,191.274,105.217,191.044,104.78z"/>
						</g>
					</g>
				</g>
			</g>
		</g>
	</g>
</g>
</svg>
