<?xml version="1.0" encoding="utf-8"?>
<!-- Generator: Adobe Illustrator 24.0.0, SVG Export Plug-In . SVG Version: 6.00 Build 0)  -->
<svg version="1.1" id="Layer_1" xmlns="http://www.w3.org/2000/svg" xmlns:xlink="http://www.w3.org/1999/xlink" x="0px" y="0px"
	 viewBox="0 0 256 256" style="enable-background:new 0 0 256 256;" xml:space="preserve">
<style type="text/css">
	.st0{fill:#E63950;}
	.st1{fill:#D10028;}
	.st2{fill:#B7022D;}
	.st3{fill:#FCC4AE;}
	.st4{fill:#E8566F;}
	.st5{fill:#808285;}
	.st6{fill:#939598;}
	.st7{fill:#58595B;}
	.st8{fill:#414042;}
	.st9{fill:#8C3F0A;}
	.st10{fill:#7C3108;}
	.st11{fill:#6D2E03;}
	.st12{fill:#995222;}
	.st13{fill:#F79219;}
	.st14{fill:#EF7816;}
	.st15{fill:#FFC91D;}
	.st16{fill:#FFA91A;}
	.st17{fill:#648940;}
	.st18{fill:#5A7A39;}
	.st19{fill:#F1F2F2;}
	.st20{fill:#E6E7E8;}
	.st21{fill:#D1D3D4;}
	.st22{fill:#FFFFFF;}
	.st23{fill:#76A34F;}
	.st24{fill:#F2AD97;}
	.st25{fill:#E59076;}
	.st26{fill:#91B56B;}
	.st27{fill:#F7CB15;}
	.st28{fill:#377DE2;}
	.st29{fill:#2266D3;}
	.st30{fill:#478CF7;}
	.st31{fill:#5E9CF7;}
	.st32{fill:#FFD2C0;}
	.st33{fill:#27C1E6;}
	.st34{fill:#009ADD;}
	.st35{fill:#893ADD;}
	.st36{fill:#A54AF4;}
	.st37{fill:#B171F4;}
	.st38{fill:#827F7E;}
</style>
<g>
	<g>
		<g>
			<path class="st13" d="M141.189,26.734h-4.141c-13.883,0-25.137,11.254-25.137,25.137v59.081h32.328V29.784
				C144.239,28.1,142.874,26.734,141.189,26.734z"/>
		</g>
		<g>
			<path class="st14" d="M141.189,26.734h-4.141c-0.95,0-1.887,0.053-2.809,0.156v74.063h-22.328v10h32.328V29.784
				C144.239,28.1,142.874,26.734,141.189,26.734z"/>
		</g>
		<g>
			<g>
				<path class="st15" d="M154.216,40.952l4.011,1.027c13.449,3.444,21.559,17.139,18.115,30.588l-14.658,57.234l-31.317-8.021
					l20.138-78.631C150.923,41.518,152.585,40.534,154.216,40.952z"/>
			</g>
			<g>
				<path class="st16" d="M164.043,44.264c2.953,5.394,3.946,11.876,2.3,18.303l-14.658,57.234l-19.529-5.002l-1.788,6.981
					l31.317,8.021l14.658-57.234C179.256,61.191,173.902,49.64,164.043,44.264z"/>
			</g>
			<g>
				<path class="st13" d="M195.39,41.974l3.586,2.07c12.023,6.941,16.142,22.315,9.201,34.338l-29.54,51.165l-27.997-16.164
					l40.584-70.294C192.066,41.631,193.932,41.131,195.39,41.974z"/>
			</g>
			<g>
				<path class="st14" d="M198.977,44.044l-0.512-0.296c4.061,7.44,4.261,16.756-0.287,24.634l-29.54,51.166l-16.167-9.334
					l-1.83,3.17l27.997,16.164l29.54-51.166C215.119,66.359,211,50.986,198.977,44.044z"/>
			</g>
		</g>
		<g>
			<g>
				<path class="st15" d="M101.784,40.952l-4.011,1.027c-13.449,3.444-21.559,17.139-18.115,30.588l14.658,57.234l31.317-8.021
					L105.495,43.15C105.077,41.518,103.415,40.534,101.784,40.952z"/>
			</g>
			<g>
				<path class="st16" d="M105.495,43.15c-0.418-1.632-2.079-2.616-3.711-2.198l-4.011,1.027c-3.332,0.853-6.336,2.336-8.918,4.288
					l16.778,65.513l-14.952,3.829l3.635,14.191l31.317-8.021L105.495,43.15z"/>
			</g>
			<g>
				<path class="st13" d="M60.61,41.974l-3.586,2.07C45,50.986,40.881,66.359,47.822,78.382l29.54,51.165l27.997-16.164
					L64.776,43.09C63.934,41.631,62.068,41.131,60.61,41.974z"/>
			</g>
			<g>
				<path class="st14" d="M64.776,43.09c-0.842-1.459-2.708-1.958-4.166-1.116l-3.586,2.07c-1.522,0.879-2.918,1.893-4.18,3.019
					l32.517,56.321l-17.327,10.004l9.33,16.16l27.997-16.164L64.776,43.09z"/>
			</g>
		</g>
	</g>
	<g>
		<g>
			<path class="st0" d="M172.645,229.266H83.354c-4.845,0-8.993-3.473-9.844-8.243L54.168,112.644
				c-1.094-6.129,3.619-11.757,9.844-11.757h127.975c6.226,0,10.938,5.628,9.844,11.757L182.49,221.023
				C181.639,225.793,177.491,229.266,172.645,229.266z"/>
		</g>
	</g>
	<g>
		<path class="st4" d="M76.29,204.48c-0.971,0-1.79-0.7-1.96-1.65c-0.101-0.53,0.02-1.06,0.319-1.5c0.311-0.44,0.771-0.73,1.29-0.82
			c1.08-0.2,2.13,0.54,2.32,1.61c0.2,1.09-0.53,2.13-1.61,2.32C76.53,204.47,76.41,204.48,76.29,204.48z M74.89,196.6
			c-0.97,0-1.8-0.69-1.97-1.65L58.1,111.94c-0.06-0.36-0.09-0.73-0.09-1.08c0-1.88,0.88-3.21,1.4-3.83c0.409-0.5,1.96-2.14,4.6-2.14
			h66.68c1.11,0,2,0.9,2,2c0,1.1-0.89,2-2,2H64.01c-0.79,0-1.24,0.38-1.54,0.72c-0.17,0.21-0.47,0.65-0.46,1.25
			c0,0.12,0.01,0.24,0.03,0.38l14.81,83c0.01,0,0.01,0,0.01,0.01c0.19,1.08-0.54,2.12-1.619,2.32
			C75.12,196.59,75.01,196.6,74.89,196.6z"/>
	</g>
	<g>
		<path class="st1" d="M191.99,100.888c-0.001,0.578-0.052,1.165-0.158,1.757L172.49,211.023c-0.851,4.77-4.999,8.243-9.844,8.243
			H73.354c-0.053,0-0.106-0.001-0.158-0.002l0.314,1.759c0.851,4.77,4.999,8.243,9.844,8.243h89.291
			c4.845,0,8.993-3.473,9.844-8.243l19.342-108.378C202.926,106.516,198.215,100.889,191.99,100.888z"/>
	</g>
	<g>
		<path class="st2" d="M196.103,101.768c0.802,1.767,1.101,3.792,0.729,5.876L177.49,216.023c-0.851,4.77-4.999,8.243-9.844,8.243
			H78.354c-1.459,0-2.854-0.315-4.115-0.885c1.585,3.514,5.112,5.885,9.115,5.885h89.291c4.845,0,8.993-3.473,9.844-8.243
			l19.342-108.378C202.667,107.968,200.121,103.584,196.103,101.768z"/>
	</g>
	<g>
		<circle class="st1" cx="128" cy="165.077" r="27.007"/>
	</g>
</g>
</svg>
