<?xml version="1.0" encoding="utf-8"?>
<!-- Generator: Adobe Illustrator 24.0.0, SVG Export Plug-In . SVG Version: 6.00 Build 0)  -->
<svg version="1.1" id="Layer_1" xmlns="http://www.w3.org/2000/svg" xmlns:xlink="http://www.w3.org/1999/xlink" x="0px" y="0px"
	 viewBox="0 0 256 256" style="enable-background:new 0 0 256 256;" xml:space="preserve">
<style type="text/css">
	.st0{fill:#E63950;}
	.st1{fill:#D10028;}
	.st2{fill:#B7022D;}
	.st3{fill:#FCC4AE;}
	.st4{fill:#E8566F;}
	.st5{fill:#808285;}
	.st6{fill:#939598;}
	.st7{fill:#58595B;}
	.st8{fill:#414042;}
	.st9{fill:#8C3F0A;}
	.st10{fill:#7C3108;}
	.st11{fill:#6D2E03;}
	.st12{fill:#995222;}
	.st13{fill:#F79219;}
	.st14{fill:#EF7816;}
	.st15{fill:#FFC91D;}
	.st16{fill:#FFA91A;}
	.st17{fill:#648940;}
	.st18{fill:#5A7A39;}
	.st19{fill:#F1F2F2;}
	.st20{fill:#E6E7E8;}
	.st21{fill:#D1D3D4;}
	.st22{fill:#FFFFFF;}
	.st23{fill:#76A34F;}
	.st24{fill:#F2AD97;}
	.st25{fill:#E59076;}
	.st26{fill:#91B56B;}
	.st27{fill:#F7CB15;}
	.st28{fill:#377DE2;}
	.st29{fill:#2266D3;}
	.st30{fill:#478CF7;}
	.st31{fill:#5E9CF7;}
	.st32{fill:#FFD2C0;}
	.st33{fill:#27C1E6;}
	.st34{fill:#009ADD;}
	.st35{fill:#893ADD;}
	.st36{fill:#A54AF4;}
	.st37{fill:#B171F4;}
	.st38{fill:#827F7E;}
</style>
<g>
	<g>
		<path class="st24" d="M143.97,234.182h-31.94c-2.515,0-4.706-1.715-5.31-4.156l-20.855-84.258h84.27l-20.855,84.258
			C148.676,232.467,146.485,234.182,143.97,234.182z"/>
	</g>
	<g>
		<g>
			<path class="st3" d="M152.289,217.872l-50.518-8.297c-0.039-0.006-0.076-0.002-0.115-0.007l2.612,10.552l45.611,7.491
				L152.289,217.872z"/>
		</g>
		<g>
			<path class="st3" d="M94.793,181.386c-0.038-0.006-0.076-0.002-0.114-0.007l2.612,10.552l59.02,9.693l2.41-9.739L94.793,181.386z
				"/>
		</g>
		<g>
			<path class="st3" d="M87.816,153.198c-0.039-0.006-0.076-0.002-0.114-0.007l2.612,10.552l72.428,11.895l2.41-9.739
				L87.816,153.198z"/>
		</g>
	</g>
	<g>
		<path class="st25" d="M157.66,145.768l-18.38,74.258c-0.604,2.441-2.795,4.156-5.31,4.156h-28.697l1.446,5.844
			c0.604,2.441,2.795,4.156,5.31,4.156h31.94c2.515,0,4.706-1.715,5.31-4.156l20.855-84.258H157.66z"/>
	</g>
	<g>
		<path class="st24" d="M149.878,227.61l2.41-9.739l-11.988-1.969l-1.021,4.123c-0.604,2.441-2.795,4.156-5.31,4.156h-4.964
			L149.878,227.61z"/>
	</g>
	<g>
		<polygon class="st24" points="144.323,199.655 156.31,201.624 158.721,191.885 146.733,189.917 		"/>
	</g>
	<g>
		<polygon class="st24" points="150.754,173.669 162.742,175.638 165.153,165.9 153.165,163.931 		"/>
	</g>
	<g>
		<path class="st3" d="M187.903,122.08l-2.824,19.021c-0.398,2.682-2.7,4.667-5.411,4.667H76.332c-2.711,0-5.013-1.985-5.411-4.667
			l-2.824-19.021c-0.538-3.625,2.27-6.881,5.935-6.881h107.937C185.633,115.199,188.442,118.455,187.903,122.08z"/>
	</g>
	<g>
		<path class="st24" d="M181.969,115.198h-4.528l-2.361,15.903c-0.398,2.681-2.7,4.667-5.411,4.667H70.129l0.792,5.333
			c0.398,2.681,2.7,4.667,5.411,4.667h103.336c2.711,0,5.013-1.986,5.411-4.667l2.824-19.021
			C188.442,118.455,185.633,115.198,181.969,115.198z"/>
	</g>
	<g>
		<path class="st25" d="M182.893,115.278c0.09,0.581,0.102,1.185,0.011,1.802l-2.824,19.021c-0.398,2.681-2.7,4.667-5.411,4.667
			H71.332c-0.159,0-0.311-0.029-0.467-0.043l0.056,0.376c0.398,2.681,2.7,4.667,5.411,4.667h103.336
			c2.711,0,5.013-1.986,5.411-4.667l2.824-19.021C188.395,118.768,186.09,115.771,182.893,115.278z"/>
	</g>
	<g>
		<path class="st19" d="M176.201,80.418c0.6-3.067,0.922-6.234,0.922-9.477c0-27.13-21.993-49.123-49.123-49.123
			S78.877,43.811,78.877,70.941c0,3.243,0.323,6.41,0.922,9.477c-7.463,3.485-12.646,11.036-12.646,19.816
			c0,12.085,9.797,21.882,21.882,21.882c5.75,0,10.965-2.235,14.871-5.862c3.198,10.266,12.775,17.718,24.094,17.718
			s20.896-7.453,24.093-17.718c3.905,3.627,9.121,5.862,14.871,5.862c12.085,0,21.882-9.797,21.882-21.882
			C188.847,91.454,183.663,83.903,176.201,80.418z"/>
	</g>
	<g>
		<path class="st22" d="M73.149,102.23c-1.1,0-2-0.89-2-1.99c0-1.11,0.9-2,2-2c1.101,0,2,0.89,2,1.98c0,0.01,0,0.01,0,0.02
			C75.149,101.34,74.26,102.23,73.149,102.23z M75.14,94.57c-0.33,0-0.67-0.08-0.97-0.25c-0.46-0.26-0.8-0.68-0.95-1.19
			c-0.15-0.52-0.08-1.06,0.18-1.52c1.851-3.34,4.65-5.96,8.091-7.57l2.829-1.32l-0.59-3.07c-0.569-2.88-0.85-5.81-0.85-8.71
			c0-24.88,20.24-45.12,45.12-45.12c1.1,0,2,0.9,2,2s-0.9,2-2,2c-10.96,0-21.28,4.28-29.061,12.06
			c-7.779,7.78-12.06,18.1-12.06,29.06c0,2.65,0.26,5.32,0.77,7.94l0.9,4.61c0.18,0.9-0.28,1.8-1.12,2.19l-4.25,1.99
			c-2.63,1.23-4.87,3.32-6.29,5.87C76.54,94.18,75.87,94.57,75.14,94.57z"/>
	</g>
	<g>
		<g>
			<path class="st20" d="M176.201,80.418c0.6-3.067,0.922-6.234,0.922-9.477c0-23.207-16.098-42.642-37.732-47.781
				c10.833,9.011,17.732,22.589,17.732,37.781c0,3.243-0.323,6.41-0.922,9.477c7.463,3.485,12.646,11.036,12.646,19.816
				c0,12.085-9.797,21.882-21.882,21.882c-5.75,0-10.965-2.235-14.871-5.862c-3.198,10.266-12.775,17.718-24.094,17.718
				c-0.033,0-0.064-0.004-0.097-0.004c4.608,6.071,11.887,10.004,20.097,10.004c11.318,0,20.896-7.453,24.094-17.718
				c3.905,3.627,9.121,5.862,14.871,5.862c12.085,0,21.882-9.797,21.882-21.882C188.847,91.454,183.663,83.903,176.201,80.418z"/>
		</g>
	</g>
</g>
</svg>
