<?xml version="1.0" encoding="utf-8"?>
<!-- Generator: Adobe Illustrator 24.0.0, SVG Export Plug-In . SVG Version: 6.00 Build 0)  -->
<svg version="1.1" id="Layer_1" xmlns="http://www.w3.org/2000/svg" xmlns:xlink="http://www.w3.org/1999/xlink" x="0px" y="0px"
	 viewBox="0 0 256 256" style="enable-background:new 0 0 256 256;" xml:space="preserve">
<style type="text/css">
	.st0{fill:#E63950;}
	.st1{fill:#D10028;}
	.st2{fill:#B7022D;}
	.st3{fill:#FCC4AE;}
	.st4{fill:#E8566F;}
	.st5{fill:#808285;}
	.st6{fill:#939598;}
	.st7{fill:#58595B;}
	.st8{fill:#414042;}
	.st9{fill:#8C3F0A;}
	.st10{fill:#7C3108;}
	.st11{fill:#6D2E03;}
	.st12{fill:#995222;}
	.st13{fill:#F79219;}
	.st14{fill:#EF7816;}
	.st15{fill:#FFC91D;}
	.st16{fill:#FFA91A;}
	.st17{fill:#648940;}
	.st18{fill:#5A7A39;}
	.st19{fill:#F1F2F2;}
	.st20{fill:#E6E7E8;}
	.st21{fill:#D1D3D4;}
	.st22{fill:#FFFFFF;}
	.st23{fill:#76A34F;}
	.st24{fill:#F2AD97;}
	.st25{fill:#E59076;}
	.st26{fill:#91B56B;}
	.st27{fill:#F7CB15;}
	.st28{fill:#377DE2;}
	.st29{fill:#2266D3;}
	.st30{fill:#478CF7;}
	.st31{fill:#5E9CF7;}
	.st32{fill:#FFD2C0;}
	.st33{fill:#27C1E6;}
	.st34{fill:#009ADD;}
	.st35{fill:#893ADD;}
	.st36{fill:#A54AF4;}
	.st37{fill:#B171F4;}
	.st38{fill:#827F7E;}
</style>
<g>
	<g>
		<g>
			<path class="st19" d="M17.199,128L17.199,128c0-42.467,34.426-76.893,76.893-76.893h67.816c42.467,0,76.893,34.426,76.893,76.893
				v0c0,42.467-34.426,76.893-76.893,76.893H94.092C51.625,204.893,17.199,170.467,17.199,128z"/>
		</g>
		<g>
			<path class="st22" d="M23.2,130c-1.1,0-2-0.9-2-2c0-1.1,0.9-2,2-2s2,0.9,2,2C25.2,129.1,24.3,130,23.2,130z M23.65,122.02
				c-0.08,0-0.15,0-0.23-0.01c-0.53-0.06-1.01-0.33-1.34-0.74c-0.33-0.42-0.48-0.94-0.42-1.47c1.99-17.68,10.41-34.01,23.72-45.98
				c13.4-12.07,30.7-18.71,48.71-18.71h46.54c0.03,0,0.06,0,0.09,0h8c1.1,0,2,0.89,2,2c0,1.1-0.9,2-2,2H94.09
				c-35.11,0-64.54,26.28-68.46,61.13C25.52,121.26,24.66,122.02,23.65,122.02z"/>
		</g>
		<g>
			<path class="st20" d="M211.05,68.857c11.084,13.325,17.751,30.455,17.751,49.143v0c0,42.467-34.426,76.893-76.893,76.893H84.092
				c-18.687,0-35.818-6.667-49.143-17.751c14.105,16.956,35.363,27.751,59.143,27.751h67.816c42.467,0,76.893-34.426,76.893-76.893
				v0C238.801,104.22,228.007,82.962,211.05,68.857z"/>
		</g>
		<g>
			<path class="st21" d="M213.722,71.186c12.472,13.668,20.079,31.853,20.079,51.814v0c0,42.467-34.426,76.893-76.893,76.893H89.092
				c-19.961,0-38.146-7.607-51.814-20.079c14.062,15.41,34.309,25.079,56.814,25.079h67.816c42.467,0,76.893-34.426,76.893-76.893v0
				C238.801,105.494,229.132,85.247,213.722,71.186z"/>
		</g>
		<g>
			<path class="st22" d="M37.278,128L37.278,128c0-32.68,26.492-59.172,59.172-59.172h63.101c32.68,0,59.172,26.492,59.172,59.172v0
				c0,32.68-26.492,59.172-59.172,59.172H96.45C63.77,187.172,37.278,160.68,37.278,128z"/>
		</g>
	</g>
	<g>
		<g>
			<circle class="st1" cx="150.99" cy="71.186" r="16.992"/>
		</g>
		<g>
			<path class="st2" d="M160.239,56.927c2.829,4.361,3.627,9.96,1.669,15.204c-3.284,8.792-13.072,13.257-21.864,9.973
				c-1.182-0.442-2.287-1.001-3.304-1.66c1.914,2.951,4.757,5.335,8.304,6.66c8.792,3.284,18.58-1.182,21.864-9.973
				C169.75,69.522,166.787,61.166,160.239,56.927z"/>
		</g>
		<g>
			<circle class="st4" cx="150.99" cy="71.186" r="9.622"/>
		</g>
	</g>
	<g>
		<g>
			<path class="st13" d="M155.533,133.031h-2.465c-8.265,0-14.965,6.7-14.965,14.965v18.102c0,9.427,7.642,17.07,17.07,17.07h0
				c1.202,0,2.176-0.974,2.176-2.176v-46.145C157.348,133.844,156.535,133.031,155.533,133.031z"/>
		</g>
		<g>
			<path class="st14" d="M155.533,133.031h-2.465c-0.432,0-0.86,0.019-1.283,0.055v42.342c0,1.202-0.974,2.176-2.176,2.176
				c-3.288,0-6.359-0.93-8.965-2.541c3.008,4.864,8.39,8.105,14.529,8.105c1.202,0,2.176-0.974,2.176-2.176v-46.145
				C157.348,133.844,156.535,133.031,155.533,133.031z"/>
		</g>
		<g>
			<path class="st15" d="M131.67,141.495l-2.388,0.612c-8.006,2.051-12.835,10.203-10.784,18.21l4.491,17.536
				c2.339,9.133,11.638,14.64,20.771,12.301l0,0c1.164-0.298,1.866-1.484,1.568-2.648l-11.449-44.703
				C133.63,141.832,132.641,141.247,131.67,141.495z"/>
		</g>
		<g>
			<path class="st16" d="M145.328,187.507l-11.449-44.703c-0.249-0.971-1.238-1.557-2.209-1.308l-2.126,0.544l10.219,39.902
				c0.298,1.164-0.404,2.349-1.568,2.648c-4.678,1.198-9.399,0.337-13.207-2.015c3.817,6.198,11.349,9.48,18.771,7.579
				C144.924,189.856,145.626,188.671,145.328,187.507z"/>
		</g>
		<g>
			<path class="st15" d="M163.288,141.495l2.388,0.612c8.006,2.051,12.835,10.203,10.784,18.21l-4.491,17.536
				c-2.339,9.133-11.639,14.64-20.771,12.301l0,0c-1.164-0.298-1.866-1.484-1.568-2.648l11.449-44.703
				C161.327,141.832,162.316,141.247,163.288,141.495z"/>
		</g>
		<g>
			<path class="st16" d="M169.387,143.606c1.866,3.26,2.515,7.221,1.509,11.146l-4.491,17.536
				c-1.944,7.59-8.696,12.676-16.165,12.835l-0.61,2.383c-0.298,1.164,0.404,2.349,1.568,2.648
				c9.133,2.339,18.432-3.168,20.771-12.301l4.491-17.536C178.17,153.641,175.097,146.863,169.387,143.606z"/>
		</g>
		<g>
			<path class="st13" d="M187.8,142.104l2.135,1.233c7.158,4.132,9.61,13.285,5.478,20.442l-9.051,15.677
				c-4.714,8.164-15.153,10.962-23.318,6.248l0,0c-1.041-0.601-1.397-1.932-0.796-2.972l23.073-39.963
				C185.821,141.9,186.931,141.602,187.8,142.104z"/>
		</g>
		<g>
			<path class="st14" d="M189.935,143.336l-0.052-0.03c2.548,4.468,2.722,10.132-0.035,14.908l-9.051,15.677
				c-3.765,6.522-11.185,9.619-18.179,8.198l-0.371,0.642c-0.601,1.041-0.244,2.371,0.796,2.972
				c8.164,4.714,18.604,1.916,23.318-6.248l9.051-15.677C199.545,156.621,197.092,147.469,189.935,143.336z"/>
		</g>
	</g>
	<g>
		<g>
			<g>
				<path class="st16" d="M166.974,109.908v15.303c0,1.105-0.895,2-2,2h-2.356c-1.105,0-2-0.895-2-2v-15.303c0-1.104,0.895-2,2-2
					h2.356C166.079,107.908,166.974,108.803,166.974,109.908z"/>
			</g>
		</g>
		<g>
			<path class="st13" d="M164.974,107.908v15.303c0,1.105-0.895,2-2,2h-2.356c0,1.105,0.895,2,2,2h2.356c1.105,0,2-0.895,2-2
				v-15.303C166.974,108.803,166.079,107.908,164.974,107.908z"/>
		</g>
		<g>
			<g>
				<path class="st17" d="M160.032,101.183l-10.821,10.821c-0.781,0.781-2.047,0.781-2.828,0l-1.666-1.666
					c-0.781-0.781-0.781-2.047,0-2.828l10.821-10.821c0.781-0.781,2.047-0.781,2.828,0l1.666,1.666
					C160.813,99.136,160.813,100.402,160.032,101.183z"/>
			</g>
		</g>
		<g>
			<path class="st18" d="M160.032,98.355l-1.666-1.666c-0.057-0.057-0.116-0.109-0.177-0.157c0.62,0.785,0.568,1.927-0.157,2.651
				l-10.821,10.821c-0.725,0.725-1.867,0.776-2.651,0.157c0.048,0.061,0.1,0.121,0.157,0.177l1.666,1.666
				c0.781,0.781,2.047,0.781,2.828,0l10.821-10.821C160.813,100.402,160.813,99.136,160.032,98.355z"/>
		</g>
		<g>
			<g>
				<path class="st16" d="M186.298,72.294l-10.821,10.821c-0.781,0.781-2.047,0.781-2.828,0l-1.666-1.666
					c-0.781-0.781-0.781-2.047,0-2.828l10.821-10.821c0.781-0.781,2.047-0.781,2.828,0l1.666,1.666
					C187.079,70.246,187.079,71.513,186.298,72.294z"/>
			</g>
		</g>
		<g>
			<path class="st13" d="M186.261,69.465l-1.666-1.666c-0.057-0.057-0.116-0.108-0.177-0.157c0.62,0.785,0.568,1.927-0.157,2.651
				L173.44,81.115c-0.725,0.725-1.866,0.776-2.651,0.157c0.048,0.061,0.1,0.121,0.157,0.177l1.666,1.666
				c0.781,0.781,2.047,0.781,2.828,0l10.821-10.821C187.042,71.513,187.042,70.246,186.261,69.465z"/>
		</g>
		<g>
			<g>
				<path class="st17" d="M187.697,117.067l10.821,10.821c0.781,0.781,0.781,2.047,0,2.828l-1.666,1.666
					c-0.781,0.781-2.047,0.781-2.828,0l-10.821-10.821c-0.781-0.781-0.781-2.047,0-2.828l1.666-1.666
					C185.65,116.286,186.916,116.286,187.697,117.067z"/>
			</g>
		</g>
		<g>
			<path class="st18" d="M198.518,127.888l-2-2c0.781,0.781,0.781,2.047,0,2.828l-1.666,1.666c-0.781,0.781-2.047,0.781-2.828,0l2,2
				c0.781,0.781,2.047,0.781,2.828,0l1.666-1.666C199.299,129.935,199.3,128.669,198.518,127.888z"/>
		</g>
		<g>
			<g>
				<path class="st16" d="M167.234,87.945l10.821,10.821c0.781,0.781,0.781,2.047,0,2.828l-1.666,1.666
					c-0.781,0.781-2.047,0.781-2.828,0l-10.821-10.821c-0.781-0.781-0.781-2.047,0-2.828l1.666-1.666
					C165.186,87.164,166.453,87.164,167.234,87.945z"/>
			</g>
		</g>
		<g>
			<path class="st13" d="M178.055,98.766l-2-2c0.781,0.781,0.781,2.047,0,2.828l-1.666,1.666c-0.781,0.781-2.047,0.781-2.828,0l2,2
				c0.781,0.781,2.047,0.781,2.828,0l1.666-1.666C178.836,100.813,178.836,99.547,178.055,98.766z"/>
		</g>
		<g>
			<g>
				<path class="st16" d="M201.523,95.287v15.303c0,1.105-0.895,2-2,2h-2.356c-1.105,0-2-0.895-2-2V95.287c0-1.104,0.895-2,2-2
					h2.356C200.628,93.287,201.523,94.182,201.523,95.287z"/>
			</g>
		</g>
		<g>
			<path class="st13" d="M199.523,93.287v15.303c0,1.105-0.895,2-2,2h-2.356c0,1.105,0.895,2,2,2h2.356c1.105,0,2-0.895,2-2V95.287
				C201.523,94.182,200.628,93.287,199.523,93.287z"/>
		</g>
		<g>
			<g>
				<path class="st17" d="M188.264,106.171l-10.821,10.821c-0.781,0.781-2.047,0.781-2.828,0l-1.666-1.666
					c-0.781-0.781-0.781-2.047,0-2.828l10.821-10.821c0.781-0.781,2.047-0.781,2.828,0l1.666,1.666
					C189.045,104.124,189.045,105.39,188.264,106.171z"/>
			</g>
		</g>
		<g>
			<path class="st18" d="M188.264,103.343l-1.666-1.666c-0.057-0.057-0.116-0.109-0.177-0.157c0.62,0.785,0.568,1.927-0.157,2.651
				l-10.821,10.821c-0.725,0.725-1.867,0.776-2.651,0.157c0.048,0.061,0.1,0.121,0.157,0.177l1.666,1.666
				c0.781,0.781,2.047,0.781,2.828,0l10.821-10.821C189.045,105.39,189.045,104.124,188.264,103.343z"/>
		</g>
		<g>
			<circle class="st17" cx="205.851" cy="121.481" r="5.852"/>
		</g>
		<g>
			<path class="st18" d="M208.867,116.465c0.531,0.881,0.836,1.913,0.836,3.016c0,3.232-2.62,5.852-5.852,5.852
				c-1.103,0-2.135-0.305-3.016-0.836c1.024,1.7,2.887,2.836,5.016,2.836c3.232,0,5.852-2.62,5.852-5.852
				C211.703,119.352,210.566,117.489,208.867,116.465z"/>
		</g>
		<g>
			<circle class="st17" cx="176.249" cy="130.123" r="5.852"/>
		</g>
		<g>
			<path class="st18" d="M179.265,125.107c0.531,0.881,0.836,1.913,0.836,3.016c0,3.232-2.62,5.852-5.852,5.852
				c-1.103,0-2.135-0.305-3.016-0.836c1.024,1.7,2.887,2.836,5.016,2.836c3.232,0,5.852-2.62,5.852-5.852
				C182.102,127.994,180.965,126.131,179.265,125.107z"/>
		</g>
		<g>
			<circle class="st17" cx="185.88" cy="89.553" r="5.852"/>
		</g>
		<g>
			<path class="st18" d="M188.896,84.537c0.531,0.881,0.836,1.913,0.836,3.016c0,3.232-2.62,5.852-5.852,5.852
				c-1.103,0-2.135-0.305-3.016-0.836c1.024,1.7,2.887,2.836,5.016,2.836c3.232,0,5.852-2.62,5.852-5.852
				C191.733,87.424,190.596,85.561,188.896,84.537z"/>
		</g>
		<g>
			<circle class="st17" cx="151.871" cy="120.833" r="5.852"/>
		</g>
		<g>
			<path class="st18" d="M154.887,115.817c0.531,0.881,0.836,1.913,0.836,3.016c0,3.232-2.62,5.852-5.852,5.852
				c-1.103,0-2.135-0.305-3.016-0.836c1.024,1.7,2.887,2.836,5.016,2.836c3.232,0,5.852-2.62,5.852-5.852
				C157.723,118.705,156.586,116.841,154.887,115.817z"/>
		</g>
	</g>
	<g>
		<g>
			<path class="st3" d="M68.391,80.872L31.292,46.984c-0.816-0.745-0.873-2.01-0.128-2.826l4.781-5.235
				c0.745-0.816,2.01-0.873,2.826-0.128L75.87,72.684L68.391,80.872z"/>
		</g>
		<g>
			<path class="st24" d="M70.238,75.418L33.371,41.743l-2.207,2.416c-0.745,0.816-0.688,2.081,0.128,2.826l37.099,33.888
				l7.479-8.188l-1.709-1.561L70.238,75.418z"/>
		</g>
		<g>
			<path class="st9" d="M126.034,128.349c4.855-12.773,7.208-28.464-1.862-37.819C112.048,78.026,97.307,69.862,80.68,64.7
				c-10.743-3.335-27.186,4.263-22.698,17.631c1.437,4.28,4.363,7.949,5.727,12.253c2.257,7.116-0.443,15.521-6.421,19.992
				c-4.51,3.373-10.344,4.485-15.086,7.525c-9.763,6.258-12.359,19.547-9.367,30.156c3.217,11.406,15.998,19.757,26.959,22.07
				C90.084,180.352,116.092,155.152,126.034,128.349z"/>
		</g>
		<g>
			<path class="st10" d="M124.172,90.53c-10.348-10.673-22.61-18.176-36.318-23.356c5.849,3.778,11.31,8.192,16.318,13.356
				c9.07,9.355,6.717,25.045,1.862,37.819c-9.83,26.501-35.369,51.415-65.222,46.149c5.4,4.972,12.502,8.462,18.982,9.829
				c30.291,6.025,56.299-19.175,66.24-45.978C130.888,115.575,133.242,99.885,124.172,90.53z"/>
		</g>
	</g>
</g>
</svg>
