<?xml version="1.0" encoding="utf-8"?>
<!-- Generator: Adobe Illustrator 24.0.0, SVG Export Plug-In . SVG Version: 6.00 Build 0)  -->
<svg version="1.1" id="Layer_1" xmlns="http://www.w3.org/2000/svg" xmlns:xlink="http://www.w3.org/1999/xlink" x="0px" y="0px"
	 viewBox="0 0 256 256" style="enable-background:new 0 0 256 256;" xml:space="preserve">
<style type="text/css">
	.st0{fill:#E63950;}
	.st1{fill:#D10028;}
	.st2{fill:#B7022D;}
	.st3{fill:#FCC4AE;}
	.st4{fill:#E8566F;}
	.st5{fill:#808285;}
	.st6{fill:#939598;}
	.st7{fill:#58595B;}
	.st8{fill:#414042;}
	.st9{fill:#8C3F0A;}
	.st10{fill:#7C3108;}
	.st11{fill:#6D2E03;}
	.st12{fill:#995222;}
	.st13{fill:#F79219;}
	.st14{fill:#EF7816;}
	.st15{fill:#FFC91D;}
	.st16{fill:#FFA91A;}
	.st17{fill:#648940;}
	.st18{fill:#5A7A39;}
	.st19{fill:#F1F2F2;}
	.st20{fill:#E6E7E8;}
	.st21{fill:#D1D3D4;}
	.st22{fill:#FFFFFF;}
	.st23{fill:#76A34F;}
	.st24{fill:#F2AD97;}
	.st25{fill:#E59076;}
	.st26{fill:#91B56B;}
	.st27{fill:#F7CB15;}
	.st28{fill:#377DE2;}
	.st29{fill:#2266D3;}
	.st30{fill:#478CF7;}
	.st31{fill:#5E9CF7;}
	.st32{fill:#FFD2C0;}
	.st33{fill:#27C1E6;}
	.st34{fill:#009ADD;}
	.st35{fill:#893ADD;}
	.st36{fill:#A54AF4;}
	.st37{fill:#B171F4;}
	.st38{fill:#827F7E;}
</style>
<g>
	<g>
		<g>
			<g>
				<circle class="st5" cx="128" cy="128" r="95.306"/>
			</g>
			<g>
				<path class="st6" d="M38.69,130c-1.1,0-2-0.9-2-2c0-0.01,0-0.01,0.01-0.01c0-1.101,0.9-1.99,1.99-1.99c1.11,0,2,0.899,2,2
					C40.69,129.1,39.8,130,38.69,130z M39.05,122.01c-0.06,0-0.12,0-0.18,0c-1.1-0.1-1.91-1.08-1.81-2.17
					c2.01-22.61,12.37-43.57,29.17-59.03C83.14,45.26,105.07,36.7,128,36.7c1.1,0,2,0.89,2,1.989c0,1.11-0.9,2-2,2
					c-44.8,0-82.99,34.92-86.96,79.5C40.95,121.21,40.07,122.01,39.05,122.01z"/>
			</g>
			<g>
				<path class="st7" d="M190.206,55.794c14.395,16.694,23.099,38.434,23.099,62.206c0,52.636-42.67,95.306-95.306,95.306
					c-23.773,0-45.512-8.704-62.206-23.099c17.477,20.268,43.343,33.099,72.206,33.099c52.636,0,95.306-42.67,95.306-95.306
					C223.306,99.137,210.475,73.271,190.206,55.794z"/>
			</g>
			<g>
				<path class="st8" d="M192.845,58.155c15.799,17.01,25.461,39.799,25.461,64.845c0,52.636-42.67,95.306-95.306,95.306
					c-25.046,0-47.835-9.661-64.845-25.461c17.404,18.737,42.255,30.461,69.845,30.461c52.636,0,95.306-42.67,95.306-95.306
					C223.306,100.41,211.582,75.559,192.845,58.155z"/>
			</g>
		</g>
	</g>
	<g>
		<g>
			<path class="st7" d="M137.427,124.573h60.865c3.645,0,6.429-3.222,5.947-6.835c-4.57-34.274-31.702-61.407-65.976-65.977
				c-3.613-0.482-6.835,2.302-6.835,5.947v60.865C131.427,121.886,134.113,124.573,137.427,124.573z"/>
		</g>
		<g>
			<path class="st8" d="M204.239,117.738c-2.612-19.594-12.608-36.845-27.087-48.89c9.024,10.848,15.13,24.209,17.087,38.89
				c0.482,3.613-2.302,6.835-5.947,6.835h-56.865v4c0,3.314,2.686,6,6,6h60.865C201.937,124.573,204.721,121.351,204.239,117.738z"
				/>
		</g>
		<g>
			<path class="st17" d="M124.573,118.573V57.708c0-3.645-3.222-6.429-6.835-5.947c-34.274,4.57-61.407,31.702-65.976,65.977
				c-0.482,3.613,2.302,6.835,5.947,6.835h60.865C121.887,124.573,124.573,121.886,124.573,118.573z"/>
		</g>
		<g>
			<path class="st18" d="M117.738,51.761c-1.062,0.142-2.117,0.305-3.165,0.49v56.322c0,3.314-2.686,6-6,6H52.251
				c-0.184,1.048-0.348,2.103-0.49,3.165c-0.482,3.613,2.302,6.835,5.947,6.835h60.865c3.314,0,6-2.686,6-6V57.708
				C124.573,54.063,121.351,51.279,117.738,51.761z"/>
		</g>
		<g>
			<path class="st0" d="M118.573,131.427H57.708c-3.645,0-6.429,3.222-5.947,6.835c4.57,34.274,31.702,61.407,65.976,65.977
				c3.613,0.482,6.835-2.302,6.835-5.947v-60.865C124.573,134.114,121.887,131.427,118.573,131.427z"/>
		</g>
		<g>
			<path class="st1" d="M118.573,131.427h-4v56.865c0,3.645-3.222,6.429-6.835,5.947c-14.68-1.957-28.041-8.063-38.889-17.087
				c12.045,14.479,29.295,24.475,48.889,27.087c3.613,0.482,6.835-2.302,6.835-5.947v-60.865
				C124.573,134.114,121.887,131.427,118.573,131.427z"/>
		</g>
		<g>
			<path class="st16" d="M131.427,137.427v60.865c0,3.645,3.222,6.429,6.835,5.947c34.274-4.57,61.407-31.702,65.976-65.977
				c0.482-3.613-2.302-6.835-5.947-6.835h-60.865C134.113,131.427,131.427,134.114,131.427,137.427z"/>
		</g>
		<g>
			<path class="st13" d="M198.292,131.427h-4.543c-5.584,31.721-30.6,56.738-62.322,62.322v4.543c0,3.645,3.222,6.429,6.835,5.947
				c34.274-4.57,61.407-31.702,65.976-65.977C204.721,134.649,201.937,131.427,198.292,131.427z"/>
		</g>
	</g>
	<g>
		<g>
			<g>
				<g>
					<circle class="st10" cx="68.518" cy="149.778" r="18.126"/>
				</g>
				<g>
					<path class="st11" d="M75.323,132.973c0.852,2.101,1.321,4.398,1.321,6.805c0,10.01-8.115,18.126-18.126,18.126
						c-2.407,0-4.704-0.469-6.805-1.321c2.691,6.639,9.201,11.321,16.805,11.321c10.011,0,18.126-8.115,18.126-18.126
						C86.644,142.174,81.961,135.664,75.323,132.973z"/>
				</g>
				<g>
					<g>
						<path class="st12" d="M59.135,138.196l1.039-1.039c0.875-0.875,2.294-0.875,3.169,0l0,0c0.875,0.875,0.875,2.294,0,3.169
							l-1.039,1.039c-0.875,0.875-2.294,0.875-3.169,0l0,0C58.26,140.49,58.26,139.071,59.135,138.196z"/>
					</g>
					<g>
						<path class="st9" d="M63.344,137.157c-0.245-0.245-0.533-0.421-0.839-0.529c0.277,0.788,0.101,1.7-0.529,2.33l-1.039,1.039
							c-0.63,0.63-1.542,0.807-2.33,0.529c0.108,0.306,0.284,0.594,0.529,0.839c0.875,0.875,2.294,0.875,3.169,0l1.039-1.039
							C64.219,139.451,64.219,138.032,63.344,137.157z"/>
					</g>
					<g>
						<path class="st12" d="M63.025,160.045l1.039-1.039c0.875-0.875,2.294-0.875,3.169,0l0,0c0.875,0.875,0.875,2.294,0,3.169
							l-1.039,1.039c-0.875,0.875-2.294,0.875-3.169,0h0C62.15,162.339,62.15,160.92,63.025,160.045z"/>
					</g>
					<g>
						<path class="st9" d="M67.234,159.005c-0.245-0.245-0.533-0.421-0.839-0.529c0.277,0.788,0.101,1.7-0.529,2.33l-1.039,1.039
							c-0.63,0.63-1.542,0.806-2.33,0.529c0.108,0.306,0.284,0.594,0.529,0.839l0,0c0.875,0.875,2.294,0.875,3.169,0l1.039-1.039
							C68.109,161.3,68.109,159.881,67.234,159.005z"/>
					</g>
					<g>
						<path class="st12" d="M66.825,145.539l-1.039-1.039c-0.875-0.875-0.875-2.294,0-3.169v0c0.875-0.875,2.294-0.875,3.169,0
							l1.039,1.039c0.875,0.875,0.875,2.294,0,3.169h0C69.119,146.415,67.7,146.415,66.825,145.539z"/>
					</g>
					<g>
						<path class="st9" d="M69.995,142.37l-1.039-1.039c-0.056-0.056-0.113-0.107-0.173-0.156c0.715,0.88,0.664,2.177-0.156,2.996
							c-0.82,0.82-2.116,0.872-2.996,0.156c0.049,0.06,0.1,0.117,0.156,0.173l1.039,1.039c0.875,0.875,2.294,0.875,3.169,0
							C70.87,144.664,70.87,143.245,69.995,142.37z"/>
					</g>
					<g>
						<path class="st12" d="M73.435,141.365l-1.039-1.039c-0.875-0.875-0.875-2.294,0-3.169h0c0.875-0.875,2.294-0.875,3.169,0
							l1.039,1.039c0.875,0.875,0.875,2.294,0,3.169v0C75.729,142.24,74.31,142.24,73.435,141.365z"/>
					</g>
					<g>
						<path class="st9" d="M76.604,138.196l-1.039-1.039c-0.056-0.056-0.113-0.108-0.173-0.156c0.716,0.88,0.664,2.177-0.156,2.996
							c-0.82,0.82-2.116,0.872-2.996,0.156c0.049,0.06,0.1,0.118,0.156,0.173l1.039,1.039c0.875,0.875,2.294,0.875,3.169,0
							C77.48,140.49,77.48,139.071,76.604,138.196z"/>
					</g>
					<g>
						<path class="st12" d="M58.69,155.205l-1.039-1.039c-0.875-0.875-0.875-2.294,0-3.169h0c0.875-0.875,2.294-0.875,3.169,0
							l1.039,1.039c0.875,0.875,0.875,2.294,0,3.169h0C60.984,156.08,59.565,156.08,58.69,155.205z"/>
					</g>
					<g>
						<path class="st9" d="M61.859,152.035l-1.039-1.039c-0.056-0.056-0.113-0.108-0.173-0.156c0.716,0.88,0.664,2.177-0.156,2.996
							c-0.82,0.82-2.116,0.872-2.996,0.156c0.049,0.06,0.1,0.117,0.156,0.173l1.039,1.039c0.875,0.875,2.294,0.875,3.169,0
							C62.735,154.33,62.735,152.911,61.859,152.035z"/>
					</g>
					<g>
						<path class="st12" d="M74.658,157.966l-1.039-1.039c-0.875-0.875-0.875-2.294,0-3.169h0c0.875-0.875,2.294-0.875,3.169,0
							l1.039,1.039c0.875,0.875,0.875,2.294,0,3.169l0,0C76.952,158.841,75.533,158.841,74.658,157.966z"/>
					</g>
					<g>
						<path class="st9" d="M77.827,154.796l-1.039-1.039c-0.056-0.056-0.113-0.108-0.173-0.156c0.716,0.88,0.664,2.177-0.156,2.996
							c-0.82,0.82-2.116,0.872-2.996,0.156c0.049,0.06,0.101,0.118,0.156,0.173l1.039,1.039c0.875,0.875,2.294,0.875,3.169,0
							C78.702,157.09,78.702,155.671,77.827,154.796z"/>
					</g>
				</g>
			</g>
		</g>
	</g>
	<g>
		<g>
			<g>
				<g>
					<circle class="st10" cx="108.3" cy="148.253" r="18.126"/>
				</g>
				<g>
					<path class="st11" d="M115.105,131.448c0.852,2.101,1.321,4.398,1.321,6.805c0,10.01-8.115,18.126-18.126,18.126
						c-2.407,0-4.704-0.469-6.805-1.321c2.691,6.639,9.201,11.321,16.805,11.321c10.011,0,18.126-8.115,18.126-18.126
						C126.426,140.649,121.744,134.139,115.105,131.448z"/>
				</g>
				<g>
					<g>
						<path class="st12" d="M98.918,136.67l1.039-1.039c0.875-0.875,2.294-0.875,3.169,0l0,0c0.875,0.875,0.875,2.294,0,3.169
							l-1.039,1.039c-0.875,0.875-2.294,0.875-3.169,0l0,0C98.042,138.965,98.042,137.546,98.918,136.67z"/>
					</g>
					<g>
						<path class="st9" d="M103.126,135.631c-0.245-0.245-0.533-0.421-0.839-0.529c0.277,0.788,0.101,1.7-0.529,2.33l-1.039,1.039
							c-0.63,0.63-1.542,0.807-2.33,0.529c0.108,0.306,0.284,0.594,0.529,0.839c0.875,0.875,2.294,0.875,3.169,0l1.039-1.039
							C104.002,137.925,104.002,136.506,103.126,135.631z"/>
					</g>
					<g>
						<path class="st12" d="M102.808,158.519l1.039-1.039c0.875-0.875,2.294-0.875,3.169,0l0,0c0.875,0.875,0.875,2.294,0,3.169
							l-1.039,1.039c-0.875,0.875-2.294,0.875-3.169,0v0C101.932,160.813,101.932,159.394,102.808,158.519z"/>
					</g>
					<g>
						<path class="st9" d="M107.016,157.48c-0.245-0.245-0.533-0.421-0.839-0.529c0.277,0.788,0.101,1.7-0.529,2.33l-1.039,1.039
							c-0.63,0.63-1.542,0.806-2.33,0.529c0.108,0.306,0.284,0.594,0.529,0.839l0,0c0.875,0.875,2.294,0.875,3.169,0l1.039-1.039
							C107.891,159.774,107.891,158.355,107.016,157.48z"/>
					</g>
					<g>
						<path class="st12" d="M106.608,144.014l-1.039-1.039c-0.875-0.875-0.875-2.294,0-3.169h0c0.875-0.875,2.294-0.875,3.169,0
							l1.039,1.039c0.875,0.875,0.875,2.294,0,3.169l0,0C108.902,144.889,107.483,144.889,106.608,144.014z"/>
					</g>
					<g>
						<path class="st9" d="M109.777,140.845l-1.039-1.039c-0.056-0.056-0.113-0.107-0.173-0.156c0.716,0.88,0.664,2.177-0.156,2.996
							c-0.82,0.82-2.116,0.872-2.996,0.156c0.049,0.06,0.1,0.117,0.156,0.173l1.039,1.039c0.875,0.875,2.294,0.875,3.169,0
							C110.652,143.139,110.652,141.72,109.777,140.845z"/>
					</g>
					<g>
						<path class="st12" d="M113.217,139.84l-1.039-1.039c-0.875-0.875-0.875-2.294,0-3.169l0,0c0.875-0.875,2.294-0.875,3.169,0
							l1.039,1.039c0.875,0.875,0.875,2.294,0,3.169l0,0C115.512,140.715,114.093,140.715,113.217,139.84z"/>
					</g>
					<g>
						<path class="st9" d="M116.387,136.67l-1.039-1.039c-0.056-0.056-0.113-0.108-0.173-0.156c0.716,0.88,0.664,2.177-0.156,2.996
							s-2.116,0.872-2.996,0.156c0.049,0.06,0.1,0.118,0.156,0.173l1.039,1.039c0.875,0.875,2.294,0.875,3.169,0
							S117.262,137.546,116.387,136.67z"/>
					</g>
					<g>
						<path class="st12" d="M98.472,153.679l-1.039-1.039c-0.875-0.875-0.875-2.294,0-3.169h0c0.875-0.875,2.294-0.875,3.169,0
							l1.039,1.039c0.875,0.875,0.875,2.294,0,3.169l0,0C100.767,154.555,99.348,154.555,98.472,153.679z"/>
					</g>
					<g>
						<path class="st9" d="M101.642,150.51l-1.039-1.039c-0.056-0.056-0.113-0.108-0.173-0.156c0.716,0.88,0.664,2.177-0.156,2.996
							c-0.82,0.82-2.116,0.872-2.996,0.156c0.049,0.06,0.1,0.117,0.156,0.173l1.039,1.039c0.875,0.875,2.294,0.875,3.169,0
							C102.517,152.804,102.517,151.385,101.642,150.51z"/>
					</g>
					<g>
						<path class="st12" d="M114.44,156.44l-1.039-1.039c-0.875-0.875-0.875-2.294,0-3.169l0,0c0.875-0.875,2.294-0.875,3.169,0
							l1.039,1.039c0.875,0.875,0.875,2.294,0,3.169h0C116.734,157.315,115.315,157.315,114.44,156.44z"/>
					</g>
					<g>
						<path class="st9" d="M117.61,153.271l-1.039-1.039c-0.056-0.056-0.113-0.108-0.173-0.156c0.716,0.88,0.664,2.177-0.156,2.996
							c-0.82,0.82-2.116,0.872-2.996,0.156c0.049,0.06,0.101,0.118,0.156,0.173l1.039,1.039c0.875,0.875,2.294,0.875,3.169,0
							C118.485,155.565,118.485,154.146,117.61,153.271z"/>
					</g>
				</g>
			</g>
		</g>
	</g>
	<g>
		<g>
			<g>
				<g>
					<circle class="st10" cx="89.547" cy="181.996" r="18.126"/>
				</g>
				<g>
					<path class="st11" d="M96.352,165.191c0.852,2.101,1.321,4.398,1.321,6.805c0,10.01-8.115,18.126-18.126,18.126
						c-2.407,0-4.704-0.469-6.805-1.321c2.691,6.639,9.201,11.321,16.805,11.321c10.011,0,18.126-8.115,18.126-18.126
						C107.673,174.392,102.99,167.882,96.352,165.191z"/>
				</g>
				<g>
					<g>
						<path class="st12" d="M80.164,170.414l1.039-1.039c0.875-0.875,2.294-0.875,3.169,0l0,0c0.875,0.875,0.875,2.294,0,3.169
							l-1.039,1.039c-0.875,0.875-2.294,0.875-3.169,0l0,0C79.289,172.708,79.289,171.289,80.164,170.414z"/>
					</g>
					<g>
						<path class="st9" d="M84.373,169.375c-0.245-0.245-0.533-0.421-0.839-0.529c0.277,0.788,0.101,1.7-0.529,2.33l-1.039,1.039
							c-0.63,0.63-1.542,0.807-2.33,0.529c0.108,0.307,0.284,0.594,0.529,0.839c0.875,0.875,2.294,0.875,3.169,0l1.039-1.039
							C85.248,171.669,85.248,170.25,84.373,169.375z"/>
					</g>
					<g>
						<path class="st12" d="M84.054,192.263l1.039-1.039c0.875-0.875,2.294-0.875,3.169,0h0c0.875,0.875,0.875,2.294,0,3.169
							l-1.039,1.039c-0.875,0.875-2.294,0.875-3.169,0l0,0C83.179,194.557,83.179,193.138,84.054,192.263z"/>
					</g>
					<g>
						<path class="st9" d="M88.263,191.224c-0.245-0.245-0.533-0.421-0.839-0.529c0.277,0.788,0.101,1.7-0.529,2.33l-1.039,1.039
							c-0.63,0.63-1.542,0.807-2.33,0.529c0.108,0.307,0.284,0.594,0.529,0.839l0,0c0.875,0.875,2.294,0.875,3.169,0l1.039-1.039
							C89.138,193.518,89.138,192.099,88.263,191.224z"/>
					</g>
					<g>
						<path class="st12" d="M87.854,177.758l-1.039-1.039c-0.875-0.875-0.875-2.294,0-3.169l0,0c0.875-0.875,2.294-0.875,3.169,0
							l1.039,1.039c0.875,0.875,0.875,2.294,0,3.169l0,0C90.148,178.633,88.729,178.633,87.854,177.758z"/>
					</g>
					<g>
						<path class="st9" d="M91.024,174.588l-1.039-1.039c-0.056-0.056-0.113-0.107-0.173-0.156c0.716,0.88,0.664,2.177-0.156,2.996
							s-2.116,0.872-2.996,0.156c0.049,0.06,0.1,0.117,0.156,0.173l1.039,1.039c0.875,0.875,2.294,0.875,3.169,0
							S91.899,175.463,91.024,174.588z"/>
					</g>
					<g>
						<path class="st12" d="M94.464,173.583l-1.039-1.039c-0.875-0.875-0.875-2.294,0-3.169l0,0c0.875-0.875,2.294-0.875,3.169,0
							l1.039,1.039c0.875,0.875,0.875,2.294,0,3.169h0C96.758,174.459,95.339,174.459,94.464,173.583z"/>
					</g>
					<g>
						<path class="st9" d="M97.633,170.414l-1.039-1.039c-0.056-0.056-0.113-0.108-0.173-0.156c0.715,0.88,0.664,2.177-0.156,2.996
							s-2.116,0.872-2.996,0.156c0.049,0.06,0.1,0.118,0.156,0.173l1.039,1.039c0.875,0.875,2.294,0.875,3.169,0
							C98.509,172.708,98.509,171.289,97.633,170.414z"/>
					</g>
					<g>
						<path class="st12" d="M79.719,187.423l-1.039-1.039c-0.875-0.875-0.875-2.294,0-3.169l0,0c0.875-0.875,2.294-0.875,3.169,0
							l1.039,1.039c0.875,0.875,0.875,2.294,0,3.169h0C82.013,188.298,80.594,188.298,79.719,187.423z"/>
					</g>
					<g>
						<path class="st9" d="M82.889,184.253l-1.039-1.039c-0.056-0.056-0.113-0.108-0.173-0.156c0.716,0.88,0.664,2.177-0.156,2.996
							c-0.82,0.82-2.116,0.872-2.996,0.156c0.049,0.06,0.1,0.117,0.156,0.173l1.039,1.039c0.875,0.875,2.294,0.875,3.169,0
							C83.764,186.548,83.764,185.129,82.889,184.253z"/>
					</g>
					<g>
						<path class="st12" d="M95.687,190.184l-1.039-1.039c-0.875-0.875-0.875-2.294,0-3.169l0,0c0.875-0.875,2.294-0.875,3.169,0
							l1.039,1.039c0.875,0.875,0.875,2.294,0,3.169l0,0C97.981,191.059,96.562,191.059,95.687,190.184z"/>
					</g>
					<g>
						<path class="st9" d="M98.856,187.014l-1.039-1.039c-0.056-0.056-0.113-0.108-0.173-0.156c0.716,0.88,0.664,2.177-0.156,2.996
							c-0.82,0.82-2.116,0.872-2.996,0.156c0.049,0.06,0.101,0.118,0.156,0.173l1.039,1.039c0.875,0.875,2.294,0.875,3.169,0
							S99.731,187.889,98.856,187.014z"/>
					</g>
				</g>
			</g>
		</g>
	</g>
	<g>
		<g>
			<g>
				<path class="st26" d="M60.22,79.767c-2.957,4.234-1.922,10.064,2.312,13.021c3.22,2.249,7.361,2.188,10.462,0.169
					c0.591,1.923,1.805,3.67,3.582,4.912c2.599,1.815,5.799,2.126,8.567,1.116c0.005,2.947,1.398,5.844,3.997,7.659
					c4.234,2.957,10.064,1.922,13.021-2.312c0.446-0.639,0.801-1.314,1.068-2.01c3.627,0.865,7.575-0.502,9.839-3.743
					c2.957-4.234,1.922-10.064-2.312-13.021c-2.649-1.85-5.922-2.137-8.726-1.057c-0.476-2.238-1.768-4.307-3.791-5.72
					c-2.832-1.978-6.378-2.17-9.301-0.812c0.268-3.211-1.132-6.475-3.965-8.453c-4.234-2.957-10.064-1.922-13.021,2.312
					c-0.917,1.313-1.45,2.779-1.623,4.266C66.63,75.093,62.54,76.445,60.22,79.767z"/>
			</g>
		</g>
		<g>
			<g>
				<path class="st23" d="M110.755,85.558c-0.782-0.546-1.619-0.955-2.483-1.234c0.866,2.688,0.51,5.735-1.232,8.229
					c-2.264,3.242-6.212,4.608-9.839,3.743c-0.267,0.696-0.622,1.371-1.068,2.01c-2.41,3.451-6.729,4.777-10.537,3.547
					c0.604,1.875,1.803,3.576,3.543,4.791c4.234,2.957,10.064,1.922,13.021-2.312c0.446-0.639,0.801-1.314,1.068-2.01
					c3.627,0.865,7.575-0.502,9.839-3.743C116.024,94.345,114.989,88.515,110.755,85.558z"/>
			</g>
		</g>
		<g>
			<g>
				<path class="st23" d="M64.307,98.231c-2.5,3.579-1.625,8.507,1.954,11.007c2.722,1.901,6.223,1.85,8.843,0.143
					c0.5,1.626,1.525,3.103,3.028,4.152c2.197,1.534,4.902,1.797,7.242,0.943c0.004,2.491,1.182,4.94,3.379,6.475
					c3.579,2.5,8.507,1.625,11.007-1.954c0.377-0.54,0.677-1.111,0.903-1.699c3.066,0.731,6.403-0.424,8.317-3.164
					c2.5-3.579,1.625-8.507-1.954-11.007c-2.239-1.564-5.006-1.807-7.376-0.893c-0.402-1.892-1.494-3.641-3.205-4.835
					c-2.394-1.672-5.392-1.834-7.863-0.687c0.227-2.715-0.957-5.473-3.351-7.146c-3.579-2.5-8.507-1.625-11.007,1.954
					c-0.775,1.11-1.225,2.349-1.372,3.606C69.725,94.279,66.269,95.422,64.307,98.231z"/>
			</g>
		</g>
		<g>
			<g>
				<path class="st17" d="M107.026,103.126c-0.881-0.615-1.844-1.025-2.833-1.242c0.456,2.081,0.076,4.338-1.24,6.222
					c-1.914,2.74-5.251,3.895-8.317,3.164c-0.226,0.588-0.526,1.159-0.903,1.699c-1.884,2.698-5.148,3.859-8.173,3.197
					c0.411,1.872,1.498,3.6,3.193,4.784c3.579,2.5,8.507,1.625,11.007-1.954c0.377-0.54,0.677-1.111,0.903-1.699
					c3.066,0.731,6.403-0.424,8.317-3.164C111.48,110.554,110.605,105.626,107.026,103.126z"/>
			</g>
		</g>
		<g>
			<g>
				<path class="st23" d="M74.941,65.885c-2.5,3.579-1.625,8.507,1.954,11.007c2.722,1.901,6.223,1.85,8.844,0.143
					c0.5,1.626,1.525,3.103,3.028,4.152c2.197,1.534,4.902,1.797,7.242,0.943c0.004,2.491,1.182,4.94,3.379,6.475
					c3.579,2.5,8.507,1.625,11.007-1.954c0.377-0.54,0.677-1.111,0.903-1.699c3.066,0.731,6.403-0.424,8.317-3.164
					c2.5-3.579,1.625-8.507-1.954-11.007c-2.239-1.564-5.006-1.807-7.376-0.893c-0.402-1.892-1.494-3.641-3.205-4.835
					c-2.394-1.672-5.392-1.834-7.863-0.687c0.227-2.715-0.957-5.473-3.351-7.146c-3.579-2.5-8.507-1.625-11.007,1.954
					c-0.775,1.11-1.225,2.349-1.372,3.606C80.359,61.933,76.902,63.076,74.941,65.885z"/>
			</g>
		</g>
		<g>
			<g>
				<path class="st17" d="M117.659,70.78c-0.881-0.615-1.844-1.025-2.833-1.242c0.456,2.081,0.076,4.338-1.24,6.222
					c-1.914,2.74-5.251,3.895-8.317,3.164c-0.226,0.588-0.526,1.159-0.903,1.699c-1.884,2.698-5.148,3.859-8.173,3.197
					c0.411,1.872,1.498,3.6,3.193,4.784c3.579,2.5,8.507,1.625,11.007-1.954c0.377-0.54,0.677-1.111,0.903-1.699
					c3.066,0.731,6.403-0.424,8.317-3.164C122.113,78.207,121.239,73.279,117.659,70.78z"/>
			</g>
		</g>
	</g>
	<g>
		<path class="st13" d="M143.294,156.434c2.057-2.057,4.583-3.357,7.234-3.9c0.923-0.189,1.647-0.913,1.836-1.836
			c0.544-2.651,1.844-5.177,3.9-7.234c4.219-4.219,10.415-5.255,15.604-3.108c0.571,0.236,1.045-0.507,0.583-0.917
			c-0.166-0.147-0.336-0.291-0.511-0.432c-5.263-4.254-12.944-4.181-18.131,0.166c-2.614,2.191-4.233,5.066-4.858,8.106
			c-0.191,0.928-0.915,1.652-1.843,1.843c-3.039,0.625-5.915,2.244-8.105,4.857c-4.347,5.187-4.421,12.867-0.167,18.131
			c0.141,0.175,0.285,0.345,0.432,0.511c0.409,0.462,1.153-0.012,0.917-0.583C138.04,166.849,139.076,160.653,143.294,156.434z"/>
	</g>
	<g>
		<path class="st14" d="M173.688,155.833c-2.59,2.59-5.773,4.228-9.112,4.913c-1.163,0.239-2.074,1.149-2.313,2.313
			c-0.685,3.339-2.322,6.522-4.913,9.112c-5.314,5.314-13.118,6.619-19.655,3.915c-0.719-0.297-1.316,0.639-0.734,1.155
			c0.209,0.185,0.424,0.367,0.644,0.544c6.63,5.358,16.304,5.266,22.837-0.21c3.292-2.759,5.332-6.382,6.119-10.21
			c0.24-1.169,1.153-2.081,2.322-2.322c3.828-0.787,7.45-2.826,10.209-6.118c5.476-6.533,5.569-16.208,0.21-22.838
			c-0.178-0.22-0.359-0.434-0.544-0.644c-0.516-0.582-1.452,0.015-1.155,0.734C180.307,142.715,179.002,150.519,173.688,155.833z"/>
	</g>
	<g>
		<g>
			<g>
				<path class="st0" d="M173.406,99.269l-5.852-5.852c-3.479-3.479-3.479-9.119,0-12.597l10.071-10.071
					c3.479-3.479,9.119-3.479,12.597,0l5.852,5.852c3.479,3.479,3.479,9.119,0,12.597l-10.071,10.071
					C182.524,102.748,176.884,102.748,173.406,99.269z"/>
			</g>
		</g>
		<g>
			<path class="st1" d="M196.075,76.6l-5-5c3.479,3.479,3.479,9.119,0,12.597l-10.071,10.071c-3.479,3.479-9.119,3.479-12.597,0l5,5
				c3.479,3.479,9.119,3.479,12.597,0l10.071-10.071C199.553,85.719,199.553,80.079,196.075,76.6z"/>
		</g>
		<g>
			<g>
				<path class="st15" d="M139.095,85.9l-5.852-5.852c-3.479-3.479-3.479-9.119,0-12.597l10.071-10.071
					c3.479-3.479,9.119-3.479,12.597,0l5.852,5.852c3.479,3.479,3.479,9.119,0,12.597L151.693,85.9
					C148.214,89.379,142.574,89.379,139.095,85.9z"/>
			</g>
		</g>
		<g>
			<path class="st13" d="M161.764,63.231l-5.852-5.852c0,0,0,0-0.001,0l0.852,0.852c3.479,3.479,3.479,9.119,0,12.597L146.693,80.9
				c-3.479,3.479-9.119,3.479-12.597,0l5,5c3.479,3.479,9.119,3.479,12.597,0l10.071-10.072
				C165.243,72.35,165.243,66.71,161.764,63.231z"/>
		</g>
		<g>
			<g>
				<circle class="st11" cx="154.907" cy="97.092" r="26.907"/>
			</g>
			<g>
				<circle class="st9" cx="154.907" cy="97.092" r="16.954"/>
			</g>
			<g>
				<g>
					<path class="st16" d="M164.93,87.495c-4.072-1.27-8.142,1.807-8.148,6.073c-0.018,11.821,7.59,22.783,19.467,26.488
						c11.877,3.705,24.368-0.987,31.075-10.722c2.42-3.513,0.821-8.358-3.251-9.628L164.93,87.495z"/>
				</g>
			</g>
			<g>
				<path class="st14" d="M204.073,99.706l-0.735-0.229c0.316,1.607,0.021,3.354-1.015,4.858
					c-6.706,9.734-19.197,14.427-31.075,10.722c-3.228-1.007-6.127-2.564-8.657-4.515c3.355,4.347,8.016,7.756,13.657,9.515
					c11.877,3.705,24.368-0.987,31.075-10.722C209.744,105.821,208.145,100.976,204.073,99.706z"/>
			</g>
		</g>
	</g>
</g>
</svg>
