<?xml version="1.0" encoding="utf-8"?>
<!-- Generator: Adobe Illustrator 24.0.0, SVG Export Plug-In . SVG Version: 6.00 Build 0)  -->
<svg version="1.1" id="Layer_1" xmlns="http://www.w3.org/2000/svg" xmlns:xlink="http://www.w3.org/1999/xlink" x="0px" y="0px"
	 viewBox="0 0 512 512" style="enable-background:new 0 0 512 512;" xml:space="preserve">
<style type="text/css">
	.st0{fill:#D7E6F0;}
	.st1{fill:#A5C3DC;}
	.st2{fill:#F06423;}
	.st3{fill:#FAA019;}
	.st4{fill:#FFD205;}
	.st5{fill:#91C83C;}
	.st6{fill:#5FAA46;}
	.st7{fill:#555A6E;}
	.st8{fill:#463C4B;}
	.st9{fill:#FFBE28;}
	.st10{fill:#A55023;}
	.st11{fill:#D26E28;}
	.st12{fill:#F28A39;}
	.st13{fill:#4B8C41;}
	.st14{fill:#69A041;}
	.st15{fill:#91B945;}
	.st16{fill:#FFFFFF;}
	.st17{fill:#F04B37;}
	.st18{fill:#AFD763;}
	.st19{fill:#E1322D;}
	.st20{fill:#5AD7FF;}
	.st21{fill:#A5FFFF;}
	.st22{fill:#23AAE6;}
	.st23{fill:#F0915A;}
	.st24{fill:#FAB991;}
	.st25{fill:#D2643C;}
	.st26{fill:#6E788C;}
	.st27{fill:#9B5FAA;}
	.st28{fill:#643773;}
	.st29{fill:#F5826E;}
	.st30{fill:#C81E14;}
	.st31{fill:#FAA037;}
	.st32{fill:#F57828;}
	.st33{fill:#D65A0A;}
	.st34{fill:#FFF050;}
	.st35{fill:#FFD23C;}
	.st36{fill:#FFFF50;}
	.st37{fill:#F5871E;}
	.st38{fill:#FAA01E;}
	.st39{fill:#FF6955;}
	.st40{fill:#FF8773;}
	.st41{fill:#BEDC5A;}
	.st42{fill:#BE5000;}
	.st43{fill:#D7322D;}
	.st44{fill:#FAF0DC;}
	.st45{fill:#FFBE55;}
	.st46{fill:#DC6E1E;}
	.st47{fill:#804B8F;}
	.st48{fill:#4182C3;}
	.st49{fill:#64AFE1;}
	.st50{fill:#FABE19;}
	.st51{fill:#8CAAC8;}
	.st52{fill:#737079;}
	.st53{fill:#96AAB9;}
	.st54{fill:#9BD2F0;}
	.st55{fill:#78D2F0;}
	.st56{fill:#C8E66E;}
	.st57{fill:#FADCBE;}
	.st58{fill:#8C3C14;}
	.st59{fill:#46783C;}
	.st60{fill:#784687;}
	.st61{fill:#96BEDC;}
	.st62{fill:#FFAA5A;}
	.st63{fill:#50C3EB;}
	.st64{fill:#D7E6E6;}
	.st65{fill:#FF6E50;}
	.st66{fill:#FF9682;}
</style>
<g>
	<g>
		<path class="st0" d="M321.494,53.557C302.555,39.516,279.576,32,256,32l0,0c-23.576,0-46.555,7.516-65.494,21.557
			C135.484,94.351,32,196.057,32,384l0,0c0,53.02,42.98,96,96,96h256c53.02,0,96-42.98,96-96l0,0
			C480,196.057,376.516,94.351,321.494,53.557z"/>
	</g>
	<g>
		<path class="st1" d="M358.685,96L358.685,96c-20.376,0-32.033,23.13-20.001,39.574C379.71,191.647,416,272.702,416,384
			c0,0.097,0,0.194,0,0.292c-0.052,17.422-14.286,31.656-31.708,31.708c-0.097,0-0.194,0-0.292,0H128
			c-46.313,0-84.966-32.795-94.003-76.43c-1.302,14.233-1.996,29.028-1.997,44.401C31.997,436.999,74.972,480,128,480h256
			c52.916,0,95.973-42.827,96-95.743c0.067-134.325-52.717-224.63-102.951-280.149C372.359,98.924,365.675,96,358.685,96z"/>
	</g>
	<g>
		<g>
			<circle class="st1" cx="224" cy="93.333" r="8"/>
		</g>
		<g>
			<circle class="st1" cx="256" cy="109.333" r="8"/>
		</g>
		<g>
			<circle class="st1" cx="98.667" cy="333.333" r="8"/>
		</g>
		<g>
			<circle class="st1" cx="157.333" cy="170.667" r="8"/>
		</g>
		<g>
			<circle class="st1" cx="128" cy="157.333" r="8"/>
		</g>
		<g>
			<circle class="st1" cx="152" cy="133.333" r="8"/>
		</g>
	</g>
	<g>
		<g>
			<circle class="st1" cx="354.667" cy="274.667" r="8"/>
		</g>
		<g>
			<circle class="st1" cx="338.667" cy="306.667" r="8"/>
		</g>
		<g>
			<circle class="st1" cx="258.667" cy="322.667" r="8"/>
		</g>
		<g>
			<circle class="st1" cx="274.667" cy="213.333" r="8"/>
		</g>
		<g>
			<circle class="st1" cx="101.333" cy="368" r="8"/>
		</g>
		<g>
			<circle class="st1" cx="322.667" cy="194.667" r="8"/>
		</g>
	</g>
	<g>
		<path class="st7" d="M352,288H160c-17.673,0-32,14.327-32,32v160h256V320C384,302.327,369.673,288,352,288z"/>
	</g>
	<g>
		<path class="st26" d="M136,480c-4.418,0-8-3.582-8-8V320c0-17.645,14.355-32,32-32h192c4.418,0,8,3.582,8,8s-3.582,8-8,8H160
			c-8.822,0-16,7.178-16,16v152C144,476.418,140.418,480,136,480z"/>
	</g>
	<g>
		<rect x="128" y="416" class="st8" width="256" height="64"/>
	</g>
</g>
</svg>
