<?xml version="1.0" encoding="utf-8"?>
<!-- Generator: Adobe Illustrator 24.0.0, SVG Export Plug-In . SVG Version: 6.00 Build 0)  -->
<svg version="1.1" id="Layer_1" xmlns="http://www.w3.org/2000/svg" xmlns:xlink="http://www.w3.org/1999/xlink" x="0px" y="0px"
	 viewBox="0 0 512 512" style="enable-background:new 0 0 512 512;" xml:space="preserve">
<style type="text/css">
	.st0{fill:#D7E6F0;}
	.st1{fill:#A5C3DC;}
	.st2{fill:#F06423;}
	.st3{fill:#FAA019;}
	.st4{fill:#FFD205;}
	.st5{fill:#91C83C;}
	.st6{fill:#5FAA46;}
	.st7{fill:#555A6E;}
	.st8{fill:#463C4B;}
	.st9{fill:#FFBE28;}
	.st10{fill:#A55023;}
	.st11{fill:#D26E28;}
	.st12{fill:#F28A39;}
	.st13{fill:#4B8C41;}
	.st14{fill:#69A041;}
	.st15{fill:#91B945;}
	.st16{fill:#FFFFFF;}
	.st17{fill:#F04B37;}
	.st18{fill:#AFD763;}
	.st19{fill:#E1322D;}
	.st20{fill:#5AD7FF;}
	.st21{fill:#A5FFFF;}
	.st22{fill:#23AAE6;}
	.st23{fill:#F0915A;}
	.st24{fill:#FAB991;}
	.st25{fill:#D2643C;}
	.st26{fill:#6E788C;}
	.st27{fill:#9B5FAA;}
	.st28{fill:#643773;}
	.st29{fill:#F5826E;}
	.st30{fill:#C81E14;}
	.st31{fill:#FAA037;}
	.st32{fill:#F57828;}
	.st33{fill:#D65A0A;}
	.st34{fill:#FFF050;}
	.st35{fill:#FFD23C;}
	.st36{fill:#FFFF50;}
	.st37{fill:#F5871E;}
	.st38{fill:#FAA01E;}
	.st39{fill:#FF6955;}
	.st40{fill:#FF8773;}
	.st41{fill:#BEDC5A;}
	.st42{fill:#BE5000;}
	.st43{fill:#D7322D;}
	.st44{fill:#FAF0DC;}
	.st45{fill:#FFBE55;}
	.st46{fill:#DC6E1E;}
	.st47{fill:#804B8F;}
	.st48{fill:#4182C3;}
	.st49{fill:#64AFE1;}
	.st50{fill:#FABE19;}
	.st51{fill:#8CAAC8;}
	.st52{fill:#737079;}
	.st53{fill:#96AAB9;}
	.st54{fill:#9BD2F0;}
	.st55{fill:#78D2F0;}
	.st56{fill:#C8E66E;}
	.st57{fill:#FADCBE;}
	.st58{fill:#8C3C14;}
	.st59{fill:#46783C;}
	.st60{fill:#784687;}
	.st61{fill:#96BEDC;}
	.st62{fill:#FFAA5A;}
	.st63{fill:#50C3EB;}
	.st64{fill:#D7E6E6;}
	.st65{fill:#FF6E50;}
	.st66{fill:#FF9682;}
</style>
<g>
	<g>
		<circle class="st0" cx="256" cy="256" r="240"/>
	</g>
	<g>
		<g>
			<circle class="st1" cx="256" cy="256" r="192"/>
		</g>
	</g>
	<g>
		<circle class="st3" cx="256" cy="256" r="32"/>
	</g>
	<g>
		<g>
			<g>
				<circle class="st35" cx="200" cy="159.005" r="80"/>
			</g>
			<g>
				<circle class="st3" cx="200" cy="159.005" r="64"/>
			</g>
			<g>
				<circle class="st35" cx="200" cy="159.005" r="48"/>
			</g>
			<g>
				<circle class="st32" cx="200" cy="159.005" r="32"/>
			</g>
		</g>
		<g>
			<g>
				<circle class="st35" cx="312" cy="159.005" r="80"/>
			</g>
			<g>
				<circle class="st3" cx="312" cy="159.005" r="64"/>
			</g>
			<g>
				<circle class="st35" cx="312" cy="159.005" r="48"/>
			</g>
			<g>
				<circle class="st32" cx="312" cy="159.005" r="32"/>
			</g>
		</g>
		<g>
			<g>
				<circle class="st35" cx="256" cy="144" r="80"/>
			</g>
			<g>
				<circle class="st3" cx="256" cy="144" r="64"/>
			</g>
			<g>
				<circle class="st35" cx="256" cy="144" r="48"/>
			</g>
		</g>
		<g>
			<g>
				<circle class="st35" cx="144" cy="256" r="80"/>
			</g>
			<g>
				<circle class="st3" cx="144" cy="256" r="64"/>
			</g>
			<g>
				<circle class="st35" cx="144" cy="256" r="48"/>
			</g>
			<g>
				<circle class="st32" cx="144" cy="256" r="32"/>
			</g>
		</g>
		<g>
			<g>
				<circle class="st35" cx="159.005" cy="200" r="80"/>
			</g>
			<g>
				<circle class="st3" cx="159.005" cy="200" r="64"/>
			</g>
			<g>
				<circle class="st35" cx="159.005" cy="200" r="48"/>
			</g>
		</g>
		<g>
			<g>
				<circle class="st35" cx="200" cy="352.995" r="80"/>
			</g>
			<g>
				<circle class="st3" cx="200" cy="352.995" r="64"/>
			</g>
			<g>
				<circle class="st35" cx="200" cy="352.995" r="48"/>
			</g>
			<g>
				<circle class="st32" cx="200" cy="352.995" r="32"/>
			</g>
		</g>
		<g>
			<g>
				<circle class="st35" cx="159.005" cy="312" r="80"/>
			</g>
			<g>
				<circle class="st3" cx="159.005" cy="312" r="64"/>
			</g>
			<g>
				<circle class="st35" cx="159.005" cy="312" r="48"/>
			</g>
		</g>
		<g>
			<g>
				<circle class="st35" cx="312" cy="352.995" r="80"/>
			</g>
			<g>
				<circle class="st3" cx="312" cy="352.995" r="64"/>
			</g>
			<g>
				<circle class="st35" cx="312" cy="352.995" r="48"/>
			</g>
			<g>
				<circle class="st32" cx="312" cy="352.995" r="32"/>
			</g>
		</g>
		<g>
			<g>
				<circle class="st35" cx="256" cy="368" r="80"/>
			</g>
			<g>
				<circle class="st3" cx="256" cy="368" r="64"/>
			</g>
			<g>
				<circle class="st35" cx="256" cy="368" r="48"/>
			</g>
		</g>
		<g>
			<g>
				<circle class="st35" cx="368" cy="256" r="80"/>
			</g>
			<g>
				<circle class="st3" cx="368" cy="256" r="64"/>
			</g>
			<g>
				<circle class="st35" cx="368" cy="256" r="48"/>
			</g>
			<g>
				<circle class="st32" cx="368" cy="256" r="32"/>
			</g>
		</g>
		<g>
			<g>
				<circle class="st35" cx="352.995" cy="312" r="80"/>
			</g>
			<g>
				<circle class="st3" cx="352.995" cy="312" r="64"/>
			</g>
			<g>
				<circle class="st35" cx="352.995" cy="312" r="48"/>
			</g>
		</g>
		<g>
			<g>
				<circle class="st35" cx="352.995" cy="200" r="80"/>
			</g>
			<g>
				<circle class="st3" cx="352.995" cy="200" r="64"/>
			</g>
			<g>
				<circle class="st35" cx="352.995" cy="200" r="48"/>
			</g>
		</g>
	</g>
	<g>
		<circle class="st3" cx="159.005" cy="312" r="32"/>
	</g>
	<g>
		<circle class="st3" cx="256" cy="368" r="32"/>
	</g>
	<g>
		<circle class="st3" cx="352.995" cy="312" r="32"/>
	</g>
	<g>
		<circle class="st3" cx="352.995" cy="200" r="32"/>
	</g>
	<g>
		<circle class="st3" cx="256" cy="144" r="32"/>
	</g>
	<g>
		<g>
			<circle class="st35" cx="256" cy="208" r="80"/>
		</g>
		<g>
			<circle class="st3" cx="256" cy="208" r="64"/>
		</g>
		<g>
			<circle class="st35" cx="256" cy="208" r="48"/>
		</g>
		<g>
			<circle class="st3" cx="256" cy="208" r="32"/>
		</g>
	</g>
	<g>
		<g>
			<circle class="st35" cx="256" cy="304" r="80"/>
		</g>
		<g>
			<circle class="st3" cx="256" cy="304" r="64"/>
		</g>
		<g>
			<circle class="st35" cx="256" cy="304" r="48"/>
		</g>
		<g>
			<circle class="st3" cx="256" cy="304" r="32"/>
		</g>
	</g>
	<g>
		<circle class="st3" cx="159.005" cy="200" r="32"/>
	</g>
	<g>
		<g>
			<circle class="st35" cx="208" cy="256" r="80"/>
		</g>
		<g>
			<circle class="st3" cx="208" cy="256" r="64"/>
		</g>
		<g>
			<circle class="st35" cx="208" cy="256" r="48"/>
		</g>
		<g>
			<circle class="st3" cx="208" cy="256" r="32"/>
		</g>
		<g>
			<circle class="st35" cx="208" cy="256" r="16"/>
		</g>
	</g>
	<g>
		<g>
			<circle class="st35" cx="304" cy="256" r="80"/>
		</g>
		<g>
			<circle class="st3" cx="304" cy="256" r="64"/>
		</g>
		<g>
			<circle class="st35" cx="304" cy="256" r="48"/>
		</g>
		<g>
			<circle class="st3" cx="304" cy="256" r="32"/>
		</g>
		<g>
			<circle class="st35" cx="304" cy="256" r="16"/>
		</g>
	</g>
	<g>
		<g>
			<circle class="st6" cx="305.333" cy="338.829" r="4"/>
		</g>
		<g>
			<circle class="st6" cx="318.667" cy="310.669" r="4"/>
		</g>
		<g>
			<circle class="st6" cx="248.255" cy="322.828" r="4"/>
		</g>
		<g>
			<circle class="st6" cx="273.332" cy="294.668" r="4"/>
		</g>
		<g>
			<circle class="st6" cx="265.189" cy="363.099" r="4"/>
		</g>
		<g>
			<circle class="st6" cx="233.334" cy="347.844" r="4"/>
		</g>
	</g>
	<g>
		<g>
			<circle class="st6" cx="198.396" cy="334.667" r="4"/>
		</g>
		<g>
			<circle class="st6" cx="170.236" cy="321.333" r="4"/>
		</g>
		<g>
			<circle class="st6" cx="182.395" cy="391.745" r="4"/>
		</g>
		<g>
			<circle class="st6" cx="154.235" cy="366.668" r="4"/>
		</g>
		<g>
			<circle class="st6" cx="222.666" cy="374.811" r="4"/>
		</g>
		<g>
			<circle class="st6" cx="207.411" cy="406.666" r="4"/>
		</g>
	</g>
	<g>
		<g>
			<circle class="st17" cx="280" cy="146.667" r="16"/>
		</g>
		<g>
			<circle class="st17" cx="381.333" cy="208" r="16"/>
		</g>
		<g>
			<circle class="st17" cx="176" cy="218.667" r="16"/>
		</g>
		<g>
			<circle class="st17" cx="136" cy="306.667" r="16"/>
		</g>
		<g>
			<circle class="st17" cx="250.667" cy="368" r="16"/>
		</g>
		<g>
			<circle class="st17" cx="373.333" cy="344" r="16"/>
		</g>
		<g>
			<circle class="st17" cx="136" cy="178.667" r="16"/>
		</g>
		<g>
			<circle class="st17" cx="306.667" cy="216" r="16"/>
		</g>
	</g>
	<g>
		<g>
			<circle class="st6" cx="324" cy="285.494" r="4"/>
		</g>
		<g>
			<circle class="st6" cx="337.333" cy="257.333" r="4"/>
		</g>
		<g>
			<circle class="st6" cx="266.922" cy="269.493" r="4"/>
		</g>
		<g>
			<circle class="st6" cx="291.999" cy="241.332" r="4"/>
		</g>
		<g>
			<circle class="st6" cx="283.856" cy="309.763" r="4"/>
		</g>
		<g>
			<circle class="st6" cx="252.001" cy="294.509" r="4"/>
		</g>
	</g>
	<g>
		<g>
			<circle class="st6" cx="238.667" cy="206.396" r="4"/>
		</g>
		<g>
			<circle class="st6" cx="252" cy="178.236" r="4"/>
		</g>
		<g>
			<circle class="st6" cx="181.589" cy="190.395" r="4"/>
		</g>
		<g>
			<circle class="st6" cx="206.666" cy="162.235" r="4"/>
		</g>
		<g>
			<circle class="st6" cx="198.523" cy="230.666" r="4"/>
		</g>
		<g>
			<circle class="st6" cx="166.668" cy="215.411" r="4"/>
		</g>
	</g>
	<g>
		<g>
			<circle class="st6" cx="206.667" cy="325.496" r="4"/>
		</g>
		<g>
			<circle class="st6" cx="220" cy="297.335" r="4"/>
		</g>
		<g>
			<circle class="st6" cx="149.589" cy="309.495" r="4"/>
		</g>
		<g>
			<circle class="st6" cx="174.666" cy="281.334" r="4"/>
		</g>
		<g>
			<circle class="st6" cx="166.523" cy="349.765" r="4"/>
		</g>
		<g>
			<circle class="st6" cx="134.668" cy="334.511" r="4"/>
		</g>
	</g>
	<g>
		<g>
			<circle class="st6" cx="414.667" cy="277.496" r="4"/>
		</g>
		<g>
			<circle class="st6" cx="428" cy="249.335" r="4"/>
		</g>
		<g>
			<circle class="st6" cx="357.589" cy="261.495" r="4"/>
		</g>
		<g>
			<circle class="st6" cx="382.666" cy="233.334" r="4"/>
		</g>
		<g>
			<circle class="st6" cx="374.523" cy="301.765" r="4"/>
		</g>
		<g>
			<circle class="st6" cx="342.668" cy="286.511" r="4"/>
		</g>
	</g>
	<g>
		<g>
			<circle class="st6" cx="325.946" cy="116.45" r="4"/>
		</g>
		<g>
			<circle class="st6" cx="297.785" cy="103.117" r="4"/>
		</g>
		<g>
			<circle class="st6" cx="309.945" cy="173.528" r="4"/>
		</g>
		<g>
			<circle class="st6" cx="281.784" cy="148.451" r="4"/>
		</g>
		<g>
			<circle class="st6" cx="350.216" cy="156.594" r="4"/>
		</g>
		<g>
			<circle class="st6" cx="334.961" cy="188.449" r="4"/>
		</g>
	</g>
	<g>
		<g>
			<circle class="st6" cx="200.163" cy="124" r="4"/>
		</g>
		<g>
			<circle class="st6" cx="172.002" cy="110.667" r="4"/>
		</g>
		<g>
			<circle class="st6" cx="184.162" cy="181.078" r="4"/>
		</g>
		<g>
			<circle class="st6" cx="156.001" cy="156.001" r="4"/>
		</g>
		<g>
			<circle class="st6" cx="224.432" cy="164.144" r="4"/>
		</g>
		<g>
			<circle class="st6" cx="209.177" cy="195.999" r="4"/>
		</g>
	</g>
	<g>
		<g>
			<circle class="st0" cx="332.134" cy="180.006" r="4"/>
		</g>
		<g>
			<circle class="st0" cx="297.961" cy="201.59" r="4"/>
		</g>
		<g>
			<circle class="st0" cx="264.495" cy="152.321" r="4"/>
		</g>
		<g>
			<circle class="st0" cx="211.596" cy="195.29" r="4"/>
		</g>
		<g>
			<circle class="st0" cx="186.084" cy="180.481" r="4"/>
		</g>
		<g>
			<circle class="st0" cx="243.207" cy="156.712" r="4"/>
		</g>
		<g>
			<circle class="st0" cx="188.598" cy="288.893" r="4"/>
		</g>
		<g>
			<circle class="st0" cx="153.334" cy="275.279" r="4"/>
		</g>
		<g>
			<circle class="st0" cx="179.715" cy="221.138" r="4"/>
		</g>
		<g>
			<circle class="st0" cx="316.549" cy="301.304" r="4"/>
		</g>
		<g>
			<circle class="st0" cx="266.125" cy="273.893" r="4"/>
		</g>
		<g>
			<circle class="st0" cx="274.378" cy="233.482" r="4"/>
		</g>
		<g>
			<circle class="st0" cx="364.54" cy="282.111" r="4"/>
		</g>
		<g>
			<circle class="st0" cx="312.791" cy="246.598" r="4"/>
		</g>
		<g>
			<circle class="st0" cx="356.893" cy="226.624" r="4"/>
		</g>
		<g>
			<circle class="st0" cx="204.415" cy="353.332" r="4"/>
		</g>
		<g>
			<circle class="st0" cx="180.188" cy="338.077" r="4"/>
		</g>
		<g>
			<circle class="st0" cx="226.451" cy="280.869" r="4"/>
		</g>
		<g>
			<circle class="st0" cx="282.782" cy="350.555" r="4"/>
		</g>
		<g>
			<circle class="st0" cx="289.557" cy="325.23" r="4"/>
		</g>
		<g>
			<circle class="st0" cx="330.461" cy="330.577" r="4"/>
		</g>
	</g>
	<g>
		<g>
			<circle class="st0" cx="307.593" cy="154.352" r="4"/>
		</g>
		<g>
			<circle class="st0" cx="273.421" cy="175.936" r="4"/>
		</g>
		<g>
			<circle class="st0" cx="239.954" cy="126.667" r="4"/>
		</g>
		<g>
			<circle class="st0" cx="187.056" cy="169.636" r="4"/>
		</g>
		<g>
			<circle class="st0" cx="161.543" cy="154.826" r="4"/>
		</g>
		<g>
			<circle class="st0" cx="218.666" cy="131.058" r="4"/>
		</g>
		<g>
			<circle class="st0" cx="164.058" cy="263.239" r="4"/>
		</g>
		<g>
			<circle class="st0" cx="128.793" cy="249.625" r="4"/>
		</g>
		<g>
			<circle class="st0" cx="155.175" cy="195.484" r="4"/>
		</g>
		<g>
			<circle class="st0" cx="292.008" cy="275.649" r="4"/>
		</g>
		<g>
			<circle class="st0" cx="241.584" cy="248.239" r="4"/>
		</g>
		<g>
			<circle class="st0" cx="249.837" cy="207.828" r="4"/>
		</g>
		<g>
			<circle class="st0" cx="340" cy="256.457" r="4"/>
		</g>
		<g>
			<circle class="st0" cx="288.25" cy="220.944" r="4"/>
		</g>
		<g>
			<circle class="st0" cx="332.352" cy="200.97" r="4"/>
		</g>
		<g>
			<circle class="st0" cx="179.874" cy="327.678" r="4"/>
		</g>
		<g>
			<circle class="st0" cx="155.648" cy="312.423" r="4"/>
		</g>
		<g>
			<circle class="st0" cx="201.91" cy="255.215" r="4"/>
		</g>
		<g>
			<circle class="st0" cx="258.241" cy="324.9" r="4"/>
		</g>
		<g>
			<circle class="st0" cx="265.016" cy="299.576" r="4"/>
		</g>
		<g>
			<circle class="st0" cx="305.92" cy="304.923" r="4"/>
		</g>
	</g>
	<g>
		<path class="st14" d="M269.172,209.857l-7.515-7.515c-3.124-3.122-8.189-3.123-11.314,0l-7.515,7.516
			C235.846,216.842,232,226.125,232,236s3.846,19.158,10.829,26.143l7.515,7.515c1.562,1.562,3.609,2.343,5.657,2.343
			c2.048,0,4.095-0.781,5.657-2.343l7.515-7.515C276.154,255.159,280,245.875,280,236S276.154,216.841,269.172,209.857z"/>
		<path class="st13" d="M325.657,266.343l-7.515-7.515C311.159,251.846,301.875,248,292,248s-19.159,3.846-26.143,10.828
			l-7.515,7.515c-3.124,3.125-3.124,8.189,0,11.314l7.515,7.515C272.841,292.154,282.125,296,292,296s19.159-3.846,26.143-10.828
			l7.515-7.515C328.781,274.532,328.781,269.468,325.657,266.343z"/>
		<path class="st13" d="M253.657,266.343l-7.514-7.514C239.16,251.846,229.876,248,220,248s-19.16,3.846-26.142,10.828l-7.515,7.515
			c-3.125,3.125-3.125,8.189,0,11.314l7.514,7.514C200.84,292.154,210.124,296,220,296s19.16-3.846,26.142-10.828l7.515-7.515
			C256.781,274.532,256.781,269.468,253.657,266.343z"/>
		<g>
			<path class="st13" d="M256,304L256,304c-4.418,0-8-3.582-8-8v-24h16v24C264,300.418,260.418,304,256,304z"/>
		</g>
	</g>
</g>
</svg>
