<?xml version="1.0" encoding="utf-8"?>
<!-- Generator: Adobe Illustrator 24.0.0, SVG Export Plug-In . SVG Version: 6.00 Build 0)  -->
<svg version="1.1" id="Layer_1" xmlns="http://www.w3.org/2000/svg" xmlns:xlink="http://www.w3.org/1999/xlink" x="0px" y="0px"
	 viewBox="0 0 256 256" style="enable-background:new 0 0 256 256;" xml:space="preserve">
<style type="text/css">
	.st0{fill:#E63950;}
	.st1{fill:#D10028;}
	.st2{fill:#B7022D;}
	.st3{fill:#FCC4AE;}
	.st4{fill:#E8566F;}
	.st5{fill:#808285;}
	.st6{fill:#939598;}
	.st7{fill:#58595B;}
	.st8{fill:#414042;}
	.st9{fill:#8C3F0A;}
	.st10{fill:#7C3108;}
	.st11{fill:#6D2E03;}
	.st12{fill:#995222;}
	.st13{fill:#F79219;}
	.st14{fill:#EF7816;}
	.st15{fill:#FFC91D;}
	.st16{fill:#FFA91A;}
	.st17{fill:#648940;}
	.st18{fill:#5A7A39;}
	.st19{fill:#F1F2F2;}
	.st20{fill:#E6E7E8;}
	.st21{fill:#D1D3D4;}
	.st22{fill:#FFFFFF;}
	.st23{fill:#76A34F;}
	.st24{fill:#F2AD97;}
	.st25{fill:#E59076;}
	.st26{fill:#91B56B;}
	.st27{fill:#F7CB15;}
	.st28{fill:#377DE2;}
	.st29{fill:#2266D3;}
	.st30{fill:#478CF7;}
	.st31{fill:#5E9CF7;}
	.st32{fill:#FFD2C0;}
	.st33{fill:#27C1E6;}
	.st34{fill:#009ADD;}
	.st35{fill:#893ADD;}
	.st36{fill:#A54AF4;}
	.st37{fill:#B171F4;}
	.st38{fill:#827F7E;}
</style>
<g>
	<g>
		<g>
			<path class="st3" d="M125.726,174.687C98.988,147.949,82.45,111.011,82.45,70.21H40.276c-3.373,0-6.106,2.781-6.002,6.153
				c1.526,49.482,21.389,94.345,53.023,128.024c2.315,2.464,6.22,2.508,8.611,0.117L125.726,174.687z"/>
		</g>
		<g>
			<path class="st25" d="M82.45,70.21h-9.666c2.461,36.817,18.406,69.941,42.942,94.477l-29.818,29.818
				c-1.641,1.641-3.994,2.135-6.058,1.487c2.403,2.869,4.886,5.669,7.447,8.396c2.315,2.464,6.22,2.508,8.611,0.117l29.818-29.818
				C98.988,147.949,82.45,111.011,82.45,70.21z"/>
		</g>
		<g>
			<path class="st32" d="M61.43,159.58c-0.74,0-1.42-0.41-1.77-1.07c0,0,0,0,0-0.01c-0.25-0.47-0.29-1.01-0.13-1.521
				c0.16-0.51,0.51-0.93,0.98-1.17c0.95-0.5,2.2-0.1,2.69,0.84c0.01,0,0.01,0.011,0.01,0.011c0.51,0.979,0.12,2.189-0.86,2.699
				C62.07,159.51,61.75,159.58,61.43,159.58z M57.91,152.399c-0.78,0-1.49-0.449-1.82-1.149c-5.43-11.67-9.7-23.92-12.68-36.44
				c-3.01-12.6-4.73-25.569-5.13-38.54c-0.02-0.54,0.18-1.06,0.56-1.45c0.37-0.39,0.9-0.609,1.44-0.609h18.14c1.1,0,2,0.899,2,2
				c0,1.1-0.9,2-2,2H42.35c1.04,24.83,6.88,48.83,17.37,71.35c0.46,1,0.03,2.19-0.97,2.66C58.48,152.34,58.2,152.399,57.91,152.399z
				"/>
		</g>
		<g>
			<path class="st16" d="M82.45,70.21c0,40.801,16.538,77.739,43.276,104.477l94.234-94.234c3.78-3.78,1.103-10.243-4.243-10.243
				H82.45z"/>
		</g>
		<g>
			<path class="st13" d="M215.717,70.21h-5.527c-0.074,0.082-0.151,0.163-0.23,0.243l-93.757,93.757
				c3.007,3.643,6.186,7.139,9.523,10.477l94.234-94.234C223.74,76.673,221.063,70.21,215.717,70.21z"/>
		</g>
		<g>
			<path class="st14" d="M216.649,70.278c0.29,1.768-0.196,3.681-1.69,5.175l-94.115,94.115c1.586,1.745,3.214,3.452,4.881,5.119
				l94.234-94.234C223.513,76.9,221.36,70.976,216.649,70.278z"/>
		</g>
		<g>
			<path class="st14" d="M176.39,124.022v13.494c0,4.355,3.531,7.886,7.887,7.886s7.887-3.531,7.887-7.886v-29.267L176.39,124.022z"
				/>
		</g>
		<g>
			<path class="st14" d="M138.882,161.53v39.402c0,4.356,3.531,7.887,7.887,7.887s7.887-3.531,7.887-7.887v-55.176L138.882,161.53z"
				/>
		</g>
		<g>
			<circle class="st0" cx="125.726" cy="133.231" r="15.137"/>
		</g>
		<g>
			<path class="st1" d="M133.635,120.322c1.413,2.302,2.228,5.01,2.228,7.909c0,8.36-6.777,15.137-15.137,15.137
				c-2.899,0-5.607-0.815-7.909-2.228c2.662,4.336,7.448,7.228,12.909,7.228c8.36,0,15.137-6.777,15.137-15.137
				C140.863,127.77,137.971,122.984,133.635,120.322z"/>
		</g>
		<g>
			<path class="st0" d="M142.705,90.898c8.36,0,15.137-6.777,15.137-15.137c0-1.96-0.372-3.832-1.05-5.551h-28.174
				c-0.678,1.719-1.05,3.592-1.05,5.551C127.568,84.121,134.345,90.898,142.705,90.898z"/>
		</g>
		<g>
			<path class="st1" d="M156.792,70.21h-3.96c0.007,0.183,0.01,0.367,0.01,0.551c0,8.36-6.777,15.137-15.137,15.137
				c-2.899,0-5.607-0.815-7.909-2.228c2.662,4.336,7.448,7.228,12.909,7.228c8.36,0,15.137-6.777,15.137-15.137
				C157.842,73.801,157.47,71.929,156.792,70.21z"/>
		</g>
		<g>
			<g>
				<path class="st23" d="M128.879,94.447c-8.604-11.227-24.737-13.362-35.964-4.758c-1.459,1.118-1.736,3.208-0.618,4.668
					c1.118,1.459,3.208,1.736,4.668,0.618c8.313-6.37,20.259-4.79,26.629,3.523c1.118,1.459,3.208,1.736,4.668,0.618
					C129.721,97.997,129.998,95.907,128.879,94.447z"/>
			</g>
		</g>
		<g>
			<g>
				<path class="st23" d="M153.898,131.396c-10.808-9.125-12.177-25.341-3.053-36.149c1.186-1.405,3.287-1.582,4.691-0.396
					c1.405,1.186,1.582,3.287,0.396,4.691c-6.756,8.002-5.742,20.01,2.26,26.766c1.405,1.186,1.582,3.287,0.396,4.691
					C157.403,132.405,155.302,132.582,153.898,131.396z"/>
			</g>
		</g>
		<g>
			<path class="st3" d="M167.518,101.619c-1.788,1.788-1.35,4.875,0.935,5.957c5.373,2.544,11.989,1.593,16.434-2.852
				c4.445-4.445,5.395-11.06,2.852-16.434c-1.082-2.285-4.17-2.722-5.957-0.935l-1.852,1.852l-1.861-3.674
				c-1.145-2.261-4.165-2.743-5.957-0.951l-7.366,7.366c-1.792,1.792-1.31,4.812,0.951,5.957l3.674,1.861L167.518,101.619z"/>
		</g>
		<g>
			<g>
				<path class="st24" d="M187.738,88.291c-0.737-1.558-2.407-2.257-3.962-1.977c1.046,4.677-0.25,9.771-3.889,13.411
					c-3.639,3.64-8.734,4.936-13.411,3.89c-0.279,1.555,0.419,3.225,1.977,3.962c5.373,2.544,11.989,1.593,16.434-2.852
					C189.331,100.28,190.282,93.664,187.738,88.291z"/>
			</g>
		</g>
	</g>
	<g>
		<path class="st14" d="M199.316,101.096v53.002c0,2.551,2.068,4.62,4.62,4.62s4.62-2.068,4.62-4.62V91.856L199.316,101.096z"/>
	</g>
	<g>
		<path class="st23" d="M192.47,81.951c0.936,2.703,3.978,4.248,5.438,4.85c0.461,0.19,0.994,0.006,1.239-0.429
			c0.775-1.377,2.21-4.471,1.274-7.175c-0.936-2.703-3.978-4.248-5.438-4.85c-0.461-0.19-0.994-0.006-1.239,0.429
			C192.969,76.153,191.534,79.247,192.47,81.951z"/>
	</g>
	<g>
		<path class="st23" d="M101.885,111.636c-2.086,1.958-2.255,5.365-2.209,6.944c0.014,0.499,0.401,0.91,0.898,0.956
			c1.573,0.146,4.984,0.193,7.07-1.765c2.086-1.958,2.255-5.365,2.209-6.944c-0.014-0.499-0.401-0.91-0.898-0.956
			C107.382,109.725,103.971,109.678,101.885,111.636z"/>
	</g>
</g>
</svg>
