<?xml version="1.0" encoding="utf-8"?>
<!-- Generator: Adobe Illustrator 24.0.0, SVG Export Plug-In . SVG Version: 6.00 Build 0)  -->
<svg version="1.1" id="Layer_1" xmlns="http://www.w3.org/2000/svg" xmlns:xlink="http://www.w3.org/1999/xlink" x="0px" y="0px"
	 viewBox="0 0 256 256" style="enable-background:new 0 0 256 256;" xml:space="preserve">
<style type="text/css">
	.st0{fill:#E63950;}
	.st1{fill:#D10028;}
	.st2{fill:#B7022D;}
	.st3{fill:#FCC4AE;}
	.st4{fill:#E8566F;}
	.st5{fill:#808285;}
	.st6{fill:#939598;}
	.st7{fill:#58595B;}
	.st8{fill:#414042;}
	.st9{fill:#8C3F0A;}
	.st10{fill:#7C3108;}
	.st11{fill:#6D2E03;}
	.st12{fill:#995222;}
	.st13{fill:#F79219;}
	.st14{fill:#EF7816;}
	.st15{fill:#FFC91D;}
	.st16{fill:#FFA91A;}
	.st17{fill:#648940;}
	.st18{fill:#5A7A39;}
	.st19{fill:#F1F2F2;}
	.st20{fill:#E6E7E8;}
	.st21{fill:#D1D3D4;}
	.st22{fill:#FFFFFF;}
	.st23{fill:#76A34F;}
	.st24{fill:#F2AD97;}
	.st25{fill:#E59076;}
	.st26{fill:#91B56B;}
	.st27{fill:#F7CB15;}
	.st28{fill:#377DE2;}
	.st29{fill:#2266D3;}
	.st30{fill:#478CF7;}
	.st31{fill:#5E9CF7;}
	.st32{fill:#FFD2C0;}
	.st33{fill:#27C1E6;}
	.st34{fill:#009ADD;}
	.st35{fill:#893ADD;}
	.st36{fill:#A54AF4;}
	.st37{fill:#B171F4;}
	.st38{fill:#827F7E;}
</style>
<g>
	<g>
		<g>
			<g>
				<g>
					<path class="st0" d="M126.483,81.11l5.747-5.747c3.416-3.416,3.416-8.956,0-12.372l-9.891-9.891
						c-3.416-3.416-8.956-3.416-12.372,0l-5.747,5.747c-3.416,3.416-3.416,8.956,0,12.372l9.891,9.891
						C117.528,84.527,123.067,84.527,126.483,81.11z"/>
				</g>
			</g>
			<g>
				<path class="st1" d="M132.23,62.991l-9.891-9.891c-0.018-0.018-0.037-0.036-0.055-0.054c3.362,3.421,3.345,8.919-0.053,12.317
					l-5.747,5.747c-3.398,3.398-8.897,3.416-12.317,0.054c0.018,0.018,0.035,0.037,0.054,0.055l9.891,9.891
					c3.417,3.417,8.956,3.417,12.372,0l5.747-5.747C135.647,71.947,135.647,66.408,132.23,62.991z"/>
			</g>
			<g>
				<g>
					<path class="st15" d="M124.724,96.722h-8.127c-4.832,0-8.748-3.917-8.748-8.748V73.985c0-4.832,3.917-8.748,8.748-8.748h8.127
						c4.832,0,8.748,3.917,8.748,8.748v13.989C133.472,92.805,129.555,96.722,124.724,96.722z"/>
				</g>
				<g>
					<path class="st16" d="M127.883,65.825c0.38,0.98,0.589,2.046,0.589,3.16v13.989c0,4.832-3.917,8.748-8.748,8.748h-8.127
						c-1.114,0-2.18-0.209-3.16-0.589c1.267,3.27,4.443,5.589,8.16,5.589h8.127c4.832,0,8.748-3.917,8.748-8.748V73.985
						C133.472,70.267,131.153,67.092,127.883,65.825z"/>
				</g>
			</g>
			<g>
				<g>
					<path class="st0" d="M172.594,96.687l-5.747-5.747c-3.416-3.416-3.416-8.956,0-12.372l9.891-9.891
						c3.416-3.416,8.956-3.416,12.372,0l5.747,5.747c3.416,3.416,3.416,8.956,0,12.372l-9.891,9.891
						C181.55,100.103,176.011,100.103,172.594,96.687z"/>
				</g>
			</g>
			<g>
				<path class="st1" d="M194.858,74.423l-5.747-5.747c-0.747-0.747-1.596-1.331-2.502-1.751c1.502,3.236,0.918,7.201-1.751,9.87
					l-9.891,9.891c-2.669,2.669-6.634,3.253-9.87,1.751c0.42,0.906,1.004,1.755,1.751,2.502l5.747,5.747
					c3.416,3.417,8.956,3.417,12.372,0l9.891-9.891C198.274,83.379,198.274,77.839,194.858,74.423z"/>
			</g>
			<g>
				<g>
					<path class="st15" d="M138.897,83.557l-5.747-5.747c-3.416-3.416-3.416-8.956,0-12.372l9.891-9.891
						c3.416-3.416,8.956-3.416,12.372,0l5.747,5.747c3.416,3.416,3.416,8.956,0,12.372l-9.891,9.891
						C147.853,86.973,142.314,86.973,138.897,83.557z"/>
				</g>
			</g>
			<g>
				<g>
					<circle class="st18" cx="101.574" cy="94.548" r="26.426"/>
				</g>
				<g>
					<circle class="st23" cx="101.574" cy="94.548" r="16.651"/>
				</g>
				<g>
					<g>
						<path class="st26" d="M91.731,85.123c3.999-1.248,7.996,1.775,8.003,5.964c0.017,11.61-7.454,22.376-19.119,26.015
							s-23.933-0.97-30.519-10.53c-2.377-3.45-0.807-8.209,3.192-9.456L91.731,85.123z"/>
					</g>
					<g>
						<path class="st17" d="M99.733,91.087c-0.004-2.72-1.69-4.947-3.967-5.834c-1.863,9.487-8.733,17.678-18.611,20.76
							c-9.878,3.081-20.187,0.248-27.113-6.496c-1.369,2.024-1.49,4.815,0.053,7.055c6.587,9.56,18.854,14.169,30.52,10.53
							C92.279,113.463,99.75,102.697,99.733,91.087z"/>
					</g>
				</g>
			</g>
			<g>
				<g>
					<circle class="st11" cx="154.426" cy="94.548" r="26.426"/>
				</g>
				<g>
					<circle class="st12" cx="154.426" cy="94.548" r="16.651"/>
				</g>
				<g>
					<g>
						<path class="st9" d="M164.269,85.123c-3.999-1.248-7.996,1.775-8.003,5.964c-0.017,11.61,7.454,22.376,19.119,26.015
							s23.933-0.97,30.519-10.53c2.377-3.45,0.807-8.209-3.192-9.456L164.269,85.123z"/>
					</g>
					<g>
						<path class="st10" d="M156.267,91.087c0.004-2.72,1.69-4.947,3.967-5.834c1.863,9.487,8.733,17.678,18.611,20.76
							c9.878,3.081,20.187,0.248,27.113-6.496c1.369,2.024,1.49,4.815-0.053,7.055c-6.587,9.56-18.854,14.169-30.52,10.53
							C163.721,113.463,156.25,102.697,156.267,91.087z"/>
					</g>
				</g>
			</g>
			<g>
				<g>
					<path class="st23" d="M139.322,115.687c0.282-0.622-0.343-1.568-1.528-2.499c1.358-0.07,2.305-0.442,2.444-1.067
						c0.14-0.625-0.559-1.364-1.758-2.005c1.468-0.339,2.436-0.928,2.446-1.611c0.012-0.897-1.634-1.678-3.908-1.958
						c2.177-1.772,3.378-3.662,2.779-4.579c-0.452-0.691-1.823-0.666-3.54-0.06c0.808-1.431,1.042-2.639,0.495-3.186
						c-0.547-0.547-1.755-0.313-3.186,0.495c0.606-1.717,0.631-3.088-0.06-3.54c-0.916-0.599-2.806,0.602-4.579,2.779
						c-0.279-2.273-1.06-3.92-1.958-3.908c-0.683,0.009-1.273,0.978-1.611,2.446c-0.641-1.199-1.381-1.898-2.005-1.758
						c-0.625,0.14-0.997,1.087-1.067,2.444c-0.931-1.184-1.877-1.81-2.499-1.528c-1.001,0.454-0.786,3.086,0.481,5.879
						c0.448,0.987-4.873,12.8-2.25,15.424c2.624,2.624,14.437-2.698,15.424-2.25C136.236,116.472,138.868,116.688,139.322,115.687z"
						/>
				</g>
			</g>
			<g>
				<g>
					<path class="st17" d="M140.926,108.504c0.012-0.897-1.634-1.678-3.908-1.958c2.177-1.772,3.379-3.662,2.779-4.578
						c-0.452-0.691-1.823-0.666-3.54-0.06c0.808-1.431,1.042-2.639,0.495-3.186c-0.413-0.414-1.204-0.381-2.183,0.009
						c-0.475,0.857-1.369,1.854-2.551,2.816c2.273,0.279,3.92,1.06,3.908,1.958c-0.009,0.683-0.978,1.273-2.446,1.611
						c1.199,0.641,1.898,1.381,1.758,2.005c-0.14,0.625-1.087,0.997-2.444,1.067c1.184,0.931,1.81,1.877,1.527,2.499
						c-0.454,1.001-3.086,0.786-5.878-0.481c-0.684-0.31-6.57,2.151-10.991,2.817c-0.295,1.957-0.238,3.628,0.567,4.433
						c2.624,2.624,14.437-2.698,15.424-2.25c2.792,1.267,5.424,1.483,5.878,0.481c0.282-0.622-0.343-1.568-1.527-2.499
						c1.358-0.07,2.305-0.442,2.444-1.067c0.139-0.625-0.559-1.365-1.758-2.005C139.948,109.777,140.917,109.188,140.926,108.504z"
						/>
				</g>
			</g>
		</g>
		<g>
			<g>
				<path class="st20" d="M184.122,186.253H71.878v11.207c0,4.42,3.583,8.002,8.002,8.002h96.239c4.42,0,8.002-3.583,8.002-8.002
					V186.253z"/>
			</g>
			<g>
				<path class="st21" d="M179.122,186.253v6.207c0,4.419-3.583,8.002-8.002,8.002H74.88c-0.902,0-1.769-0.149-2.578-0.424
					c1.073,3.155,4.06,5.424,7.578,5.424h96.239c4.42,0,8.002-3.583,8.002-8.002v-11.207H179.122z"/>
			</g>
			<g>
				<path class="st19" d="M71.878,186.253h112.244c13.432-12.749,21.808-30.773,21.808-50.753v-13.609c0-4.418-3.582-8-8-8H58.07
					c-4.418,0-8,3.582-8,8V135.5C50.07,155.48,58.446,173.504,71.878,186.253z"/>
			</g>
			<g>
				<path class="st22" d="M56.069,137.5c-1.1,0-2-0.9-2-2c0-1.101,0.9-2,2-2c1.101,0,2,0.899,2,2
					C58.069,136.6,57.17,137.5,56.069,137.5z M56.069,129.5c-1.1,0-2-0.9-2-2v-5.61c0-2.2,1.801-4,4-4h98.28c1.101,0,2,0.9,2,2
					c0,1.101-0.899,2-2,2h-98.28v5.59c0,0.011,0,0.011,0,0.021C58.069,128.6,57.17,129.5,56.069,129.5z"/>
			</g>
			<g>
				<path class="st20" d="M197.93,113.891h-2V125.5c0,19.981-8.376,38.005-21.808,50.753H63.159c2.587,3.604,5.509,6.953,8.719,10
					h112.244c13.432-12.749,21.808-30.773,21.808-50.753v-13.609C205.93,117.472,202.348,113.891,197.93,113.891z"/>
			</g>
			<g>
				<path class="st21" d="M200.506,114.315c0.275,0.808,0.424,1.675,0.424,2.576V130.5c0,19.981-8.376,38.005-21.808,50.753H67.103
					c1.509,1.744,3.103,3.413,4.775,5h112.244c13.432-12.749,21.808-30.773,21.808-50.753v-13.609
					C205.93,118.374,203.661,115.387,200.506,114.315z"/>
			</g>
		</g>
	</g>
	<g>
		<g>
			<path class="st21" d="M147.626,152.221c-4.915,4.915-11.756,6.638-15.626,7.238c-1.561,0.242-2.906-1.103-2.664-2.664
				c0.599-3.87,2.322-10.711,7.238-15.626c4.915-4.915,11.756-6.638,15.626-7.238c1.561-0.242,2.906,1.103,2.664,2.664
				C154.264,140.465,152.541,147.306,147.626,152.221z"/>
		</g>
		<g>
			<path class="st21" d="M108.374,152.221c4.915,4.915,11.756,6.638,15.626,7.238c1.561,0.242,2.906-1.103,2.664-2.664
				c-0.599-3.87-2.322-10.711-7.238-15.626s-11.756-6.638-15.626-7.238c-1.561-0.242-2.906,1.103-2.664,2.664
				C101.736,140.465,103.459,147.306,108.374,152.221z"/>
		</g>
	</g>
</g>
</svg>
