<?xml version="1.0" encoding="utf-8"?>
<!-- Generator: Adobe Illustrator 24.0.0, SVG Export Plug-In . SVG Version: 6.00 Build 0)  -->
<svg version="1.1" id="Layer_1" xmlns="http://www.w3.org/2000/svg" xmlns:xlink="http://www.w3.org/1999/xlink" x="0px" y="0px"
	 viewBox="0 0 256 256" style="enable-background:new 0 0 256 256;" xml:space="preserve">
<style type="text/css">
	.st0{fill:#F1F2F2;}
	.st1{fill:#FFFFFF;}
	.st2{fill:#E6E7E8;}
	.st3{fill:#D1D3D4;}
	.st4{fill:#FFA91A;}
	.st5{fill:#F79219;}
	.st6{fill:#E63950;}
	.st7{fill:#D10028;}
	.st8{fill:#E8566F;}
	.st9{fill:#58595B;}
	.st10{fill:#808285;}
	.st11{fill:#939598;}
	.st12{fill:#414042;}
	.st13{fill:#7C3108;}
	.st14{fill:#6D2E03;}
	.st15{fill:#648940;}
	.st16{fill:#5A7A39;}
	.st17{fill:#EF7816;}
	.st18{fill:#B7022D;}
	.st19{fill:#76A34F;}
	.st20{fill:#91B56B;}
	.st21{fill:#FFC91D;}
	.st22{fill:#995222;}
	.st23{fill:#8C3F0A;}
	.st24{fill:#FFD2C0;}
	.st25{fill:#FCC4AE;}
	.st26{fill:#F2AD97;}
	.st27{fill:#E59076;}
	.st28{fill:#A54AF4;}
	.st29{fill:#893ADD;}
	.st30{fill:#27C1E6;}
	.st31{fill:#009ADD;}
</style>
<g>
	<g>
		<g>
			<circle class="st0" cx="128" cy="128" r="95.306"/>
		</g>
		<g>
			<path class="st1" d="M38.69,130c-1.1,0-1.99-0.9-1.99-2c0-1.1,0.89-2,1.99-2c1.11,0,2,0.9,2,2C40.69,129.1,39.8,130,38.69,130z
				 M39.05,122.01c-0.06,0-0.12,0-0.18,0c-0.53-0.05-1.01-0.3-1.36-0.71c-0.34-0.41-0.5-0.93-0.45-1.46
				c2.01-22.61,12.37-43.57,29.17-59.03C83.13,45.26,105.07,36.7,128,36.69c1.1,0,2,0.9,2,2.01c0,1.1-0.9,1.99-2,1.99
				c-44.8,0-82.99,34.92-86.96,79.5v0.01C40.94,121.23,40.09,122.01,39.05,122.01z"/>
		</g>
		<g>
			<path class="st2" d="M190.206,55.794c14.395,16.694,23.099,38.434,23.099,62.206c0,52.636-42.67,95.306-95.306,95.306
				c-23.773,0-45.512-8.704-62.206-23.099c17.477,20.268,43.343,33.099,72.206,33.099c52.636,0,95.306-42.67,95.306-95.306
				C223.306,99.137,210.475,73.271,190.206,55.794z"/>
		</g>
		<g>
			<path class="st3" d="M192.845,58.155c15.799,17.01,25.461,39.799,25.461,64.845c0,52.636-42.67,95.306-95.306,95.306
				c-25.046,0-47.835-9.661-64.845-25.461c17.404,18.737,42.255,30.461,69.845,30.461c52.636,0,95.306-42.67,95.306-95.306
				C223.306,100.41,211.582,75.559,192.845,58.155z"/>
		</g>
	</g>
	<g>
		<circle class="st1" cx="128" cy="128" r="69.612"/>
	</g>
	<g>
		<g>
			<path class="st5" d="M203.422,112.702c0-11.41-9.239-20.661-20.645-20.682c-2.167-9.104-10.352-15.876-20.12-15.876
				c-11.422,0-20.682,9.26-20.682,20.682c0,2.849,0.576,5.564,1.618,8.034c-15.441,4.166-26.803,18.27-26.803,35.027
				c0,20.035,16.242,36.277,36.277,36.277c20.035,0,36.277-16.242,36.277-36.277c0-2.517-0.256-4.973-0.744-7.346
				C197.169,130.015,203.422,122.089,203.422,112.702z"/>
		</g>
		<g>
			<path class="st17" d="M203.422,112.702c0-11.41-9.239-20.661-20.645-20.682c-2.167-9.104-10.352-15.876-20.12-15.876
				c-0.749,0-1.488,0.04-2.217,0.118c1.052,1.766,1.847,3.703,2.337,5.758c11.405,0.02,20.645,9.272,20.645,20.682
				c0,9.386-6.253,17.313-14.821,19.839c0.488,2.372,0.744,4.829,0.744,7.346c0,20.035-16.242,36.277-36.277,36.277
				c-1.845,0-3.657-0.138-5.427-0.404c6.546,6.434,15.523,10.404,25.427,10.404c20.035,0,36.277-16.242,36.277-36.277
				c0-2.517-0.256-4.973-0.744-7.346C197.169,130.015,203.422,122.089,203.422,112.702z"/>
		</g>
	</g>
	<g>
		<g>
			<g>
				<path class="st25" d="M93.611,61.667L93.611,61.667c2.578,0,4.668,2.09,4.668,4.668v159.042c0,2.578-2.09,4.668-4.668,4.668h0
					c-2.578,0-4.668-2.09-4.668-4.668V66.335C88.943,63.757,91.033,61.667,93.611,61.667z"/>
			</g>
			<g>
				<path class="st26" d="M93.611,61.667c-0.112,0-0.222,0.004-0.332,0.012v158.698c0,2.467-1.913,4.486-4.336,4.656v0.344
					c0,2.578,2.09,4.668,4.668,4.668c2.578,0,4.668-2.09,4.668-4.668V66.335C98.279,63.757,96.189,61.667,93.611,61.667z"/>
			</g>
			<g>
				<path class="st23" d="M100.82,188.507H86.402c-2.209,0-4-1.791-4-4v-18.916c0-2.209,1.791-4,4-4h14.418c2.209,0,4,1.791,4,4
					v18.916C104.82,186.716,103.029,188.507,100.82,188.507z"/>
			</g>
			<g>
				<path class="st13" d="M100.82,161.591h-1v17.916c0,2.209-1.791,4-4,4H82.402v1c0,2.209,1.791,4,4,4h14.418c2.209,0,4-1.791,4-4
					v-18.916C104.82,163.382,103.029,161.591,100.82,161.591z"/>
			</g>
			<g>
				<path class="st23" d="M100.82,157.953H86.402c-2.209,0-4-1.791-4-4v-18.916c0-2.209,1.791-4,4-4h14.418c2.209,0,4,1.791,4,4
					v18.916C104.82,156.162,103.029,157.953,100.82,157.953z"/>
			</g>
			<g>
				<path class="st13" d="M100.82,131.037h-1v17.916c0,2.209-1.791,4-4,4H82.402v1c0,2.209,1.791,4,4,4h14.418c2.209,0,4-1.791,4-4
					v-18.916C104.82,132.828,103.029,131.037,100.82,131.037z"/>
			</g>
			<g>
				<path class="st23" d="M100.82,127.399H86.402c-2.209,0-4-1.791-4-4v-18.916c0-2.209,1.791-4,4-4h14.418c2.209,0,4,1.791,4,4
					v18.916C104.82,125.608,103.029,127.399,100.82,127.399z"/>
			</g>
			<g>
				<path class="st13" d="M100.82,100.483h-1v17.916c0,2.209-1.791,4-4,4H82.402v1c0,2.209,1.791,4,4,4h14.418c2.209,0,4-1.791,4-4
					v-18.916C104.82,102.274,103.029,100.483,100.82,100.483z"/>
			</g>
			<g>
				<path class="st23" d="M100.82,96.845H86.402c-2.209,0-4-1.791-4-4V73.929c0-2.209,1.791-4,4-4h14.418c2.209,0,4,1.791,4,4
					v18.916C104.82,95.054,103.029,96.845,100.82,96.845z"/>
			</g>
			<g>
				<path class="st13" d="M100.82,69.929h-1v17.916c0,2.209-1.791,4-4,4H82.402v1c0,2.209,1.791,4,4,4h14.418c2.209,0,4-1.791,4-4
					V73.929C104.82,71.72,103.029,69.929,100.82,69.929z"/>
			</g>
		</g>
		<g>
			<g>
				<path class="st25" d="M128,61.667L128,61.667c2.578,0,4.668,2.09,4.668,4.668v159.042c0,2.578-2.09,4.668-4.668,4.668h0
					c-2.578,0-4.668-2.09-4.668-4.668V66.335C123.332,63.757,125.422,61.667,128,61.667z"/>
			</g>
			<g>
				<path class="st26" d="M128,61.667c-0.112,0-0.222,0.004-0.332,0.012v158.698c0,2.467-1.913,4.486-4.336,4.656v0.344
					c0,2.578,2.09,4.668,4.668,4.668c2.578,0,4.668-2.09,4.668-4.668V66.335C132.668,63.757,130.578,61.667,128,61.667z"/>
			</g>
			<g>
				<path class="st23" d="M135.209,188.507h-14.418c-2.209,0-4-1.791-4-4v-18.916c0-2.209,1.791-4,4-4h14.418c2.209,0,4,1.791,4,4
					v18.916C139.209,186.716,137.418,188.507,135.209,188.507z"/>
			</g>
			<g>
				<path class="st13" d="M135.209,161.591h-1v17.916c0,2.209-1.791,4-4,4h-13.418v1c0,2.209,1.791,4,4,4h14.418
					c2.209,0,4-1.791,4-4v-18.916C139.209,163.382,137.418,161.591,135.209,161.591z"/>
			</g>
			<g>
				<path class="st23" d="M135.209,157.953h-14.418c-2.209,0-4-1.791-4-4v-18.916c0-2.209,1.791-4,4-4h14.418c2.209,0,4,1.791,4,4
					v18.916C139.209,156.162,137.418,157.953,135.209,157.953z"/>
			</g>
			<g>
				<path class="st13" d="M135.209,131.037h-1v17.916c0,2.209-1.791,4-4,4h-13.418v1c0,2.209,1.791,4,4,4h14.418
					c2.209,0,4-1.791,4-4v-18.916C139.209,132.828,137.418,131.037,135.209,131.037z"/>
			</g>
			<g>
				<path class="st23" d="M135.209,127.399h-14.418c-2.209,0-4-1.791-4-4v-18.916c0-2.209,1.791-4,4-4h14.418c2.209,0,4,1.791,4,4
					v18.916C139.209,125.608,137.418,127.399,135.209,127.399z"/>
			</g>
			<g>
				<path class="st13" d="M135.209,100.483h-1v17.916c0,2.209-1.791,4-4,4h-13.418v1c0,2.209,1.791,4,4,4h14.418
					c2.209,0,4-1.791,4-4v-18.916C139.209,102.274,137.418,100.483,135.209,100.483z"/>
			</g>
			<g>
				<path class="st23" d="M135.209,96.845h-14.418c-2.209,0-4-1.791-4-4V73.929c0-2.209,1.791-4,4-4h14.418c2.209,0,4,1.791,4,4
					v18.916C139.209,95.054,137.418,96.845,135.209,96.845z"/>
			</g>
			<g>
				<path class="st13" d="M135.209,69.929h-1v17.916c0,2.209-1.791,4-4,4h-13.418v1c0,2.209,1.791,4,4,4h14.418c2.209,0,4-1.791,4-4
					V73.929C139.209,71.72,137.418,69.929,135.209,69.929z"/>
			</g>
		</g>
	</g>
	<g>
		<g>
			<path class="st25" d="M169.662,93.575c2-0.624,3.998,0.887,4.001,2.982c0.009,5.805-3.727,11.188-9.56,13.007
				c-5.833,1.819-11.966-0.485-15.26-5.265c-1.188-1.725-0.403-4.104,1.596-4.728L169.662,93.575z"/>
		</g>
		<g>
			<path class="st26" d="M173.663,96.557c-0.002-1.36-0.845-2.474-1.984-2.917c-0.932,4.743-4.367,8.839-9.305,10.38
				c-4.939,1.541-10.094,0.124-13.557-3.248c-0.684,1.012-0.745,2.408,0.027,3.528c3.293,4.78,9.427,7.085,15.26,5.265
				C169.936,107.745,173.672,102.361,173.663,96.557z"/>
		</g>
	</g>
	<g>
		<g>
			<path class="st25" d="M169.64,127.784c1.855,0.973,2.2,3.455,0.721,4.938c-4.099,4.111-10.547,5.276-15.957,2.438
				c-5.411-2.838-8.119-8.804-7.067-14.513c0.379-2.06,2.617-3.187,4.472-2.215L169.64,127.784z"/>
		</g>
		<g>
			<path class="st26" d="M170.361,132.722c0.96-0.963,1.151-2.347,0.66-3.465c-4.013,2.695-9.338,3.163-13.92,0.76
				c-4.582-2.403-7.225-7.049-7.289-11.883c-1.2,0.232-2.229,1.176-2.476,2.513c-1.051,5.709,1.656,11.676,7.067,14.513
				C159.814,137.998,166.262,136.833,170.361,132.722z"/>
		</g>
	</g>
	<g>
		<g>
			<path class="st6" d="M183.058,120.176l2.175-2.175c1.293-1.293,1.293-3.389,0-4.682l-3.743-3.743
				c-1.293-1.293-3.389-1.293-4.682,0l-2.175,2.175c-1.293,1.293-1.293,3.389,0,4.682l3.743,3.743
				C179.669,121.469,181.765,121.469,183.058,120.176z"/>
		</g>
	</g>
	<g>
		<path class="st7" d="M185.233,113.319l-2-2c1.293,1.293,1.293,3.389,0,4.682l-2.175,2.175c-1.293,1.293-3.389,1.293-4.682,0l2,2
			c1.293,1.293,3.389,1.293,4.682,0l2.175-2.175C186.525,116.708,186.525,114.612,185.233,113.319z"/>
	</g>
	<g>
		<g>
			<path class="st6" d="M154.807,154.435l2.175,2.175c1.293,1.293,3.389,1.293,4.682,0l3.743-3.743c1.293-1.293,1.293-3.389,0-4.682
				l-2.175-2.175c-1.293-1.293-3.389-1.293-4.682,0l-3.743,3.743C153.514,151.046,153.514,153.142,154.807,154.435z"/>
		</g>
	</g>
	<g>
		<path class="st7" d="M165.406,148.185l-2.175-2.175c0,0-0.001-0.001-0.001-0.001l0.176,0.176c1.293,1.293,1.293,3.389,0,4.682
			l-3.743,3.743c-1.293,1.293-3.389,1.293-4.682,0l2,2c1.293,1.293,3.389,1.293,4.682,0l3.743-3.743
			C166.699,151.573,166.699,149.478,165.406,148.185z"/>
	</g>
</g>
</svg>
