<?xml version="1.0" encoding="utf-8"?>
<!-- Generator: Adobe Illustrator 24.0.0, SVG Export Plug-In . SVG Version: 6.00 Build 0)  -->
<svg version="1.1" id="Layer_1" xmlns="http://www.w3.org/2000/svg" xmlns:xlink="http://www.w3.org/1999/xlink" x="0px" y="0px"
	 viewBox="0 0 512 512" style="enable-background:new 0 0 512 512;" xml:space="preserve">
<style type="text/css">
	.st0{fill:#D7E6F0;}
	.st1{fill:#A5C3DC;}
	.st2{fill:#F06423;}
	.st3{fill:#FAA019;}
	.st4{fill:#FFD205;}
	.st5{fill:#91C83C;}
	.st6{fill:#5FAA46;}
	.st7{fill:#555A6E;}
	.st8{fill:#463C4B;}
	.st9{fill:#FFBE28;}
	.st10{fill:#A55023;}
	.st11{fill:#D26E28;}
	.st12{fill:#F28A39;}
	.st13{fill:#4B8C41;}
	.st14{fill:#69A041;}
	.st15{fill:#91B945;}
	.st16{fill:#FFFFFF;}
	.st17{fill:#F04B37;}
	.st18{fill:#AFD763;}
	.st19{fill:#E1322D;}
	.st20{fill:#5AD7FF;}
	.st21{fill:#A5FFFF;}
	.st22{fill:#23AAE6;}
	.st23{fill:#F0915A;}
	.st24{fill:#FAB991;}
	.st25{fill:#D2643C;}
	.st26{fill:#6E788C;}
	.st27{fill:#9B5FAA;}
	.st28{fill:#643773;}
	.st29{fill:#F5826E;}
	.st30{fill:#C81E14;}
	.st31{fill:#FAA037;}
	.st32{fill:#F57828;}
	.st33{fill:#D65A0A;}
	.st34{fill:#FFF050;}
	.st35{fill:#FFD23C;}
	.st36{fill:#FFFF50;}
	.st37{fill:#F5871E;}
	.st38{fill:#FAA01E;}
	.st39{fill:#FF6955;}
	.st40{fill:#FF8773;}
	.st41{fill:#BEDC5A;}
	.st42{fill:#BE5000;}
	.st43{fill:#D7322D;}
	.st44{fill:#FAF0DC;}
	.st45{fill:#FFBE55;}
	.st46{fill:#DC6E1E;}
	.st47{fill:#804B8F;}
	.st48{fill:#4182C3;}
	.st49{fill:#64AFE1;}
	.st50{fill:#FABE19;}
	.st51{fill:#8CAAC8;}
	.st52{fill:#737079;}
	.st53{fill:#96AAB9;}
	.st54{fill:#9BD2F0;}
	.st55{fill:#78D2F0;}
	.st56{fill:#C8E66E;}
	.st57{fill:#FADCBE;}
	.st58{fill:#8C3C14;}
	.st59{fill:#46783C;}
	.st60{fill:#784687;}
	.st61{fill:#96BEDC;}
	.st62{fill:#FFAA5A;}
	.st63{fill:#50C3EB;}
	.st64{fill:#D7E6E6;}
	.st65{fill:#FF6E50;}
	.st66{fill:#FF9682;}
</style>
<g>
	<g>
		<g>
			<path class="st7" d="M256,304L256,304c-53.019,0-96-42.981-96-96v-96h192v96C352,261.019,309.019,304,256,304z"/>
		</g>
		<g>
			<path class="st8" d="M256,112v192h0c53.019,0,96-42.98,96-96v-96H256z"/>
		</g>
		<g>
			<circle class="st0" cx="256" cy="112" r="96"/>
		</g>
		<g>
			<g>
				<g>
					<path class="st5" d="M289.941,78.059l-11.314-11.314c-12.497-12.497-32.758-12.497-45.255,0l-11.314,11.314L256,112
						L289.941,78.059z"/>
				</g>
				<g>
					<path class="st2" d="M222.059,78.059l-11.314,11.314c-12.497,12.497-12.497,32.758,0,45.255l22.627,22.627
						c12.497,12.497,32.758,12.497,45.255,0l11.314-11.314L222.059,78.059z"/>
				</g>
				<g>
					<path class="st17" d="M256,112l33.941,33.941l11.314-11.314c12.497-12.497,12.497-32.758,0-45.255l-11.314-11.314L256,112z"/>
				</g>
			</g>
			<path class="st3" d="M227.716,95.03c0.007-0.007,0.014-0.015,0.022-0.022l5.635-5.635l-5.639-5.639
				c-0.006-0.006-0.012-0.012-0.018-0.018s-0.012-0.012-0.018-0.018l-5.639-5.64l-5.656,5.657l-5.658,5.657
				c-6.043,6.044-9.372,14.081-9.372,22.627s3.329,16.583,9.372,22.627c1.563,1.562,3.609,2.343,5.657,2.343
				c2.047,0,4.095-0.781,5.657-2.343c3.124-3.124,3.125-8.189,0-11.314c-3.022-3.022-4.687-7.041-4.687-11.314
				s1.665-8.292,4.686-11.313L227.716,95.03z"/>
			<path class="st18" d="M256,57.373c-8.547,0-16.583,3.329-22.627,9.373l-3.771,3.771h0l-7.542,7.542l5.658,5.658l5.656,5.656
				l5.656-5.656l5.658-5.658c3.022-3.022,7.04-4.686,11.313-4.686c4.418,0,8-3.582,8-8S260.418,57.373,256,57.373z"/>
		</g>
		<g>
			<circle class="st1" cx="280" cy="40" r="8"/>
		</g>
		<g>
			<circle class="st1" cx="312" cy="56" r="8"/>
		</g>
		<g>
			<circle class="st1" cx="328" cy="136" r="8"/>
		</g>
		<g>
			<circle class="st1" cx="216" cy="168" r="8"/>
		</g>
		<g>
			<circle class="st1" cx="184" cy="104" r="8"/>
		</g>
		<g>
			<circle class="st1" cx="200" cy="72" r="8"/>
		</g>
	</g>
	<g>
		<g>
			<path class="st7" d="M144,496L144,496c-53.019,0-96-42.981-96-96v-96h192v96C240,453.019,197.019,496,144,496z"/>
		</g>
		<g>
			<path class="st8" d="M144,304v192h0c53.019,0,96-42.98,96-96v-96H144z"/>
		</g>
		<g>
			<circle class="st0" cx="144" cy="304" r="96"/>
		</g>
		<g>
			<g>
				<g>
					<path class="st5" d="M177.941,270.059l-11.314-11.314c-12.497-12.497-32.758-12.497-45.255,0l-11.314,11.314L144,304
						L177.941,270.059z"/>
				</g>
				<g>
					<path class="st2" d="M110.059,270.059l-11.314,11.314c-12.497,12.497-12.497,32.758,0,45.255l22.627,22.627
						c12.497,12.497,32.758,12.497,45.255,0l11.314-11.314L110.059,270.059z"/>
				</g>
				<g>
					<path class="st17" d="M144,304l33.941,33.941l11.314-11.314c12.497-12.497,12.497-32.758,0-45.255l-11.314-11.314L144,304z"/>
				</g>
			</g>
			<path class="st3" d="M115.716,287.03c0.007-0.007,0.014-0.015,0.022-0.022l5.635-5.635l-5.639-5.639
				c-0.006-0.006-0.012-0.012-0.018-0.018c-0.006-0.006-0.012-0.012-0.018-0.018l-5.64-5.64l-5.656,5.657l-5.658,5.657
				c-6.043,6.044-9.372,14.081-9.372,22.627s3.329,16.583,9.372,22.627c1.563,1.562,3.609,2.343,5.657,2.343
				c2.047,0,4.095-0.781,5.657-2.343c3.124-3.124,3.125-8.189,0-11.314c-3.022-3.022-4.687-7.041-4.687-11.314
				s1.665-8.292,4.686-11.313L115.716,287.03z"/>
			<path class="st18" d="M144,249.373c-8.547,0-16.583,3.329-22.627,9.373l-3.771,3.771h0l-7.542,7.542l5.658,5.658l5.656,5.656
				l5.656-5.656l5.658-5.658c3.022-3.022,7.04-4.686,11.313-4.686c4.418,0,8-3.582,8-8S148.418,249.373,144,249.373z"/>
		</g>
		<g>
			<circle class="st1" cx="168" cy="232" r="8"/>
		</g>
		<g>
			<circle class="st1" cx="200" cy="248" r="8"/>
		</g>
		<g>
			<circle class="st1" cx="216" cy="328" r="8"/>
		</g>
		<g>
			<circle class="st1" cx="104" cy="360" r="8"/>
		</g>
		<g>
			<circle class="st1" cx="72" cy="296" r="8"/>
		</g>
		<g>
			<circle class="st1" cx="88" cy="264" r="8"/>
		</g>
	</g>
	<g>
		<g>
			<path class="st7" d="M368,496L368,496c-53.019,0-96-42.981-96-96v-96h192v96C464,453.019,421.019,496,368,496z"/>
		</g>
		<g>
			<path class="st8" d="M368,304v192h0c53.019,0,96-42.98,96-96v-96H368z"/>
		</g>
		<g>
			<circle class="st0" cx="368" cy="304" r="96"/>
		</g>
		<g>
			<g>
				<g>
					<path class="st5" d="M401.941,270.059l-11.314-11.314c-12.497-12.497-32.758-12.497-45.255,0l-11.314,11.314L368,304
						L401.941,270.059z"/>
				</g>
				<g>
					<path class="st2" d="M334.059,270.059l-11.314,11.314c-12.497,12.497-12.497,32.758,0,45.255l22.627,22.627
						c12.497,12.497,32.758,12.497,45.255,0l11.314-11.314L334.059,270.059z"/>
				</g>
				<g>
					<path class="st17" d="M368,304l33.941,33.941l11.314-11.314c12.497-12.497,12.497-32.758,0-45.255l-11.314-11.314L368,304z"/>
				</g>
			</g>
			<path class="st3" d="M339.716,287.03c0.007-0.007,0.014-0.015,0.022-0.022l5.635-5.635l-5.639-5.639
				c-0.006-0.006-0.012-0.012-0.018-0.018s-0.012-0.012-0.018-0.018l-5.639-5.64l-5.656,5.657l-5.658,5.657
				c-6.043,6.044-9.372,14.081-9.372,22.627s3.329,16.583,9.372,22.627c1.563,1.562,3.609,2.343,5.657,2.343
				c2.047,0,4.095-0.781,5.657-2.343c3.124-3.124,3.125-8.189,0-11.314c-3.022-3.022-4.687-7.041-4.687-11.314
				s1.665-8.292,4.686-11.313L339.716,287.03z"/>
			<path class="st18" d="M368,249.373c-8.547,0-16.583,3.329-22.627,9.373l-3.771,3.771h0l-7.542,7.542l5.658,5.658l5.656,5.656
				l5.656-5.656l5.658-5.658c3.022-3.022,7.04-4.686,11.313-4.686c4.418,0,8-3.582,8-8S372.418,249.373,368,249.373z"/>
		</g>
		<g>
			<circle class="st1" cx="392" cy="232" r="8"/>
		</g>
		<g>
			<circle class="st1" cx="424" cy="248" r="8"/>
		</g>
		<g>
			<circle class="st1" cx="440" cy="328" r="8"/>
		</g>
		<g>
			<circle class="st1" cx="328" cy="360" r="8"/>
		</g>
		<g>
			<circle class="st1" cx="296" cy="296" r="8"/>
		</g>
		<g>
			<circle class="st1" cx="312" cy="264" r="8"/>
		</g>
	</g>
</g>
</svg>
