<?xml version="1.0" encoding="utf-8"?>
<!-- Generator: Adobe Illustrator 24.0.0, SVG Export Plug-In . SVG Version: 6.00 Build 0)  -->
<svg version="1.1" id="Layer_1" xmlns="http://www.w3.org/2000/svg" xmlns:xlink="http://www.w3.org/1999/xlink" x="0px" y="0px"
	 viewBox="0 0 512 512" style="enable-background:new 0 0 512 512;" xml:space="preserve">
<style type="text/css">
	.st0{fill:#D7E6F0;}
	.st1{fill:#A5C3DC;}
	.st2{fill:#F06423;}
	.st3{fill:#FAA019;}
	.st4{fill:#FFD205;}
	.st5{fill:#91C83C;}
	.st6{fill:#5FAA46;}
	.st7{fill:#555A6E;}
	.st8{fill:#463C4B;}
	.st9{fill:#FFBE28;}
	.st10{fill:#A55023;}
	.st11{fill:#D26E28;}
	.st12{fill:#F28A39;}
	.st13{fill:#4B8C41;}
	.st14{fill:#69A041;}
	.st15{fill:#91B945;}
	.st16{fill:#FFFFFF;}
	.st17{fill:#F04B37;}
	.st18{fill:#AFD763;}
	.st19{fill:#E1322D;}
	.st20{fill:#5AD7FF;}
	.st21{fill:#A5FFFF;}
	.st22{fill:#23AAE6;}
	.st23{fill:#F0915A;}
	.st24{fill:#FAB991;}
	.st25{fill:#D2643C;}
	.st26{fill:#6E788C;}
	.st27{fill:#9B5FAA;}
	.st28{fill:#643773;}
	.st29{fill:#F5826E;}
	.st30{fill:#C81E14;}
	.st31{fill:#FAA037;}
	.st32{fill:#F57828;}
	.st33{fill:#D65A0A;}
	.st34{fill:#FFF050;}
	.st35{fill:#FFD23C;}
	.st36{fill:#FFFF50;}
	.st37{fill:#F5871E;}
	.st38{fill:#FAA01E;}
	.st39{fill:#FF6955;}
	.st40{fill:#FF8773;}
	.st41{fill:#BEDC5A;}
	.st42{fill:#BE5000;}
	.st43{fill:#D7322D;}
	.st44{fill:#FAF0DC;}
	.st45{fill:#FFBE55;}
	.st46{fill:#DC6E1E;}
	.st47{fill:#804B8F;}
	.st48{fill:#4182C3;}
	.st49{fill:#64AFE1;}
	.st50{fill:#FABE19;}
	.st51{fill:#8CAAC8;}
	.st52{fill:#737079;}
	.st53{fill:#96AAB9;}
	.st54{fill:#9BD2F0;}
	.st55{fill:#78D2F0;}
	.st56{fill:#C8E66E;}
	.st57{fill:#FADCBE;}
	.st58{fill:#8C3C14;}
	.st59{fill:#46783C;}
	.st60{fill:#784687;}
	.st61{fill:#96BEDC;}
	.st62{fill:#FFAA5A;}
	.st63{fill:#50C3EB;}
	.st64{fill:#D7E6E6;}
	.st65{fill:#FF6E50;}
	.st66{fill:#FF9682;}
</style>
<g>
	<g>
		<path class="st2" d="M256,132.004c-12.925-2.624-26.301-4.004-40-4.004h0c-110.457,0-200,89.543-200,200v16
			c0,22.091,17.909,40,40,40h0c22.091,0,40-17.909,40-40v-16C96,231.242,164.711,150.536,256,132.004z"/>
	</g>
	<g>
		<circle class="st19" cx="72" cy="304" r="40"/>
	</g>
	<g>
		<circle class="st6" cx="192" cy="152" r="40"/>
	</g>
	<g>
		<circle class="st19" cx="112" cy="184" r="40"/>
	</g>
	<g>
		<circle class="st19" cx="352" cy="168" r="40"/>
	</g>
	<g>
		<circle class="st6" cx="288" cy="152" r="40"/>
	</g>
	<g>
		<circle class="st5" cx="240" cy="152" r="40"/>
	</g>
	<g>
		<g>
			<circle class="st10" cx="64" cy="336" r="32"/>
		</g>
		<g>
			<circle class="st10" cx="80" cy="272" r="32"/>
		</g>
		<g>
			<circle class="st10" cx="112" cy="216" r="32"/>
		</g>
		<g>
			<circle class="st10" cx="160" cy="192" r="32"/>
		</g>
		<g>
			<circle class="st11" cx="112" cy="256" r="32"/>
		</g>
		<g>
			<circle class="st11" cx="80" cy="304" r="16"/>
		</g>
		<g>
			<circle class="st11" cx="128" cy="186.667" r="16"/>
		</g>
		<g>
			<circle class="st12" cx="48" cy="336" r="16"/>
		</g>
		<g>
			<circle class="st12" cx="88" cy="240" r="16"/>
		</g>
	</g>
	<g>
		<circle class="st19" cx="128" cy="248" r="40"/>
	</g>
	<g>
		<path class="st3" d="M296,128L296,128c-110.457,0-200,89.543-200,200v16c0,22.091-17.909,40-40,40h0h400c22.091,0,40-17.909,40-40
			v-16C496,217.543,406.457,128,296,128z"/>
	</g>
	<g>
		<path class="st35" d="M104,352c-4.418,0-8-3.582-8-8v-16c0-110.28,89.72-200,200-200c4.418,0,8,3.582,8,8s-3.582,8-8,8
			c-101.458,0-184,82.542-184,184v16C112,348.418,108.418,352,104,352z"/>
	</g>
	<g>
		<g>
			<circle class="st32" cx="404" cy="268" r="12"/>
		</g>
		<g>
			<circle class="st32" cx="340" cy="236" r="12"/>
		</g>
		<g>
			<circle class="st32" cx="232" cy="320" r="16"/>
		</g>
		<g>
			<circle class="st32" cx="364" cy="324" r="4"/>
		</g>
		<g>
			<circle class="st32" cx="208" cy="264" r="8"/>
		</g>
	</g>
</g>
</svg>
