<?xml version="1.0" encoding="utf-8"?>
<!-- Generator: Adobe Illustrator 24.0.0, SVG Export Plug-In . SVG Version: 6.00 Build 0)  -->
<svg version="1.1" id="Layer_1" xmlns="http://www.w3.org/2000/svg" xmlns:xlink="http://www.w3.org/1999/xlink" x="0px" y="0px"
	 viewBox="0 0 256 256" style="enable-background:new 0 0 256 256;" xml:space="preserve">
<style type="text/css">
	.st0{fill:#E63950;}
	.st1{fill:#D10028;}
	.st2{fill:#B7022D;}
	.st3{fill:#FCC4AE;}
	.st4{fill:#E8566F;}
	.st5{fill:#808285;}
	.st6{fill:#939598;}
	.st7{fill:#58595B;}
	.st8{fill:#414042;}
	.st9{fill:#8C3F0A;}
	.st10{fill:#7C3108;}
	.st11{fill:#6D2E03;}
	.st12{fill:#995222;}
	.st13{fill:#F79219;}
	.st14{fill:#EF7816;}
	.st15{fill:#FFC91D;}
	.st16{fill:#FFA91A;}
	.st17{fill:#648940;}
	.st18{fill:#5A7A39;}
	.st19{fill:#F1F2F2;}
	.st20{fill:#E6E7E8;}
	.st21{fill:#D1D3D4;}
	.st22{fill:#FFFFFF;}
	.st23{fill:#76A34F;}
	.st24{fill:#F2AD97;}
	.st25{fill:#E59076;}
	.st26{fill:#91B56B;}
	.st27{fill:#F7CB15;}
	.st28{fill:#377DE2;}
	.st29{fill:#2266D3;}
	.st30{fill:#478CF7;}
	.st31{fill:#5E9CF7;}
	.st32{fill:#FFD2C0;}
	.st33{fill:#27C1E6;}
	.st34{fill:#009ADD;}
	.st35{fill:#893ADD;}
	.st36{fill:#A54AF4;}
	.st37{fill:#B171F4;}
	.st38{fill:#827F7E;}
</style>
<g>
	<g>
		<g>
			<g>
				<circle class="st19" cx="128" cy="128" r="95.306"/>
			</g>
			<g>
				<path class="st22" d="M38.689,130c-1.1,0-2-0.9-2-2c0-1.101,0.9-2,2-2c1.11,0,2,0.899,2,2C40.689,129.1,39.8,130,38.689,130z
					 M39.05,122.01c-0.06,0-0.12,0-0.18,0c-1.101-0.1-1.91-1.08-1.811-2.17c2.01-22.61,12.37-43.57,29.17-59.03
					C83.13,45.26,105.069,36.7,128,36.7c1.1,0,2,0.89,2,1.989c0,1.11-0.9,2-2,2c-44.8,0-82.99,34.92-86.96,79.5
					C40.95,121.21,40.069,122.01,39.05,122.01z"/>
			</g>
			<g>
				<path class="st20" d="M190.206,55.794c14.395,16.694,23.099,38.434,23.099,62.206c0,52.636-42.67,95.306-95.306,95.306
					c-23.773,0-45.512-8.704-62.206-23.099c17.477,20.268,43.343,33.099,72.206,33.099c52.636,0,95.306-42.67,95.306-95.306
					C223.306,99.137,210.475,73.271,190.206,55.794z"/>
			</g>
			<g>
				<path class="st21" d="M192.845,58.155c15.799,17.01,25.461,39.799,25.461,64.845c0,52.636-42.67,95.306-95.306,95.306
					c-25.046,0-47.835-9.661-64.845-25.461c17.404,18.737,42.255,30.461,69.845,30.461c52.636,0,95.306-42.67,95.306-95.306
					C223.306,100.41,211.582,75.559,192.845,58.155z"/>
			</g>
		</g>
	</g>
	<g>
		<path class="st3" d="M137.427,124.573h60.865c3.645,0,6.429-3.222,5.947-6.835c-4.57-34.274-31.702-61.407-65.976-65.977
			c-3.613-0.482-6.835,2.302-6.835,5.947v60.865C131.427,121.886,134.113,124.573,137.427,124.573z"/>
	</g>
	<g>
		<path class="st24" d="M204.239,117.738c-2.612-19.594-12.608-36.845-27.087-48.89c9.024,10.848,15.13,24.209,17.087,38.89
			c0.482,3.613-2.302,6.835-5.947,6.835h-56.865v4c0,3.314,2.686,6,6,6h60.865C201.937,124.573,204.721,121.351,204.239,117.738z"/>
	</g>
	<g>
		<path class="st17" d="M124.573,118.573V57.708c0-3.645-3.222-6.429-6.835-5.947c-34.274,4.57-61.407,31.702-65.976,65.977
			c-0.482,3.613,2.302,6.835,5.947,6.835h60.865C121.887,124.573,124.573,121.886,124.573,118.573z"/>
	</g>
	<g>
		<path class="st18" d="M117.738,51.761c-1.062,0.142-2.117,0.305-3.165,0.49v56.322c0,3.314-2.686,6-6,6H52.251
			c-0.184,1.048-0.348,2.103-0.49,3.165c-0.482,3.613,2.302,6.835,5.947,6.835h60.865c3.314,0,6-2.686,6-6V57.708
			C124.573,54.063,121.351,51.279,117.738,51.761z"/>
	</g>
	<g>
		<path class="st13" d="M118.573,131.427H57.708c-3.645,0-6.429,3.222-5.947,6.835c4.57,34.274,31.702,61.407,65.976,65.977
			c3.613,0.482,6.835-2.302,6.835-5.947v-60.865C124.573,134.114,121.887,131.427,118.573,131.427z"/>
	</g>
	<g>
		<path class="st14" d="M118.573,131.427h-4v56.865c0,3.645-3.222,6.429-6.835,5.947c-14.68-1.957-28.041-8.063-38.889-17.087
			c12.045,14.479,29.295,24.475,48.889,27.087c3.613,0.482,6.835-2.302,6.835-5.947v-60.865
			C124.573,134.114,121.887,131.427,118.573,131.427z"/>
	</g>
	<g>
		<path class="st13" d="M131.427,137.427v60.865c0,3.645,3.222,6.429,6.835,5.947c34.274-4.57,61.407-31.702,65.976-65.977
			c0.482-3.613-2.302-6.835-5.947-6.835h-60.865C134.113,131.427,131.427,134.114,131.427,137.427z"/>
	</g>
	<g>
		<path class="st14" d="M198.292,131.427h-4.543c-5.584,31.721-30.6,56.738-62.322,62.322v4.543c0,3.645,3.222,6.429,6.835,5.947
			c34.274-4.57,61.407-31.702,65.976-65.977C204.721,134.649,201.937,131.427,198.292,131.427z"/>
	</g>
	<g>
		<g>
			<g>
				<path class="st26" d="M60.22,79.767c-2.957,4.234-1.922,10.064,2.312,13.021c3.22,2.249,7.361,2.188,10.462,0.169
					c0.591,1.923,1.805,3.67,3.582,4.912c2.599,1.815,5.799,2.126,8.567,1.116c0.005,2.947,1.398,5.844,3.997,7.659
					c4.234,2.957,10.064,1.922,13.021-2.312c0.446-0.639,0.801-1.314,1.068-2.01c3.627,0.865,7.575-0.502,9.839-3.743
					c2.957-4.234,1.922-10.064-2.312-13.021c-2.649-1.85-5.922-2.137-8.726-1.057c-0.476-2.238-1.768-4.307-3.791-5.72
					c-2.832-1.978-6.378-2.17-9.301-0.812c0.268-3.211-1.132-6.475-3.965-8.453c-4.234-2.957-10.064-1.922-13.021,2.312
					c-0.917,1.313-1.45,2.779-1.623,4.266C66.63,75.093,62.54,76.445,60.22,79.767z"/>
			</g>
		</g>
		<g>
			<g>
				<path class="st23" d="M110.755,85.558c-0.782-0.546-1.619-0.955-2.483-1.234c0.866,2.688,0.51,5.735-1.232,8.229
					c-2.264,3.242-6.212,4.608-9.839,3.743c-0.267,0.696-0.622,1.371-1.068,2.01c-2.41,3.451-6.729,4.777-10.537,3.547
					c0.604,1.875,1.803,3.576,3.543,4.791c4.234,2.957,10.064,1.922,13.021-2.312c0.446-0.639,0.801-1.314,1.068-2.01
					c3.627,0.865,7.575-0.502,9.839-3.743C116.024,94.345,114.989,88.515,110.755,85.558z"/>
			</g>
		</g>
		<g>
			<g>
				<path class="st23" d="M64.307,98.231c-2.5,3.579-1.625,8.507,1.954,11.007c2.722,1.901,6.223,1.85,8.843,0.143
					c0.5,1.626,1.525,3.103,3.028,4.152c2.197,1.534,4.902,1.797,7.242,0.943c0.004,2.491,1.182,4.94,3.379,6.475
					c3.579,2.5,8.507,1.625,11.007-1.954c0.377-0.54,0.677-1.111,0.903-1.699c3.066,0.731,6.403-0.424,8.317-3.164
					c2.5-3.579,1.625-8.507-1.954-11.007c-2.239-1.564-5.006-1.807-7.376-0.893c-0.402-1.892-1.494-3.641-3.205-4.835
					c-2.394-1.672-5.392-1.834-7.863-0.687c0.227-2.715-0.957-5.473-3.351-7.146c-3.579-2.5-8.507-1.625-11.007,1.954
					c-0.775,1.11-1.225,2.349-1.372,3.606C69.725,94.279,66.269,95.422,64.307,98.231z"/>
			</g>
		</g>
		<g>
			<g>
				<path class="st17" d="M107.026,103.126c-0.881-0.615-1.844-1.025-2.833-1.242c0.456,2.081,0.076,4.338-1.24,6.222
					c-1.914,2.74-5.251,3.895-8.317,3.164c-0.226,0.588-0.526,1.159-0.903,1.699c-1.884,2.698-5.148,3.859-8.173,3.197
					c0.411,1.872,1.498,3.6,3.193,4.784c3.579,2.5,8.507,1.625,11.007-1.954c0.377-0.54,0.677-1.111,0.903-1.699
					c3.066,0.731,6.403-0.424,8.317-3.164C111.48,110.554,110.605,105.626,107.026,103.126z"/>
			</g>
		</g>
		<g>
			<g>
				<path class="st23" d="M74.941,65.885c-2.5,3.579-1.625,8.507,1.954,11.007c2.722,1.901,6.223,1.85,8.844,0.143
					c0.5,1.626,1.525,3.103,3.028,4.152c2.197,1.534,4.902,1.797,7.242,0.943c0.004,2.491,1.182,4.94,3.379,6.475
					c3.579,2.5,8.507,1.625,11.007-1.954c0.377-0.54,0.677-1.111,0.903-1.699c3.066,0.731,6.403-0.424,8.317-3.164
					c2.5-3.579,1.625-8.507-1.954-11.007c-2.239-1.564-5.006-1.807-7.376-0.893c-0.402-1.892-1.494-3.641-3.205-4.835
					c-2.394-1.672-5.392-1.834-7.863-0.687c0.227-2.715-0.957-5.473-3.351-7.146c-3.579-2.5-8.507-1.625-11.007,1.954
					c-0.775,1.11-1.225,2.349-1.372,3.606C80.359,61.933,76.902,63.076,74.941,65.885z"/>
			</g>
		</g>
		<g>
			<g>
				<path class="st17" d="M117.659,70.78c-0.881-0.615-1.844-1.025-2.833-1.242c0.456,2.081,0.076,4.338-1.24,6.222
					c-1.914,2.74-5.251,3.895-8.317,3.164c-0.226,0.588-0.526,1.159-0.903,1.699c-1.884,2.698-5.148,3.859-8.173,3.197
					c0.411,1.872,1.498,3.6,3.193,4.784c3.579,2.5,8.507,1.625,11.007-1.954c0.377-0.54,0.677-1.111,0.903-1.699
					c3.066,0.731,6.403-0.424,8.317-3.164C122.113,78.207,121.239,73.279,117.659,70.78z"/>
			</g>
		</g>
	</g>
	<g>
		<g>
			<path class="st3" d="M139.153,135.551c-2.245,1.118-3.159,3.845-2.041,6.09c3.021,6.069,10.417,8.548,16.486,5.527
				c2.245-1.118,3.159-3.845,2.041-6.09c-1.118-2.245-3.844-3.159-6.09-2.041c-1.585,0.789-3.517,0.141-4.307-1.444
				C144.124,135.347,141.398,134.433,139.153,135.551z"/>
		</g>
	</g>
	<g>
		<g>
			<path class="st24" d="M155.638,141.077c-0.453-0.91-1.171-1.602-2.014-2.028c0.005,0.009,0.01,0.019,0.014,0.028
				c1.118,2.245,0.204,4.972-2.041,6.09c-4.401,2.191-9.5,1.488-13.123-1.378c3.529,4.464,9.831,6.013,15.123,3.378
				C155.842,146.049,156.756,143.322,155.638,141.077z"/>
		</g>
	</g>
	<g>
		<g>
			<path class="st3" d="M161.595,153.34c1.774,1.774,4.649,1.773,6.423,0c4.794-4.794,4.794-12.594,0-17.387
				c-1.774-1.774-4.649-1.773-6.423,0s-1.774,4.649,0,6.423c1.252,1.252,1.252,3.29,0,4.542
				C159.822,148.691,159.822,151.567,161.595,153.34z"/>
		</g>
	</g>
	<g>
		<path class="st24" d="M168.018,135.953c-0.26-0.26-0.544-0.481-0.845-0.666c3.6,4.812,3.215,11.682-1.155,16.053
			c-1.424,1.424-3.559,1.705-5.264,0.841c0.212,0.417,0.492,0.81,0.841,1.159c1.773,1.774,4.649,1.773,6.422,0
			C172.811,148.546,172.811,140.746,168.018,135.953z"/>
	</g>
	<g>
		<g>
			<path class="st3" d="M189.279,140.721c-0.811-2.373-3.394-3.639-5.766-2.828c-6.415,2.193-9.849,9.196-7.656,15.611
				c0.811,2.373,3.394,3.639,5.766,2.828c2.373-0.811,3.639-3.393,2.828-5.766c-0.573-1.676,0.324-3.505,2-4.078
				C188.824,145.677,190.091,143.095,189.279,140.721z"/>
		</g>
	</g>
	<g>
		<path class="st24" d="M189.28,140.722c-0.399-1.167-1.226-2.065-2.245-2.582c0.094,0.186,0.176,0.38,0.245,0.582
			c0.811,2.373-0.455,4.955-2.828,5.766c-1.676,0.573-2.573,2.403-2,4.078c0.812,2.374-0.455,4.955-2.828,5.767
			c-1.207,0.413-2.467,0.288-3.521-0.247c1.005,1.992,3.351,2.989,5.521,2.247c2.373-0.812,3.639-3.393,2.828-5.767
			c-0.573-1.675,0.324-3.505,2-4.078C188.824,145.677,190.091,143.095,189.28,140.722z"/>
	</g>
	<g>
		<g>
			<path class="st3" d="M151.724,170.797c-0.267,2.494,1.539,4.732,4.032,4.999c6.741,0.722,12.812-4.175,13.534-10.916
				c0.267-2.494-1.539-4.732-4.032-4.999c-2.494-0.267-4.732,1.538-4.999,4.032c-0.189,1.761-1.775,3.04-3.535,2.852
				C154.229,166.497,151.991,168.303,151.724,170.797z"/>
		</g>
	</g>
	<g>
		<g>
			<path class="st3" d="M171.639,170.797c-0.267,2.494,1.539,4.732,4.032,4.999c6.741,0.722,12.812-4.175,13.534-10.916
				c0.267-2.494-1.539-4.732-4.032-4.999c-2.494-0.267-4.732,1.538-4.999,4.032c-0.189,1.761-1.775,3.04-3.535,2.852
				C174.145,166.497,171.906,168.303,171.639,170.797z"/>
		</g>
	</g>
	<g>
		<path class="st24" d="M186.74,160.343c0.384,0.757,0.562,1.629,0.464,2.537c-0.722,6.74-6.793,11.637-13.534,10.916
			c-0.563-0.061-1.091-0.222-1.568-0.463c0.673,1.324,1.981,2.293,3.568,2.463c6.741,0.721,12.812-4.176,13.534-10.916
			C189.412,162.949,188.376,161.171,186.74,160.343z"/>
	</g>
	<g>
		<path class="st24" d="M166.825,160.343c0.384,0.757,0.561,1.63,0.464,2.537c-0.722,6.74-6.793,11.638-13.534,10.916
			c-0.563-0.061-1.091-0.222-1.568-0.463c0.673,1.324,1.981,2.293,3.568,2.463c6.741,0.722,12.812-4.176,13.534-10.916
			C169.496,162.949,168.461,161.172,166.825,160.343z"/>
	</g>
	<g>
		<g>
			<path class="st3" d="M136.887,154.495c-1.86,1.683-2.003,4.555-0.32,6.415c4.549,5.026,12.339,5.415,17.366,0.866
				c1.86-1.683,2.003-4.555,0.32-6.415c-1.683-1.859-4.555-2.003-6.415-0.32c-1.313,1.188-3.348,1.087-4.536-0.226
				C141.619,152.955,138.747,152.812,136.887,154.495z"/>
		</g>
	</g>
	<g>
		<path class="st24" d="M154.253,155.361c-0.385-0.425-0.832-0.761-1.315-1.005c0.903,1.781,0.548,4.015-1.005,5.419
			c-4.481,4.055-11.158,4.186-15.777,0.606c0.122,0.183,0.259,0.359,0.411,0.527c4.549,5.026,12.339,5.415,17.366,0.866
			C155.792,160.093,155.935,157.22,154.253,155.361z"/>
	</g>
	<g>
		<g>
			<path class="st3" d="M142.848,186.569c2.367,0.829,4.958-0.418,5.787-2.785c2.241-6.398-1.141-13.427-7.539-15.668
				c-2.367-0.829-4.958,0.418-5.787,2.785c-0.829,2.367,0.418,4.958,2.785,5.787c1.671,0.585,2.555,2.422,1.97,4.093
				C139.234,183.149,140.481,185.74,142.848,186.569z"/>
		</g>
	</g>
	<g>
		<g>
			<path class="st3" d="M169.972,187.087c1.279-2.157,0.567-4.944-1.59-6.223c-5.831-3.458-13.388-1.527-16.846,4.304
				c-1.279,2.157-0.567,4.944,1.59,6.223c2.157,1.279,4.943,0.568,6.223-1.59c0.903-1.523,2.878-2.028,4.401-1.124
				C165.907,189.956,168.693,189.244,169.972,187.087z"/>
		</g>
	</g>
	<g>
		<path class="st24" d="M168.382,180.864c-0.089-0.053-0.179-0.104-0.27-0.155c0.681,1.34,0.683,2.989-0.141,4.378
			c-1.279,2.157-4.066,2.869-6.223,1.59c-1.523-0.903-3.498-0.399-4.401,1.124c-1.228,2.07-3.843,2.809-5.958,1.735
			c0.377,0.746,0.964,1.397,1.736,1.855c2.157,1.279,4.943,0.567,6.223-1.59c0.903-1.523,2.878-2.027,4.401-1.124
			c2.157,1.279,4.943,0.567,6.223-1.59C171.251,184.929,170.539,182.143,168.382,180.864z"/>
	</g>
	<g>
		<g>
			<path class="st24" d="M144.653,170.073c2.533,3.197,3.427,7.585,1.982,11.711c-0.829,2.367-3.42,3.614-5.787,2.785
				c-0.191-0.067-0.374-0.146-0.55-0.234c0.511,1.009,1.398,1.831,2.55,2.234c2.367,0.829,4.958-0.418,5.787-2.785
				C150.413,178.709,148.651,173.237,144.653,170.073z"/>
		</g>
	</g>
	<g>
		<g>
			<g>
				<path class="st22" d="M163.886,79.49c-3.433,7.929-12.644,11.573-20.573,8.14c-7.929-3.433-11.573-12.644-8.14-20.573
					s16.795-21.159,24.724-17.726C167.825,52.764,167.319,71.561,163.886,79.49z"/>
			</g>
		</g>
		<g>
			<path class="st20" d="M159.896,49.331c-0.222-0.096-0.449-0.179-0.679-0.249c3.197,7.063,2.28,19.378-0.331,25.408
				c-3.433,7.929-12.644,11.574-20.573,8.141c-0.723-0.313-1.411-0.675-2.06-1.079c1.623,2.608,4.028,4.766,7.06,6.079
				c7.929,3.433,17.14-0.211,20.573-8.141C167.319,71.561,167.825,52.764,159.896,49.331z"/>
		</g>
		<g>
			<g>
				<path class="st15" d="M159.017,76.478c-2.197,5.075-8.092,7.407-13.167,5.21c-5.075-2.197-7.407-8.092-5.21-13.167
					s10.749-13.542,15.823-11.345S161.214,71.403,159.017,76.478z"/>
			</g>
		</g>
		<g>
			<path class="st16" d="M156.463,57.176c-0.518-0.224-1.072-0.337-1.652-0.354c1.322,4.602,0.693,11.222-0.794,14.656
				c-2.197,5.075-8.092,7.407-13.167,5.21c-0.049-0.021-0.097-0.043-0.146-0.065c0.989,2.191,2.766,4.035,5.146,5.065
				c5.075,2.197,10.97-0.135,13.167-5.21S161.538,59.373,156.463,57.176z"/>
		</g>
	</g>
	<g>
		<g>
			<path class="st22" d="M183.786,82.685c-0.07,0-0.139,0.001-0.209,0.001c-3.054-5.812-9.149-9.775-16.17-9.775
				c-10.082,0-18.255,8.173-18.255,18.255c0,1.804,0.262,3.546,0.749,5.192c-3.396,3.315-5.504,7.943-5.504,13.063
				c0,10.082,8.173,18.255,18.255,18.255c6.807,0,12.743-3.725,15.882-9.248c1.663,0.499,3.426,0.767,5.252,0.767
				c10.082,0,18.255-8.173,18.255-18.255S193.868,82.685,183.786,82.685z"/>
		</g>
		<g>
			<g>
				<path class="st20" d="M193.951,85.775c1.951,2.905,3.09,6.402,3.09,10.165c0,10.082-8.173,18.255-18.255,18.255
					c-1.826,0-3.589-0.268-5.252-0.767c-3.139,5.522-9.075,9.248-15.882,9.248c-3.763,0-7.26-1.139-10.165-3.09
					c3.277,4.879,8.846,8.09,15.165,8.09c6.807,0,12.743-3.726,15.882-9.248c1.663,0.499,3.426,0.767,5.252,0.767
					c10.082,0,18.255-8.173,18.255-18.255C202.041,94.621,198.83,89.052,193.951,85.775z"/>
			</g>
		</g>
		<g>
			<circle class="st15" cx="170.909" cy="100.098" r="11.821"/>
		</g>
		<g>
			<path class="st16" d="M176.386,89.622c0.858,1.637,1.344,3.5,1.344,5.477c0,6.528-5.292,11.82-11.821,11.82
				c-1.977,0-3.839-0.486-5.477-1.343c1.975,3.771,5.925,6.343,10.477,6.343c6.528,0,11.821-5.292,11.821-11.82
				C182.729,95.547,180.156,91.597,176.386,89.622z"/>
		</g>
	</g>
	<g>
		<g>
			<path class="st14" d="M83.913,134.158l-0.664,40.006c-0.061,3.662-3.848,6.068-7.188,4.566l-28.814-12.95
				c-3.341-1.501-4.056-5.931-1.358-8.407l29.477-27.055C78.666,127.289,83.987,129.681,83.913,134.158z"/>
		</g>
		<g>
			<g>
				<g>
					<g>
						<g>
							<path class="st13" d="M77.633,155.284c1.243,0.559,1.798,2.019,1.239,3.262l-0.529,1.177
								c-0.559,1.243-2.019,1.798-3.262,1.239c-1.243-0.559-1.798-2.019-1.239-3.262l0.529-1.177
								C74.929,155.28,76.39,154.726,77.633,155.284z"/>
						</g>
					</g>
					<g>
						<g>
							<path class="st13" d="M63.738,149.039c1.243,0.559,1.798,2.019,1.239,3.262l-0.529,1.177
								c-0.559,1.243-2.019,1.798-3.262,1.239c-1.243-0.559-1.798-2.019-1.239-3.262l0.529-1.177
								C61.034,149.035,62.495,148.48,63.738,149.039z"/>
						</g>
					</g>
				</g>
				<g>
					<g>
						<path class="st13" d="M66.875,160.64c1.243,0.559,1.798,2.019,1.239,3.262l-0.529,1.177c-0.559,1.243-2.019,1.798-3.262,1.239
							c-1.243-0.559-1.798-2.019-1.239-3.262l0.529-1.177C64.171,160.636,65.632,160.081,66.875,160.64z"/>
					</g>
				</g>
			</g>
			<g>
				<g>
					<g>
						<path class="st13" d="M74.85,142.895c1.243,0.559,1.798,2.019,1.239,3.262l-0.529,1.177c-0.559,1.243-2.019,1.798-3.262,1.239
							c-1.243-0.559-1.798-2.019-1.239-3.262l0.529-1.177C72.147,142.891,73.607,142.336,74.85,142.895z"/>
					</g>
				</g>
			</g>
		</g>
	</g>
	<g>
		<g>
			<path class="st15" d="M115.305,143.322l-12.215,38.101c-1.118,3.488-5.439,4.694-8.202,2.29l-23.832-20.736
				c-2.763-2.404-2.166-6.851,1.134-8.44l36.047-17.365C112.272,135.228,116.673,139.057,115.305,143.322z"/>
		</g>
		<g>
			<g>
				<g>
					<g>
						<g>
							<path class="st16" d="M103.179,161.725c1.028,0.895,1.136,2.453,0.242,3.481l-0.847,0.974
								c-0.895,1.028-2.453,1.136-3.481,0.242s-1.136-2.453-0.242-3.481l0.847-0.974
								C100.592,160.939,102.151,160.831,103.179,161.725z"/>
						</g>
					</g>
					<g>
						<g>
							<path class="st16" d="M91.687,151.726c1.028,0.895,1.136,2.453,0.242,3.481l-0.847,0.974
								c-0.895,1.028-2.453,1.136-3.481,0.242s-1.136-2.453-0.242-3.481l0.847-0.974C89.1,150.939,90.659,150.831,91.687,151.726z"
								/>
						</g>
					</g>
				</g>
				<g>
					<g>
						<path class="st16" d="M91.331,163.738c1.028,0.895,1.136,2.453,0.242,3.481l-0.847,0.974
							c-0.895,1.028-2.453,1.136-3.481,0.242s-1.136-2.453-0.242-3.481l0.847-0.974C88.745,162.952,90.303,162.843,91.331,163.738z"
							/>
					</g>
				</g>
			</g>
			<g>
				<g>
					<g>
						<path class="st16" d="M104.102,149.061c1.028,0.895,1.136,2.453,0.242,3.481l-0.847,0.974
							c-0.895,1.028-2.453,1.136-3.481,0.242c-1.028-0.895-1.136-2.453-0.242-3.481l0.847-0.974
							C101.515,148.275,103.074,148.167,104.102,149.061z"/>
					</g>
				</g>
			</g>
		</g>
	</g>
	<g>
		<g>
			<path class="st16" d="M121.209,172.905L96.685,204.52c-2.245,2.894-6.718,2.548-8.491-0.657l-15.29-27.643
				c-1.773-3.205,0.311-7.178,3.956-7.542l39.814-3.971C121.13,164.262,123.954,169.367,121.209,172.905z"/>
		</g>
		<g>
			<g>
				<g>
					<g>
						<g>
							<path class="st13" d="M103.514,186.044c0.66,1.192,0.228,2.694-0.965,3.354l-1.13,0.625c-1.192,0.66-2.694,0.228-3.354-0.965
								s-0.228-2.694,0.965-3.354l1.13-0.625C101.352,184.419,102.854,184.851,103.514,186.044z"/>
						</g>
					</g>
					<g>
						<g>
							<path class="st13" d="M96.14,172.713c0.66,1.192,0.228,2.694-0.965,3.354l-1.13,0.625c-1.192,0.66-2.694,0.228-3.354-0.965
								c-0.66-1.192-0.228-2.694,0.965-3.354l1.13-0.625C93.979,171.089,95.481,171.521,96.14,172.713z"/>
						</g>
					</g>
				</g>
				<g>
					<g>
						<path class="st13" d="M91.693,183.878c0.66,1.192,0.228,2.694-0.965,3.354l-1.13,0.625c-1.192,0.66-2.694,0.228-3.354-0.965
							c-0.66-1.192-0.228-2.694,0.965-3.354l1.13-0.625C89.532,182.253,91.033,182.685,91.693,183.878z"/>
					</g>
				</g>
			</g>
			<g>
				<g>
					<g>
						<path class="st13" d="M108.717,174.461c0.66,1.192,0.228,2.694-0.965,3.354l-1.13,0.625c-1.192,0.66-2.694,0.228-3.354-0.965
							s-0.228-2.694,0.965-3.354l1.13-0.625C106.556,172.837,108.058,173.269,108.717,174.461z"/>
					</g>
				</g>
			</g>
		</g>
	</g>
</g>
</svg>
