<?xml version="1.0" encoding="utf-8"?>
<!-- Generator: Adobe Illustrator 24.0.0, SVG Export Plug-In . SVG Version: 6.00 Build 0)  -->
<svg version="1.1" id="Layer_1" xmlns="http://www.w3.org/2000/svg" xmlns:xlink="http://www.w3.org/1999/xlink" x="0px" y="0px"
	 viewBox="0 0 512 512" style="enable-background:new 0 0 512 512;" xml:space="preserve">
<style type="text/css">
	.st0{fill:#D7E6F0;}
	.st1{fill:#A5C3DC;}
	.st2{fill:#F06423;}
	.st3{fill:#FAA019;}
	.st4{fill:#FFD205;}
	.st5{fill:#91C83C;}
	.st6{fill:#5FAA46;}
	.st7{fill:#555A6E;}
	.st8{fill:#463C4B;}
	.st9{fill:#FFBE28;}
	.st10{fill:#A55023;}
	.st11{fill:#D26E28;}
	.st12{fill:#F28A39;}
	.st13{fill:#4B8C41;}
	.st14{fill:#69A041;}
	.st15{fill:#91B945;}
	.st16{fill:#FFFFFF;}
	.st17{fill:#F04B37;}
	.st18{fill:#AFD763;}
	.st19{fill:#E1322D;}
	.st20{fill:#5AD7FF;}
	.st21{fill:#A5FFFF;}
	.st22{fill:#23AAE6;}
	.st23{fill:#F0915A;}
	.st24{fill:#FAB991;}
	.st25{fill:#D2643C;}
	.st26{fill:#6E788C;}
	.st27{fill:#9B5FAA;}
	.st28{fill:#643773;}
	.st29{fill:#F5826E;}
	.st30{fill:#C81E14;}
	.st31{fill:#FAA037;}
	.st32{fill:#F57828;}
	.st33{fill:#D65A0A;}
	.st34{fill:#FFF050;}
	.st35{fill:#FFD23C;}
	.st36{fill:#FFFF50;}
	.st37{fill:#F5871E;}
	.st38{fill:#FAA01E;}
	.st39{fill:#FF6955;}
	.st40{fill:#FF8773;}
	.st41{fill:#BEDC5A;}
	.st42{fill:#BE5000;}
	.st43{fill:#D7322D;}
	.st44{fill:#FAF0DC;}
	.st45{fill:#FFBE55;}
	.st46{fill:#DC6E1E;}
	.st47{fill:#804B8F;}
	.st48{fill:#4182C3;}
	.st49{fill:#64AFE1;}
	.st50{fill:#FABE19;}
	.st51{fill:#8CAAC8;}
	.st52{fill:#737079;}
	.st53{fill:#96AAB9;}
	.st54{fill:#9BD2F0;}
	.st55{fill:#78D2F0;}
	.st56{fill:#C8E66E;}
	.st57{fill:#FADCBE;}
	.st58{fill:#8C3C14;}
	.st59{fill:#46783C;}
	.st60{fill:#784687;}
	.st61{fill:#96BEDC;}
	.st62{fill:#FFAA5A;}
	.st63{fill:#50C3EB;}
	.st64{fill:#D7E6E6;}
	.st65{fill:#FF6E50;}
	.st66{fill:#FF9682;}
</style>
<g>
	<g>
		<path class="st31" d="M341.849,125.159c17.373,5.029,27.352,23.232,22.384,40.622v0l-8.541,29.9l-32.045,112.138l-5.651,19.766
			l0,0c-3.054,10.707-13.808,17.172-24.74,15.06c-12.058-2.33-24.513-3.552-37.256-3.552s-25.198,1.222-37.256,3.552
			c-10.932,2.113-21.686-4.352-24.74-15.06l0,0l-5.651-19.766L156.308,195.68l-8.541-29.9v0
			c-4.969-17.39,5.011-35.593,22.384-40.622c27.25-7.888,56.052-12.114,85.849-12.114S314.6,117.27,341.849,125.159z"/>
	</g>
	<g>
		<path class="st45" d="M322.446,174.465c-0.984,0-1.984-0.122-2.982-0.377c-20.606-5.271-41.958-7.943-63.464-7.943
			s-42.857,2.673-63.464,7.943c-6.418,1.641-12.957-2.231-14.6-8.652c-1.642-6.421,2.231-12.957,8.652-14.6
			c22.548-5.768,45.901-8.692,69.411-8.692s46.863,2.924,69.411,8.692c6.421,1.642,10.294,8.179,8.652,14.6
			C332.676,170.859,327.797,174.465,322.446,174.465z"/>
	</g>
	<g>
		<path class="st32" d="M452.92,225.894c13.803,13.913,15.174,35.909,3.414,51.587h0l-53.648,71.526l0,0
			c-6.622,8.826-18.973,11.023-28.189,4.954c-17.262-11.368-36.256-20.318-56.502-26.377l5.651-19.766l32.045-112.138l8.541-29.9
			C397.663,179.958,427.729,200.503,452.92,225.894z"/>
	</g>
	<g>
		<path class="st31" d="M422.714,265.81c-3.063,0-6.126-1.165-8.468-3.498c-9.687-9.647-20.241-18.418-31.372-26.07
			c-5.462-3.755-6.846-11.226-3.091-16.687c3.755-5.462,11.227-6.845,16.687-3.091c12.322,8.471,24.002,18.175,34.712,28.843
			c4.696,4.677,4.712,12.275,0.035,16.97C428.872,264.632,425.793,265.81,422.714,265.81z"/>
	</g>
	<g>
		<path class="st32" d="M194.004,327.584c-20.246,6.059-39.24,15.009-56.502,26.377c-9.215,6.069-21.567,3.872-28.189-4.954h0
			l-53.648-71.526l-0.001-0.002c-11.759-15.676-10.388-37.672,3.414-51.583c25.191-25.392,55.258-45.938,88.689-60.115l8.541,29.9
			l32.045,112.138L194.004,327.584z"/>
	</g>
	<g>
		<path class="st31" d="M89.286,265.81c-3.079,0-6.157-1.177-8.502-3.532c-4.677-4.696-4.662-12.294,0.034-16.97
			c10.711-10.668,22.39-20.373,34.712-28.843c5.463-3.753,12.934-2.371,16.687,3.091c3.755,5.461,2.371,12.932-3.091,16.687
			c-11.131,7.651-21.686,16.422-31.372,26.07C95.413,264.644,92.349,265.81,89.286,265.81z"/>
	</g>
	<g>
		<path class="st33" d="M482.256,393.754L482.256,393.754c-13.268,8.846-31.183,6.188-41.099-6.301
			c-11.305-14.238-24.215-27.144-38.47-38.446l53.648-71.526c17.751,24.67,31.051,52.762,38.726,83.088
			C498.261,373.218,493.112,386.516,482.256,393.754z"/>
	</g>
	<g>
		<path class="st33" d="M109.313,349.007c-14.255,11.302-27.165,24.208-38.47,38.446c-9.916,12.489-27.831,15.148-41.099,6.301l0,0
			c-10.856-7.239-16.006-20.536-12.804-33.185c7.675-30.326,20.975-58.418,38.726-83.088L109.313,349.007z"/>
	</g>
	<g>
		<circle class="st32" cx="281.687" cy="200.381" r="15.412"/>
	</g>
	<g>
		<circle class="st33" cx="363.886" cy="303.13" r="15.412"/>
	</g>
	<g>
		<circle class="st32" cx="256" cy="246.618" r="10.275"/>
	</g>
	<g>
		<circle class="st33" cx="132.701" cy="277.443" r="10.275"/>
	</g>
	<g>
		<circle class="st32" cx="220.038" cy="303.13" r="5.137"/>
	</g>
</g>
</svg>
